<svg xmlns="http://www.w3.org/2000/svg" xmlns:svg="http://www.w3.org/2000/svg" xmlns:xlink="http://www.w3.org/1999/xlink" id="Layer_1" width="44.637" height="44.637" x="0" y="0" enable-background="new 0 0 44.637 44.637" version="1.1" viewBox="0 0 44.637 44.637" xml:space="preserve"><path fill="#FFF" d="M22.32,43.061c-11.498,0-20.812-9.312-20.812-20.812S10.82,1.428,22.32,1.428	c11.496,0,20.816,9.321,20.816,20.821C43.136,33.743,33.816,43.064,22.32,43.061z"/><g><path d="M24.071,27.385h-3.228c-0.445,0-0.807,0.358-0.807,0.807c0,0.445,0.36,0.808,0.807,0.808h3.228 c0.447,0,0.808-0.36,0.808-0.808C24.877,27.744,24.518,27.385,24.071,27.385z"/><path d="M22.455,12.867c-2.228,0-4.031,1.806-4.031,4.031c0,2.227,1.805,4.032,4.031,4.032c2.229,0,4.035-1.806,4.035-4.032 C26.49,14.673,24.686,12.867,22.455,12.867z M24.121,16.093c-0.445,0-0.808-0.36-0.808-0.807c0-0.445,0.361-0.807,0.808-0.807 c0.445,0,0.807,0.36,0.807,0.807S24.567,16.093,24.121,16.093z"/><path d="M24.071,30.61h-3.228c-0.445,0-0.807,0.361-0.807,0.808c0,0.447,0.36,0.808,0.807,0.808h3.228 c0.447,0,0.808-0.358,0.808-0.808C24.877,30.971,24.518,30.61,24.071,30.61z"/><path d="M22.465,3.102c-10.573,0-19.146,8.572-19.146,19.146c0,10.562,8.573,19.143,19.146,19.143 c10.577,0,19.144-8.574,19.145-19.143C41.61,11.673,33.039,3.102,22.465,3.102z M28.106,19.319V30.61 c0,1.782-1.446,3.228-3.229,3.228h-4.841c-1.78,0-3.227-1.443-3.227-3.228V14.481c0-1.781,1.444-3.226,3.227-3.226h4.841 c1.781,0,3.229,1.443,3.229,3.226v1.612V19.319z"/></g></svg>