<svg xmlns="http://www.w3.org/2000/svg" xmlns:svg="http://www.w3.org/2000/svg" xmlns:xlink="http://www.w3.org/1999/xlink" id="Layer_1" width="44.637" height="44.637" x="0" y="0" enable-background="new 0 0 44.637 44.637" version="1.1" viewBox="0 0 44.637 44.637" xml:space="preserve"><path id="path3" fill="#222" d="M22.32,0C10.013,0,0,10.013,0,22.32	C0,34.627,10.014,44.637,22.32,44.637c12.307,0,22.316-10.012,22.316-22.317C44.636,10.013,34.626,0,22.32,0z"/><g id="g5" transform="translate(-463.852,-625.994)"><path id="path7" fill="#222" d="M486.172,627.494c-11.499,0-20.818,9.319-20.818,20.817 c0,11.496,9.319,20.817,20.818,20.817c11.496,0,20.816-9.321,20.816-20.817S497.668,627.494,486.172,627.494z M486.317,667.457 c-10.572,0-19.146-8.57-19.146-19.146c0-10.572,8.571-19.145,19.146-19.145s19.145,8.571,19.145,19.145 C505.462,658.887,496.891,667.457,486.317,667.457z"/></g><g id="layer1_4_" transform="translate(-300.30246,-638.98836)"><g id="g13593" transform="translate(-3.7472257,389.40277)"><path id="path11921" fill="none" stroke="#FFF" stroke-linecap="round" stroke-linejoin="round" stroke-miterlimit="1" stroke-width="1.969" d="M333.786,277.294c2.734-0.658,4.482-1.663,4.482-2.784c0-0.133-0.082-0.252-0.129-0.381c0.29,0.072,0.579,0.15,0.899,0.15 c1.78,0,3.229-1.211,3.229-2.7c0-1.49-1.449-2.7-3.229-2.7c-0.219,0-0.404,0.076-0.61,0.11c0.18-0.596,0.3-1.204,0.3-1.85 c0-3.944-3.569-7.15-7.979-7.15l0,0c-3.125,0-5.809,1.621-7.12,3.96c-0.524-0.293-1.104-0.47-1.72-0.47 c-1.867,0-3.42,1.501-3.9,3.541c-0.819-0.324-1.772-0.52-2.79-0.52c-3.053,0-5.53,1.67-5.53,3.729c0,1.859,2.031,3.388,4.67,3.67 c-0.119,0.2-0.21,0.399-0.21,0.61c0,0.915,1.165,1.752,3.079,2.387 M333.747,277.302c0.014-0.004-3.248,0.312-3.236,0.311 M317.228,276.896c0.014,0.004,2.417,0.544,2.741,0.526"/><path id="path11929" fill="#FFF" stroke="#FFF" stroke-linecap="round" stroke-miterlimit="1" stroke-width=".055" d="M327.874,276.656c0.001,1.412-1.143,2.557-2.555,2.558c-1.411,0.002-2.557-1.141-2.558-2.554c0-0.001,0-0.002,0-0.004 c-0.001-1.412,1.143-2.557,2.554-2.559c1.411-0.001,2.557,1.143,2.559,2.554C327.874,276.652,327.874,276.654,327.874,276.656z"/><path id="path11933" fill="#FFF" stroke="#FFF" stroke-linecap="round" stroke-miterlimit="1" stroke-width=".055" d="M323.071,283.271c0.001,1.413-1.143,2.558-2.554,2.56c-1.412,0.001-2.557-1.143-2.558-2.555c0-0.002,0-0.003,0-0.005 c-0.001-1.411,1.143-2.556,2.553-2.558c1.412-0.002,2.558,1.143,2.559,2.555C323.071,283.269,323.071,283.27,323.071,283.271z"/></g></g></svg>