<svg xmlns="http://www.w3.org/2000/svg" xmlns:svg="http://www.w3.org/2000/svg" xmlns:xlink="http://www.w3.org/1999/xlink" id="Layer_1" width="44.637" height="44.637" x="0" y="0" enable-background="new 0 0 44.637 44.637" version="1.1" viewBox="0 0 44.637 44.637" xml:space="preserve"><path id="path3" fill="#222" d="M22.32,0C10.013,0,0,10.013,0,22.32	C0,34.627,10.014,44.637,22.32,44.637c12.308,0,22.316-10.012,22.316-22.317C44.636,10.013,34.626,0,22.32,0z"/><g id="g5" transform="translate(-463.852,-625.994)"><path id="path7" fill="#222" d="M486.172,627.494c-11.499,0-20.817,9.318-20.817,20.816 c0,11.496,9.318,20.817,20.817,20.817c11.496,0,20.816-9.321,20.816-20.817S497.668,627.494,486.172,627.494z M486.317,667.457 c-10.572,0-19.146-8.57-19.146-19.146c0-10.571,8.571-19.145,19.146-19.145s19.145,8.571,19.145,19.145 C505.462,658.887,496.891,667.457,486.317,667.457z"/></g><g id="layer1"><path id="path8364" fill="#FFF" stroke="#FFF" stroke-linecap="round" stroke-miterlimit="1" stroke-width=".75" d="M14.567,11.061c-0.097,0.014-0.188,0.045-0.271,0.097l-7.168,4.096c-0.217,0.125-0.353,0.355-0.353,0.607v7.166 c-0.001,0.239,0.12,0.463,0.32,0.593l6.144,4.097c0.224,0.144,0.508,0.149,0.736,0.017l7.168-4.096 c0.218-0.127,0.353-0.358,0.354-0.609v-7.166c0-0.238-0.121-0.462-0.32-0.592l-6.144-4.096 C14.894,11.082,14.73,11.042,14.567,11.061L14.567,11.061z"/><path id="rect4447" fill="#231F20" stroke="#FFF" stroke-width=".5" d="M7.479,15.861l6.145,4.097 v7.166l-6.145-4.097V15.861z"/><path id="path4450" fill="#231F20" stroke="#FFF" stroke-width=".5" d="M14.647,11.764l6.145,4.096 l-7.168,4.097L7.479,15.86L14.647,11.764z"/><path id="path5421" fill="#231F20" stroke="#FFF" stroke-width=".5" d="M20.791,15.861v7.166 l-7.168,4.097v-7.166L20.791,15.861z"/><path id="path9344" fill="#FFF" stroke="#FFF" stroke-linecap="round" stroke-miterlimit="1" stroke-width=".75" d="M30.563,11.061c-0.096,0.014-0.188,0.045-0.271,0.097l-7.166,4.096c-0.217,0.125-0.351,0.355-0.351,0.607v7.166 c-0.002,0.239,0.12,0.463,0.319,0.593l6.141,4.097c0.225,0.144,0.509,0.149,0.738,0.017l7.166-4.096 c0.218-0.127,0.353-0.358,0.353-0.609v-7.166c0.002-0.238-0.118-0.462-0.318-0.592l-6.146-4.096 C30.891,11.082,30.727,11.042,30.563,11.061L30.563,11.061z"/><path id="path9348" fill="#231F20" stroke="#FFF" stroke-width=".5" d="M23.476,15.861l6.145,4.097 v7.166l-6.145-4.097V15.861z"/><path id="path9350" fill="#231F20" stroke="#FFF" stroke-width=".5" d="M30.643,11.764l6.146,4.096 l-7.168,4.097l-6.145-4.097L30.643,11.764z"/><path id="path9352" fill="#231F20" stroke="#FFF" stroke-width=".5" d="M36.787,15.861v7.166 l-7.168,4.097v-7.166L36.787,15.861z"/><path id="path9358" fill="#FFF" stroke="#FFF" stroke-linecap="round" stroke-miterlimit="1" stroke-width=".75" d="M22.004,19.253c-0.096,0.013-0.188,0.045-0.271,0.096l-7.168,4.094c-0.217,0.125-0.352,0.357-0.352,0.608v7.169 c-0.001,0.238,0.119,0.463,0.32,0.592l6.144,4.097c0.222,0.144,0.507,0.149,0.735,0.016l7.165-4.096 c0.218-0.125,0.352-0.355,0.352-0.607v-7.169c0-0.239-0.119-0.462-0.32-0.593l-6.14-4.094 C22.331,19.275,22.167,19.234,22.004,19.253L22.004,19.253z"/><path id="path9362" fill="#231F20" stroke="#FFF" stroke-width=".5" d="M14.916,24.051l6.144,4.097 v7.168l-6.144-4.096V24.051z"/><path id="path9364" fill="#231F20" stroke="#FFF" stroke-width=".5" d="M22.084,19.956l6.14,4.095 l-7.164,4.097l-6.144-4.097L22.084,19.956z"/><path id="path9366" fill="#231F20" stroke="#FFF" stroke-width=".5" d="M28.224,24.051v7.169 l-7.164,4.096v-7.168L28.224,24.051z"/></g></svg>