<svg xmlns="http://www.w3.org/2000/svg" xmlns:svg="http://www.w3.org/2000/svg" xmlns:xlink="http://www.w3.org/1999/xlink" id="Layer_1" width="44.637" height="44.637" x="0" y="0" enable-background="new 0 0 44.637 44.637" version="1.1" viewBox="0 0 44.637 44.637" xml:space="preserve"><path id="path3" fill="#222" d="M22.32,0C10.013,0,0,10.013,0,22.32	C0,34.627,10.014,44.637,22.32,44.637c12.307,0,22.316-10.012,22.316-22.317C44.636,10.013,34.626,0,22.32,0z"/><g id="g5" transform="translate(-463.852,-625.994)"><path id="path7" fill="#222" d="M486.172,627.494c-11.499,0-20.818,9.319-20.818,20.817 c0,11.496,9.319,20.817,20.818,20.817c11.496,0,20.816-9.321,20.816-20.817S497.668,627.494,486.172,627.494z M486.317,667.457 c-10.572,0-19.146-8.57-19.146-19.146c0-10.572,8.571-19.145,19.146-19.145s19.145,8.571,19.145,19.145 C505.462,658.887,496.891,667.457,486.317,667.457z"/></g><path fill="#FFF" d="M24.935,22.293c3.082-1.039,5.345-3.847,5.531-7.209h-3.015v-4.912c0-0.504-0.408-0.91-0.916-0.91	c-0.509,0-0.916,0.406-0.916,0.91v4.912h-6.877v-4.912c0-0.504-0.409-0.91-0.916-0.91c-0.509,0-0.917,0.406-0.917,0.91v4.912H14.17	c0.188,3.409,2.501,6.249,5.646,7.252l-3.499,9.262l6.093-2.509l-0.261,8.298l5.897-12.802l-4.666,1.223L24.935,22.293z"/></svg>