<svg xmlns="http://www.w3.org/2000/svg" xmlns:svg="http://www.w3.org/2000/svg" id="Layer_1" width="44.637" height="44.637" x="0" y="0" enable-background="new 0 0 44.637 44.637" version="1.1" viewBox="0 0 44.637 44.637" xml:space="preserve"><metadata id="metadata11"/><path id="path3" fill="#222" d="M22.32,0C10.013,0,0,10.013,0,22.32 C0,34.627,10.014,44.637,22.32,44.637c12.309,0,22.316-10.012,22.316-22.317C44.636,10.013,34.626,0,22.32,0z"/><g id="g5" transform="translate(-463.852,-625.994)"><path id="path7" fill="#222" d="M486.172,627.494c-11.499,0-20.816,9.317-20.816,20.815 c0,11.496,9.317,20.817,20.816,20.817c11.496,0,20.816-9.321,20.816-20.817S497.668,627.494,486.172,627.494z M486.317,667.457 c-10.572,0-19.146-8.57-19.146-19.146c0-10.57,8.571-19.145,19.146-19.145s19.145,8.571,19.145,19.145 C505.462,658.887,496.891,667.457,486.317,667.457z"/></g><g id="g5311" transform="matrix(0.1040381,0,0,0.1040381,676.02094,-600.2731)" style="stroke-width:19.22372625;stroke-miterlimit:4;stroke-dasharray:none"><path id="path5187" fill="none" stroke="#FFF" stroke-miterlimit="10" stroke-width="4" d="M-6335.456,5894.682c-66.335-1.183-127.742,102.534,51.128,210.077c0.197-0.366,0.958-0.366,1.155,0 c184.634-110.997,113.259-217.943,44.708-209.607c-26.743,3.238-39.33,18.079-45.291,30.844 c-5.932-12.766-18.548-27.606-45.271-30.844C-6331.166,5894.879-6333.315,5894.729-6335.456,5894.682z" style="stroke-width:19.22372625;stroke-miterlimit:4;stroke-dasharray:none"/></g></svg>