<svg xmlns="http://www.w3.org/2000/svg" xmlns:svg="http://www.w3.org/2000/svg" xmlns:xlink="http://www.w3.org/1999/xlink" id="Layer_1" width="44.637" height="44.637" x="0" y="0" enable-background="new 0 0 44.637 44.637" version="1.1" viewBox="0 0 44.637 44.637" xml:space="preserve"><path id="path3" fill="#222" d="M22.32,0C10.013,0,0,10.013,0,22.32	C0,34.627,10.014,44.637,22.32,44.637c12.307,0,22.316-10.012,22.316-22.317C44.636,10.013,34.626,0,22.32,0z"/><g id="g5" transform="translate(-463.852,-625.994)"><path id="path7" fill="#222" d="M486.172,627.494c-11.499,0-20.818,9.319-20.818,20.817 c0,11.496,9.319,20.817,20.818,20.817c11.496,0,20.816-9.321,20.816-20.817S497.668,627.494,486.172,627.494z M486.317,667.457 c-10.572,0-19.146-8.57-19.146-19.146c0-10.572,8.571-19.145,19.146-19.145s19.145,8.571,19.145,19.145 C505.462,658.887,496.891,667.457,486.317,667.457z"/></g><g id="layer2" transform="translate(-11.494103,-8.0640801)"><path id="path2999" fill="none" stroke="#FFF" stroke-width="1.389" d="M17.303,28.289h32"/><path id="path3001" fill="none" stroke="#FFF" stroke-width="1.878" d="M34.58,28.312v-4.5"/><rect id="rect3771" width="10" height="8.5" x="29.66" y="15.49" fill="none" stroke="#FFF" stroke-width="1.853"/><path id="path3001-1" fill="none" stroke="#FFF" stroke-width="1.878" d="M25.348,32.99v-4.5"/><path id="path3001-1-7" fill="none" stroke="#FFF" stroke-width="1.878" d="M44.053,33.035 v-4.5"/><rect id="rect3771-4" width="10" height="8.5" x="20.067" y="32.816" fill="none" stroke="#FFF" stroke-width="1.853"/><rect id="rect3771-0" width="10" height="8.5" x="38.692" y="32.689" fill="none" stroke="#FFF" stroke-width="1.853"/></g></svg>