<svg xmlns="http://www.w3.org/2000/svg" xmlns:svg="http://www.w3.org/2000/svg" xmlns:xlink="http://www.w3.org/1999/xlink" id="svg2" width="151.609" height="151.617" x="0" y="0" enable-background="new 0 0 151.609 151.617" version="1.1" viewBox="0 0 151.609 151.617" xml:space="preserve"><g><linearGradient id="SVGID_1_" x1="75.733" x2="75.733" y1="151.617" y2=".001" gradientUnits="userSpaceOnUse"><stop offset="0" style="stop-color:#404041"/><stop offset=".35" style="stop-color:#3d3c3d"/><stop offset=".694" style="stop-color:#323031"/><stop offset="1" style="stop-color:#231f20"/></linearGradient><path fill="url(#SVGID_1_)" d="M151.51,75.807c0,41.875-33.936,75.811-75.777,75.811c-41.862,0-75.805-33.936-75.805-75.811 C-0.072,33.941,33.871,0,75.733,0C117.574,0,151.51,33.941,151.51,75.807z"/><linearGradient id="SVGID_2_" x1="75.732" x2="75.732" y1="145.844" y2="5.775" gradientUnits="userSpaceOnUse"><stop offset="0" style="stop-color:#231f20"/><stop offset=".306" style="stop-color:#323031"/><stop offset=".65" style="stop-color:#3d3c3d"/><stop offset="1" style="stop-color:#404041"/></linearGradient><path fill="url(#SVGID_2_)" d="M75.733,145.844c-38.615,0-70.034-31.422-70.034-70.037c0-38.619,31.419-70.032,70.034-70.032 c38.593,0,70.003,31.413,70.003,70.032C145.737,114.422,114.326,145.844,75.733,145.844z"/><linearGradient id="SVGID_3_" x1="5.699" x2="145.765" y1="41.221" y2="41.221" gradientUnits="userSpaceOnUse"><stop offset="0" style="stop-color:#231f20"/><stop offset=".073" style="stop-color:#333e46"/><stop offset=".23" style="stop-color:#537d90"/><stop offset=".359" style="stop-color:#6aabc7"/><stop offset=".456" style="stop-color:#79c7e9"/><stop offset=".508" style="stop-color:#7ed2f6"/><stop offset="1" style="stop-color:#231f20"/></linearGradient><path fill="url(#SVGID_3_)" d="M75.733,7.495c38.3,0,69.492,30.957,69.96,69.171c0.006-0.293,0.043-0.567,0.043-0.859 c0-38.619-31.41-70.032-70.003-70.032c-38.615,0-70.034,31.413-70.034,70.032c0,0.292,0.039,0.566,0.047,0.859 C6.212,38.452,37.411,7.495,75.733,7.495z"/><linearGradient id="SVGID_4_" x1="5.699" x2="145.765" y1="167.215" y2="167.215" gradientTransform="matrix(1 0 0 -1 0 277.6177)" gradientUnits="userSpaceOnUse"><stop offset="0" style="stop-color:#231f20"/><stop offset=".073" style="stop-color:#333e46"/><stop offset=".23" style="stop-color:#537d90"/><stop offset=".359" style="stop-color:#6aabc7"/><stop offset=".456" style="stop-color:#79c7e9"/><stop offset=".508" style="stop-color:#7ed2f6"/><stop offset="1" style="stop-color:#231f20"/></linearGradient><path fill="url(#SVGID_4_)" d="M75.733,144.129c38.3,0,69.492-30.951,69.96-69.173c0.006,0.293,0.043,0.569,0.043,0.862 c0,38.623-31.41,70.031-70.003,70.031c-38.615,0-70.034-31.408-70.034-70.031c0-0.293,0.039-0.569,0.047-0.862 C6.212,113.178,37.411,144.129,75.733,144.129z"/></g><radialGradient id="SVGID_5_" cx="41.142" cy="29.093" r="102.91" gradientUnits="userSpaceOnUse"><stop offset="0" style="stop-color:#0078a4"/><stop offset=".081" style="stop-color:#1489b4"/><stop offset=".226" style="stop-color:#30a1cb"/><stop offset=".381" style="stop-color:#47b4de"/><stop offset=".549" style="stop-color:#57c2eb"/><stop offset=".74" style="stop-color:#60caf3"/><stop offset="1" style="stop-color:#63ccf5"/></radialGradient><path fill="url(#SVGID_5_)" stroke="#231F20" stroke-miterlimit="10" stroke-width="4" d="M62.826,96.737	c1.766,0.539,3.057-1.582,4.05-2.635c2.663-2.826,4.923-5.479,7.517-8.291c0.424-0.455,1.205-1.445,1.669-1.543	c0.496-0.1,1.011,0.107,1.413,0.066c0.139-0.014,0.268-0.039,0.383-0.066c1.85-0.383,3.08-1.73,3.582-3.402	c0.418-1.402,0.08-3.043-0.576-3.984c-0.188-0.271-0.518-0.604-0.768-0.835c-0.361-0.338-0.732-0.475-0.832-0.836	c-0.201-0.751,0-2.013,0-3.021c0-7.204,0.055-14.473-0.062-21.333c-0.418-1.037-1.051-1.79-2.433-1.734	c-1.4,0.055-2.19,1.178-2.246,2.699c-0.02,0.519,0,1.046,0,1.542c0,6.394,0,12.399,0,18.765c0,0.833,0.206,2.477,0,3.148	c-0.085,0.271-0.536,0.552-0.836,0.834c-1.162,1.094-1.918,2.842-1.35,4.883c-1.798,2.113-3.668,4.072-5.719,6.361	c-1.383,1.543-2.857,3.164-4.306,4.756c-0.518,0.566-1.173,1.137-1.285,1.803C60.753,95.528,61.761,96.41,62.826,96.737z M118.883,77.205c0,23.348-18.928,42.273-42.247,42.273c-23.346,0-42.271-18.926-42.271-42.273	c0-23.346,18.926-42.271,42.271-42.271C99.955,34.934,118.883,53.86,118.883,77.205z M111.416,77.604	c0-19.145-15.52-34.664-34.637-34.664c-19.142,0-34.662,15.52-34.662,34.664S57.638,112.27,76.78,112.27	C95.897,112.27,111.416,96.748,111.416,77.604z"/><radialGradient id="SVGID_6_" cx="39.892" cy="26.593" r="102.91" gradientUnits="userSpaceOnUse"><stop offset="0" style="stop-color:#0078a4"/><stop offset=".081" style="stop-color:#1489b4"/><stop offset=".226" style="stop-color:#30a1cb"/><stop offset=".381" style="stop-color:#47b4de"/><stop offset=".549" style="stop-color:#57c2eb"/><stop offset=".74" style="stop-color:#60caf3"/><stop offset="1" style="stop-color:#63ccf5"/></radialGradient><path fill="url(#SVGID_6_)" stroke="#231F20" stroke-miterlimit="10" stroke-width="4" d="M61.576,94.237	c1.766,0.539,3.057-1.582,4.05-2.635c2.663-2.826,4.923-5.479,7.517-8.291c0.424-0.455,1.205-1.445,1.671-1.543	c0.496-0.1,1.011,0.107,1.412,0.066c0.139-0.014,0.269-0.039,0.386-0.066c1.852-0.383,3.082-1.73,3.584-3.402	c0.42-1.402,0.08-3.042-0.576-3.985c-0.188-0.271-0.518-0.602-0.768-0.835c-0.361-0.339-0.732-0.475-0.83-0.836	c-0.201-0.751,0-2.013,0-3.021c0-7.204,0.053-14.473-0.064-21.333c-0.418-1.037-1.053-1.79-2.437-1.734	c-1.402,0.055-2.192,1.178-2.248,2.699c-0.02,0.519,0,1.046,0,1.542c0,6.394,0,12.399,0,18.765c0,0.833,0.206,2.477,0,3.149	c-0.085,0.27-0.536,0.552-0.836,0.833c-1.162,1.096-1.918,2.843-1.35,4.884c-1.798,2.113-3.668,4.072-5.719,6.361	c-1.383,1.543-2.857,3.164-4.306,4.756c-0.518,0.566-1.173,1.137-1.285,1.803C59.503,93.028,60.511,93.91,61.576,94.237z M117.633,74.706c0,23.347-18.928,42.272-42.245,42.272c-23.348,0-42.273-18.926-42.273-42.272S52.04,32.434,75.388,32.434	C98.705,32.434,117.633,51.36,117.633,74.706z M110.166,75.105c0-19.146-15.52-34.665-34.635-34.665	c-19.144,0-34.664,15.52-34.664,34.665c0,19.144,15.521,34.665,34.664,34.665C94.647,109.77,110.166,94.248,110.166,75.105z"/><radialGradient id="SVGID_7_" cx="39.892" cy="26.593" r="102.91" gradientUnits="userSpaceOnUse"><stop offset="0" style="stop-color:#0078a4"/><stop offset=".081" style="stop-color:#1489b4"/><stop offset=".226" style="stop-color:#30a1cb"/><stop offset=".381" style="stop-color:#47b4de"/><stop offset=".549" style="stop-color:#57c2eb"/><stop offset=".74" style="stop-color:#60caf3"/><stop offset="1" style="stop-color:#63ccf5"/></radialGradient><path fill="url(#SVGID_7_)" d="M61.576,94.237c1.766,0.539,3.057-1.582,4.05-2.635c2.663-2.826,4.923-5.479,7.517-8.291	c0.424-0.455,1.205-1.445,1.671-1.543c0.496-0.1,1.011,0.107,1.412,0.066c0.139-0.014,0.269-0.039,0.386-0.066	c1.852-0.383,3.082-1.73,3.584-3.402c0.42-1.402,0.08-3.042-0.576-3.985c-0.188-0.271-0.518-0.602-0.768-0.835	c-0.361-0.339-0.732-0.475-0.83-0.836c-0.201-0.751,0-2.013,0-3.021c0-7.204,0.053-14.473-0.064-21.333	c-0.418-1.037-1.053-1.79-2.437-1.734c-1.402,0.055-2.192,1.178-2.248,2.699c-0.02,0.519,0,1.046,0,1.542c0,6.394,0,12.399,0,18.765	c0,0.833,0.206,2.477,0,3.149c-0.085,0.27-0.536,0.552-0.836,0.833c-1.162,1.096-1.918,2.843-1.35,4.884	c-1.798,2.113-3.668,4.072-5.719,6.361c-1.383,1.543-2.857,3.164-4.306,4.756c-0.518,0.566-1.173,1.137-1.285,1.803	C59.503,93.028,60.511,93.91,61.576,94.237z M117.633,74.706c0,23.347-18.928,42.272-42.245,42.272	c-23.348,0-42.273-18.926-42.273-42.272S52.04,32.434,75.388,32.434C98.705,32.434,117.633,51.36,117.633,74.706z M110.166,75.105	c0-19.146-15.52-34.665-34.635-34.665c-19.144,0-34.664,15.52-34.664,34.665c0,19.144,15.521,34.665,34.664,34.665	C94.647,109.77,110.166,94.248,110.166,75.105z"/><linearGradient id="SVGID_8_" x1="84.42" x2="111.617" y1="77.293" y2="115.149" gradientUnits="userSpaceOnUse"><stop offset="0" style="stop-color:#f47e20"/><stop offset=".005" style="stop-color:#f47e20"/><stop offset=".244" style="stop-color:#f5881e"/><stop offset=".644" style="stop-color:#f9a217"/><stop offset="1" style="stop-color:#fdbe10"/></linearGradient><path fill="url(#SVGID_8_)" stroke="#231F20" stroke-miterlimit="10" stroke-width="6" d="M119.869,106.319	c-0.283,0.555-0.807,0.982-1.525,1.098c-0.361,0.059-0.777,0.055-1.26,0.055c-9.604,0-19.25,0-28.943,0	c-0.898,0-1.672,0.008-2.248-0.375c-0.457-0.303-0.926-0.957-0.91-1.713c0.012-0.691,0.471-1.395,0.803-1.982	c0.293-0.52,0.582-1.027,0.883-1.553c0.125-0.217,0.24-0.441,0.375-0.67c0.451-0.766,0.939-1.641,1.393-2.436	c0.088-0.154,0.15-0.295,0.24-0.455c0.176-0.309,0.363-0.656,0.562-0.992c1.197-2.008,2.424-4.279,3.588-6.291	c1.793-3.098,3.518-6.191,5.275-9.318c0.16-0.283,0.332-0.568,0.508-0.883c0.555-0.982,1.191-2.08,1.768-3.107	c0.434-0.77,0.84-1.559,2.01-1.66c0.66-0.055,1.229,0.226,1.578,0.562c0.4,0.389,0.703,1.029,1.045,1.609	c0.287,0.484,0.549,0.961,0.83,1.471c0.762,1.381,1.588,2.805,2.383,4.203c1.359,2.395,2.787,4.947,4.176,7.336	c0.119,0.203,0.217,0.418,0.35,0.645c0.889,1.521,1.896,3.32,2.73,4.793c1.316,2.324,2.547,4.492,3.803,6.719	c0.332,0.594,0.736,1.066,0.803,1.848C120.119,105.643,120.026,106.014,119.869,106.319z"/><linearGradient id="SVGID_9_" x1="84.42" x2="111.617" y1="77.293" y2="115.149" gradientUnits="userSpaceOnUse"><stop offset="0" style="stop-color:#5cad46"/><stop offset=".005" style="stop-color:#5ab947"/><stop offset=".169" style="stop-color:#63bc45"/><stop offset=".44" style="stop-color:#7cc33f"/><stop offset=".781" style="stop-color:#a4ce35"/><stop offset="1" style="stop-color:#c2d72e"/></linearGradient><path fill="url(#SVGID_9_)" d="M119.869,106.319c-0.283,0.555-0.807,0.982-1.525,1.098c-0.361,0.059-0.777,0.055-1.26,0.055	c-9.604,0-19.25,0-28.943,0c-0.898,0-1.672,0.008-2.248-0.375c-0.457-0.303-0.926-0.957-0.91-1.713	c0.012-0.691,0.471-1.395,0.803-1.982c0.293-0.52,0.582-1.027,0.883-1.553c0.125-0.217,0.24-0.441,0.375-0.67	c0.451-0.766,0.939-1.641,1.393-2.436c0.088-0.154,0.15-0.295,0.24-0.455c0.176-0.309,0.363-0.656,0.562-0.992	c1.197-2.008,2.424-4.279,3.588-6.291c1.793-3.098,3.518-6.191,5.275-9.318c0.16-0.283,0.332-0.568,0.508-0.883	c0.555-0.982,1.191-2.08,1.768-3.107c0.434-0.77,0.84-1.559,2.01-1.66c0.66-0.055,1.229,0.226,1.578,0.562	c0.4,0.389,0.703,1.029,1.045,1.609c0.287,0.484,0.549,0.961,0.83,1.471c0.762,1.381,1.588,2.805,2.383,4.203	c1.359,2.395,2.787,4.947,4.176,7.336c0.119,0.203,0.217,0.418,0.35,0.645c0.889,1.521,1.896,3.32,2.73,4.793	c1.316,2.324,2.547,4.492,3.803,6.719c0.332,0.594,0.736,1.066,0.803,1.848C120.119,105.643,120.026,106.014,119.869,106.319z"/><path fill="#231F20" d="M104.18,86.104c0.137,0.875,0.08,1.838,0.08,2.838c0,2.357,0,4.799,0,7.256c0,0.889-0.031,1.365-0.455,1.822	c-0.373,0.402-1.055,0.729-1.848,0.482c-0.525-0.268-0.971-0.65-1.098-1.285c-0.078-0.396-0.027-0.891-0.027-1.367	c0-2.689,0-5.459,0-8.219c0-0.633-0.037-1.195,0.107-1.607c0.277-0.463,0.619-0.861,1.232-0.99	C103.262,84.862,103.844,85.43,104.18,86.104z"/><path fill="#231F20" d="M102.358,99.946c-0.779,0.07-1.322,0.623-1.418,1.34c-0.057,0.42,0.07,0.748,0.188,0.965	c0.197,0.365,0.643,0.75,0.99,0.83c0.469,0.107,0.98-0.043,1.232-0.188c0.352-0.203,0.697-0.629,0.775-1.072	c0.066-0.361-0.023-0.777-0.133-0.99C103.682,100.229,103.207,99.871,102.358,99.946z"/></svg>