<svg xmlns="http://www.w3.org/2000/svg" xmlns:svg="http://www.w3.org/2000/svg" xmlns:xlink="http://www.w3.org/1999/xlink" id="Layer_1" width="44.637" height="44.637" x="0" y="0" enable-background="new 0 0 44.637 44.637" version="1.1" viewBox="0 0 44.637 44.637" xml:space="preserve"><path fill="#FFF" stroke="#333" stroke-miterlimit="10" stroke-width="14" d="M22.23,33.906	c-6.323,0-11.446-5.127-11.446-11.45c-0.003-6.323,5.122-11.45,11.446-11.45c6.323,0,11.449,5.127,11.449,11.446	C33.679,28.78,28.553,33.906,22.23,33.906z"/><path fill="#FFF" d="M22.23,33.906c-6.323,0-11.446-5.127-11.446-11.45c-0.003-6.323,5.122-11.45,11.446-11.45	c6.323,0,11.449,5.127,11.449,11.446C33.679,28.78,28.553,33.906,22.23,33.906z"/><g><path fill="#EA3939" d="M22.32,12.867c-5.287,0-9.573,4.285-9.573,9.571c0,5.287,4.286,9.573,9.573,9.573 c5.287,0,9.572-4.285,9.572-9.572C31.893,17.154,27.608,12.867,22.32,12.867z"/></g><g><path fill="#FFF" d="M16.683,18.66l1.94-1.94l3.741,3.742l3.704-3.703l1.861,1.861l-3.703,3.703l3.742,3.742l-1.941,1.94 l-3.741-3.741l-3.702,3.701l-1.861-1.861l3.702-3.702L16.683,18.66z"/></g></svg>