<svg xmlns="http://www.w3.org/2000/svg" xmlns:xlink="http://www.w3.org/1999/xlink" id="Layer_1" width="98.827" height="33.111" x="0" y="0" enable-background="new 0 0 98.827 33.111" version="1.1" viewBox="0 0 98.827 33.111" xml:space="preserve"><g><linearGradient id="SVGID_1_" x1="49.543" x2="49.543" y1="30.412" y2="2.251" gradientUnits="userSpaceOnUse"><stop offset="0" style="stop-color:#414042"/><stop offset=".397" style="stop-color:#3a3a3c"/><stop offset=".789" style="stop-color:#212122"/><stop offset="1" style="stop-color:#000"/></linearGradient><path fill="url(#SVGID_1_)" d="M16.233,30.412c-7.764,0-14.08-6.316-14.08-14.082c0-7.764,6.316-14.08,14.08-14.08H82.85 c7.766,0,14.082,6.316,14.082,14.08c0,7.766-6.316,14.082-14.082,14.082H16.233z"/><linearGradient id="SVGID_2_" x1="49.543" x2="49.543" y1="28.162" y2="4.5" gradientUnits="userSpaceOnUse"><stop offset="0" style="stop-color:#000"/><stop offset=".211" style="stop-color:#212122"/><stop offset=".603" style="stop-color:#3a3a3c"/><stop offset="1" style="stop-color:#414042"/></linearGradient><path fill="url(#SVGID_2_)" d="M94.682,16.33c0,6.535-5.297,11.832-11.832,11.832H16.233c-6.533,0-11.83-5.297-11.83-11.832l0,0 C4.403,9.797,9.7,4.5,16.233,4.5H82.85C89.385,4.5,94.682,9.797,94.682,16.33L94.682,16.33z"/><linearGradient id="SVGID_3_" x1="4.403" x2="94.682" y1="10.527" y2="10.527" gradientUnits="userSpaceOnUse"><stop offset="0" style="stop-color:#000"/><stop offset=".13" style="stop-color:#5d6a72"/><stop offset=".266" style="stop-color:#7899a9"/><stop offset=".379" style="stop-color:#80b9d3"/><stop offset=".462" style="stop-color:#7fcbeb"/><stop offset=".508" style="stop-color:#7ed3f7"/><stop offset="1" style="stop-color:#000"/></linearGradient><path fill="url(#SVGID_3_)" d="M16.233,4.949H82.85c6.459,0,11.701,5.176,11.82,11.605c0-0.074,0.012-0.148,0.012-0.225 c0-6.533-5.297-11.83-11.832-11.83H16.233C9.7,4.5,4.403,9.797,4.403,16.33c0,0.076,0.009,0.15,0.012,0.225 C4.535,10.125,9.776,4.949,16.233,4.949z"/><linearGradient id="SVGID_4_" x1="4.403" x2="94.682" y1="267.902" y2="267.902" gradientTransform="matrix(1 0 0 -1 0 290.4844)" gradientUnits="userSpaceOnUse"><stop offset="0" style="stop-color:#000"/><stop offset=".13" style="stop-color:#5d6a72"/><stop offset=".266" style="stop-color:#7899a9"/><stop offset=".379" style="stop-color:#80b9d3"/><stop offset=".462" style="stop-color:#7fcbeb"/><stop offset=".508" style="stop-color:#7ed3f7"/><stop offset="1" style="stop-color:#000"/></linearGradient><path fill="url(#SVGID_4_)" d="M16.233,28.16H82.85c6.459,0,11.701-5.176,11.82-11.605c0,0.074,0.012,0.148,0.012,0.225 c0,6.533-5.297,11.83-11.832,11.83H16.233c-6.533,0-11.83-5.297-11.83-11.83c0-0.076,0.009-0.15,0.012-0.225 C4.535,22.984,9.776,28.16,16.233,28.16z"/></g><text fill="#6FCDF4" font-family="'Roadgeek2005SeriesD'" font-size="14" transform="matrix(1 0 0 1 27.4575 20.4268)">CLOSE</text></svg>