<svg xmlns="http://www.w3.org/2000/svg" xmlns:svg="http://www.w3.org/2000/svg" xmlns:xlink="http://www.w3.org/1999/xlink" id="Layer_1" width="164.137" height="28.162" x="0" y="0" enable-background="new 0 0 164.137 28.162" version="1.1" viewBox="0 0 164.137 28.162" xml:space="preserve"><g id="g3" transform="translate(-228.965,-586.67701)"><linearGradient id="path14_1_" x1="1949.73" x2="1949.73" y1="-1902.712" y2="-1874.551" gradientTransform="matrix(1 0 0 -1 -1638.7539 -1287.8735)" gradientUnits="userSpaceOnUse"><stop offset="0" style="stop-color:#414042"/><stop offset=".397" style="stop-color:#3a3a3c"/><stop offset=".789" style="stop-color:#212122"/><stop offset="1" style="stop-color:#000"/></linearGradient><path id="path14" fill="url(#path14_1_)" d="M242.945,614.839c-7.765,0-14.08-6.315-14.08-14.082 c0-7.764,6.315-14.08,14.08-14.08h136.06c7.766,0,14.082,6.316,14.082,14.08c0,7.767-6.316,14.082-14.082,14.082H242.945 L242.945,614.839z"/><linearGradient id="path25_1_" x1="1949.729" x2="1949.729" y1="-1900.462" y2="-1876.801" gradientTransform="matrix(1 0 0 -1 -1638.7539 -1287.8735)" gradientUnits="userSpaceOnUse"><stop offset="0" style="stop-color:#000"/><stop offset=".211" style="stop-color:#212122"/><stop offset=".603" style="stop-color:#3a3a3c"/><stop offset="1" style="stop-color:#414042"/></linearGradient><path id="path25" fill="url(#path25_1_)" d="M390.835,600.757 c0,6.535-5.297,11.832-11.832,11.832h-136.06c-6.533,0-11.83-5.297-11.83-11.832l0,0c0-6.533,5.297-11.83,11.83-11.83h136.06 C385.539,588.927,390.835,594.224,390.835,600.757L390.835,600.757z"/><linearGradient id="path42_1_" x1="1869.869" x2="2029.59" y1="-1882.826" y2="-1882.826" gradientTransform="matrix(1 0 0 -1 -1638.7539 -1287.8735)" gradientUnits="userSpaceOnUse"><stop offset="0" style="stop-color:#000"/><stop offset=".13" style="stop-color:#5d6a72"/><stop offset=".266" style="stop-color:#7899a9"/><stop offset=".379" style="stop-color:#80b9d3"/><stop offset=".462" style="stop-color:#7fcbeb"/><stop offset=".508" style="stop-color:#7ed3f7"/><stop offset="1" style="stop-color:#000"/></linearGradient><path id="path42" fill="url(#path42_1_)" d="M242.945,589.376h136.06 c6.459,0,11.701,5.176,11.82,11.604c0-0.074,0.012-0.148,0.012-0.225c0-6.533-5.297-11.83-11.832-11.83h-136.06 c-6.533,0-11.83,5.297-11.83,11.83c0,0.076,0.009,0.15,0.018,0.225C231.246,594.552,236.488,589.376,242.945,589.376 L242.945,589.376z"/><linearGradient id="path59_1_" x1="1869.869" x2="2029.59" y1="2665.461" y2="2665.461" gradientTransform="matrix(1 0 0 1 -1638.7539 -2058.4512)" gradientUnits="userSpaceOnUse"><stop offset="0" style="stop-color:#000"/><stop offset=".13" style="stop-color:#5d6a72"/><stop offset=".266" style="stop-color:#7899a9"/><stop offset=".379" style="stop-color:#80b9d3"/><stop offset=".462" style="stop-color:#7fcbeb"/><stop offset=".508" style="stop-color:#7ed3f7"/><stop offset="1" style="stop-color:#000"/></linearGradient><path id="path59" fill="url(#path59_1_)" d="M242.945,612.587h136.06 c6.459,0,11.701-5.177,11.82-11.605c0,0.074,0.012,0.148,0.012,0.225c0,6.534-5.297,11.831-11.832,11.831h-136.06 c-6.533,0-11.83-5.297-11.83-11.831c0-0.076,0.009-0.15,0.018-0.225C231.246,607.41,236.488,612.587,242.945,612.587 L242.945,612.587z"/></g><g><path fill="#6FCCF4" d="M19.878,18.499c-1.387,0-2.269-0.532-2.872-1.681c-0.42-0.826-0.687-2.018-0.687-3.194 c0-1.484,0.393-2.969,1.051-3.796c0.56-0.687,1.345-1.05,2.409-1.05c1.415,0,2.297,0.602,2.928,1.919l-1.387,0.588 c-0.519-0.798-0.827-0.994-1.541-0.994c-0.756,0-1.261,0.336-1.583,1.162c-0.238,0.561-0.364,1.373-0.364,2.171 c0,1.023,0.224,2.046,0.588,2.634c0.336,0.49,0.757,0.729,1.415,0.729c0.63,0,1.093-0.336,1.457-1.093l1.415,0.532 C22.147,17.799,21.222,18.499,19.878,18.499z"/></g><g><path fill="#6FCCF4" d="M28.964,18.331l-1.513-4.09h-1.779v4.09h-1.485V8.946h3.096c0.729,0,1.219,0.069,1.681,0.294 c0.827,0.393,1.415,1.387,1.415,2.339c0,0.995-0.588,1.976-1.457,2.367l1.653,4.385H28.964z M28.306,10.599 c-0.252-0.14-0.364-0.168-0.854-0.168h-1.779v2.297h1.779c0.462,0,0.616-0.027,0.854-0.153c0.364-0.21,0.588-0.603,0.588-0.995 C28.894,11.188,28.67,10.795,28.306,10.599z"/><path fill="#6FCCF4" d="M32.154,18.331V8.946h5.533v1.484h-4.048v2.297h2.731v1.514h-2.731v2.577h4.342v1.513H32.154z"/></g><g><path fill="#6FCCF4" d="M45.092,18.331l-0.925-2.634H41.24l-0.925,2.634h-1.583l3.236-9.385h1.471l3.236,9.385H45.092z M42.724,11.552l-0.966,2.633h1.877L42.724,11.552z"/></g><g><path fill="#6FCCF4" d="M50.046,10.263v8.068h-1.484v-8.068h-2.144V8.946h5.799v1.316H50.046z"/></g><g><path fill="#6FCCF4" d="M53.601,18.331V8.946h5.533v1.484h-4.048v2.297h2.731v1.514h-2.731v2.577h4.342v1.513H53.601z"/></g><g><path fill="#6FCCF4" d="M66.077,7.741l-3.67,11.795h-1.219l3.67-11.795H66.077z"/><path fill="#6FCCF4" d="M72.924,18.331l-0.925-2.634h-2.927l-0.925,2.634h-1.583L69.8,8.946h1.471l3.236,9.385H72.924z M70.556,11.552l-0.966,2.633h1.877L70.556,11.552z"/></g><g><path fill="#6FCCF4" d="M80.651,17.799c-0.35,0.336-0.854,0.504-1.345,0.532c-0.098,0-0.294,0-0.532,0h-2.857V8.946h3.026 c0.952,0,1.316,0.098,1.821,0.49c0.98,0.854,1.541,2.339,1.541,4.188C82.304,15.502,81.716,16.986,80.651,17.799z M80.035,10.823 c-0.238-0.225-0.56-0.393-0.953-0.393h-1.681v6.388h1.485c0.49,0,0.784-0.099,1.05-0.364c0.561-0.561,0.854-1.583,0.854-2.83 C80.791,12.364,80.497,11.313,80.035,10.823z"/></g><g><path fill="#6FCCF4" d="M88.798,17.799c-0.351,0.336-0.854,0.504-1.345,0.532c-0.098,0-0.294,0-0.532,0h-2.857V8.946h3.026 c0.951,0,1.316,0.098,1.82,0.49c0.98,0.854,1.541,2.339,1.541,4.188C90.451,15.502,89.864,16.986,88.798,17.799z M88.182,10.823 c-0.238-0.225-0.561-0.393-0.953-0.393h-1.68v6.388h1.484c0.49,0,0.784-0.099,1.051-0.364c0.561-0.561,0.854-1.583,0.854-2.83 C88.938,12.364,88.645,11.313,88.182,10.823z"/></g><g><path fill="#6FCCF4" d="M101.119,18.331l-0.924-2.634h-2.928l-0.925,2.634H94.76l3.236-9.385h1.471l3.235,9.385H101.119z M98.752,11.552l-0.967,2.633h1.877L98.752,11.552z"/></g><g><path fill="#6FCCF4" d="M106.914,18.499c-1.387,0-2.27-0.532-2.871-1.681c-0.421-0.826-0.688-2.018-0.688-3.194 c0-1.484,0.393-2.969,1.051-3.796c0.561-0.687,1.346-1.05,2.41-1.05c1.414,0,2.297,0.602,2.928,1.919l-1.387,0.588 c-0.52-0.798-0.827-0.994-1.541-0.994c-0.757,0-1.262,0.336-1.583,1.162c-0.238,0.561-0.364,1.373-0.364,2.171 c0,1.023,0.225,2.046,0.588,2.634c0.336,0.49,0.757,0.729,1.415,0.729c0.63,0,1.093-0.336,1.456-1.093l1.416,0.532 C109.184,17.799,108.259,18.499,106.914,18.499z"/><path fill="#6FCCF4" d="M114.153,18.499c-1.387,0-2.27-0.532-2.872-1.681c-0.421-0.826-0.687-2.018-0.687-3.194 c0-1.484,0.393-2.969,1.051-3.796c0.561-0.687,1.345-1.05,2.409-1.05c1.415,0,2.298,0.602,2.928,1.919l-1.387,0.588 c-0.519-0.798-0.827-0.994-1.541-0.994c-0.757,0-1.261,0.336-1.583,1.162c-0.238,0.561-0.363,1.373-0.363,2.171 c0,1.023,0.224,2.046,0.588,2.634c0.336,0.49,0.756,0.729,1.414,0.729c0.631,0,1.094-0.336,1.457-1.093l1.415,0.532 C116.421,17.799,115.496,18.499,114.153,18.499z"/></g><g><path fill="#6FCCF4" d="M123.711,17.448c-0.533,0.715-1.289,1.051-2.27,1.051c-1.316,0-2.144-0.532-2.703-1.681 c-0.393-0.799-0.659-2.045-0.659-3.166c0-1.541,0.393-2.928,1.022-3.824c0.561-0.714,1.316-1.05,2.396-1.05 c1.19,0,2.017,0.532,2.605,1.681c0.392,0.826,0.63,2.017,0.63,3.193C124.733,15.138,124.369,16.622,123.711,17.448z M122.688,11.02 c-0.294-0.49-0.658-0.687-1.219-0.729c-0.027,0-0.056,0-0.084,0c-0.672,0-1.12,0.364-1.428,1.162 c-0.238,0.561-0.365,1.415-0.365,2.199c0,0.995,0.196,2.018,0.561,2.605c0.295,0.49,0.687,0.729,1.289,0.729 c0.686,0,1.12-0.364,1.442-1.19c0.196-0.49,0.364-1.415,0.364-2.144C123.248,12.602,123.052,11.649,122.688,11.02z"/><path fill="#6FCCF4" d="M132.254,16.916c-0.49,0.925-1.61,1.583-2.759,1.583c-1.149,0-2.27-0.658-2.773-1.583 c-0.253-0.56-0.421-1.219-0.421-1.946V8.946h1.485v6.023c0,1.218,0.687,2.017,1.709,2.017s1.709-0.799,1.709-2.017V8.946h1.485 v6.023C132.69,15.697,132.521,16.356,132.254,16.916z"/></g><g><path fill="#6FCCF4" d="M139.377,18.331l-3.586-6.359v6.359h-1.484V8.946h1.484l3.418,5.995V8.946h1.484v9.385H139.377z"/><path fill="#6FCCF4" d="M145.733,10.263v8.068h-1.484v-8.068h-2.145V8.946h5.8v1.316H145.733z"/></g></svg>