<svg xmlns="http://www.w3.org/2000/svg" xmlns:svg="http://www.w3.org/2000/svg" id="svg3287" width="330.501" height="35.202" version="1.1" xml:space="preserve"><metadata id="metadata3293"/><defs id="defs3291"><linearGradient id="linearGradient3309" x1="0" x2="1" y1="0" y2="0" gradientTransform="matrix(0,28.161621,28.161621,0,612.65283,598.49805)" gradientUnits="userSpaceOnUse" spreadMethod="pad"><stop style="stop-opacity:1;stop-color:#4d4c4e" id="stop3311" offset="0"/><stop style="stop-opacity:1;stop-color:#373535" id="stop3313" offset="1"/></linearGradient><linearGradient id="linearGradient3329" x1="0" x2="1" y1="0" y2="0" gradientTransform="matrix(0,23.661621,23.661621,0,612.65283,600.74805)" gradientUnits="userSpaceOnUse" spreadMethod="pad"><stop style="stop-opacity:1;stop-color:#373535" id="stop3331" offset="0"/><stop style="stop-opacity:1;stop-color:#4d4c4e" id="stop3333" offset="1"/></linearGradient><linearGradient id="linearGradient3349" x1="0" x2="1" y1="0" y2="0" gradientTransform="matrix(259.90039,0,0,-259.90039,482.70215,618.38281)" gradientUnits="userSpaceOnUse" spreadMethod="pad"><stop style="stop-opacity:1;stop-color:#373535" id="stop3351" offset="0"/><stop style="stop-opacity:1;stop-color:#82d4f7" id="stop3353" offset=".508"/><stop style="stop-opacity:1;stop-color:#373535" id="stop3355" offset="1"/></linearGradient><linearGradient id="linearGradient3371" x1="0" x2="1" y1="0" y2="0" gradientTransform="matrix(259.90039,0,0,259.90039,482.70215,606.32812)" gradientUnits="userSpaceOnUse" spreadMethod="pad"><stop style="stop-opacity:1;stop-color:#373535" id="stop3373" offset="0"/><stop style="stop-opacity:1;stop-color:#82d4f7" id="stop3375" offset=".508"/><stop style="stop-opacity:1;stop-color:#373535" id="stop3377" offset="1"/></linearGradient></defs><g id="g3295" transform="matrix(1.25,0,0,-1.25,-600.565,783.325)"><g id="g3297"><g id="g3299"><g id="g3305"><g id="g3307"><path style="fill:url(#linearGradient3309);stroke:none" id="path3315" d="m 494.532,626.66 c -7.763,0 -14.08,-6.316 -14.08,-14.079 l 0,0 c 0,-7.767 6.317,-14.083 14.08,-14.083 l 0,0 236.237,0 c 7.767,0 14.084,6.316 14.084,14.083 l 0,0 c 0,7.763 -6.317,14.079 -14.084,14.079 l 0,0 -236.237,0 z"/></g></g></g></g><g id="g3317"><g id="g3319"><g id="g3325"><g id="g3327"><path style="fill:url(#linearGradient3329);stroke:none" id="path3335" d="m 494.532,624.41 c -6.533,0 -11.83,-5.296 -11.83,-11.829 l 0,0 c 0,-6.536 5.297,-11.833 11.83,-11.833 l 0,0 236.237,0 c 6.536,0 11.834,5.297 11.834,11.833 l 0,0 c 0,6.533 -5.298,11.829 -11.834,11.829 l 0,0 -236.237,0 z"/></g></g></g></g><g id="g3337"><g id="g3339"><g id="g3345"><g id="g3347"><path style="fill:url(#linearGradient3349);stroke:none" id="path3357" d="m 494.532,624.41 c -6.533,0 -11.83,-5.296 -11.83,-11.829 l 0,0 c 0,-0.077 0.009,-0.152 0.012,-0.226 l 0,0 c 0.12,6.43 5.361,11.606 11.818,11.606 l 0,0 236.237,0 c 6.461,0 11.701,-5.176 11.822,-11.606 l 0,0 c 0,0.074 0.012,0.149 0.012,0.226 l 0,0 c 0,6.533 -5.298,11.829 -11.834,11.829 l 0,0 -236.237,0 z"/></g></g></g></g><g id="g3359"><g id="g3361"><g id="g3367"><g id="g3369"><path style="fill:url(#linearGradient3371);stroke:none" id="path3379" d="m 730.769,600.75 -236.237,0 c -6.457,0 -11.698,5.176 -11.818,11.605 l 0,0 c -0.003,-0.074 -0.012,-0.148 -0.012,-0.225 l 0,0 c 0,-6.533 5.297,-11.829 11.83,-11.829 l 0,0 236.237,0 c 6.536,0 11.834,5.296 11.834,11.829 l 0,0 c 0,0.077 -0.012,0.151 -0.012,0.225 l 0,0 C 742.47,605.926 737.23,600.75 730.769,600.75"/></g></g></g></g></g></svg>