<svg xmlns="http://www.w3.org/2000/svg" xmlns:svg="http://www.w3.org/2000/svg" xmlns:xlink="http://www.w3.org/1999/xlink" id="svg2" width="346.684" height="51.25" x="0" y="0" enable-background="new 0 0 346.684 51.25" version="1.1" viewBox="0 0 346.684 51.25" xml:space="preserve"><g id="g3533" transform="matrix(1.25,0,0,-1.25,-745.2405,904.18275)"><g id="g3535" transform="translate(596.1924,694.6802)"><path id="path3537" fill="none" stroke="#2C2C2D" stroke-miterlimit="10" d="M42.394-8.384 v32.816"/></g><g id="g3539" transform="translate(596.1924,693.6802)"><path id="path3541" fill="none" stroke="#3F403F" stroke-miterlimit="10" d="M43.394-7.384 v32.816"/></g><g id="g3543" transform="translate(596.1924,722.8462)"><path id="path3545" fill="none" stroke="#2C2C2D" stroke-miterlimit="10" d="M14.228-36.55 v32.816"/></g><g id="g3547" transform="translate(596.1924,721.8462)"><path id="path3549" fill="none" stroke="#3F403F" stroke-miterlimit="10" d="M15.228-35.55 v32.816"/></g><g id="g3551" transform="translate(596.1924,639.5122)"><path id="path3553" fill="none" stroke="#2C2C2D" stroke-miterlimit="10" d="M97.562,46.784 V79.6"/></g><g id="g3555" transform="translate(596.1924,638.5122)"><path id="path3557" fill="none" stroke="#3F403F" stroke-miterlimit="10" d="M98.562,47.784 V80.6"/></g><g id="g3559" transform="translate(596.1924,667.6802)"><path id="path3561" fill="none" stroke="#2C2C2D" stroke-miterlimit="10" d="M69.394,18.616 v32.816"/></g><g id="g3563" transform="translate(596.1924,666.6802)"><path id="path3565" fill="none" stroke="#3F403F" stroke-miterlimit="10" d="M70.394,19.616 v32.816"/></g><g id="g3567" transform="translate(596.1924,585.3223)"><path id="path3569" fill="none" stroke="#2C2C2D" stroke-miterlimit="10" d="M151.752,100.974 v32.816"/></g><g id="g3571" transform="translate(596.1924,584.3223)"><path id="path3573" fill="none" stroke="#3F403F" stroke-miterlimit="10" d="M152.752,101.974 v32.816"/></g><g id="g3575" transform="translate(596.1924,613.4888)"><path id="path3577" fill="none" stroke="#2C2C2D" stroke-miterlimit="10" d="M123.585,72.807 v32.816"/></g><g id="g3579" transform="translate(596.1924,612.4888)"><path id="path3581" fill="none" stroke="#3F403F" stroke-miterlimit="10" d="M124.585,73.807 v32.816"/></g><g id="g3583" transform="translate(596.1924,530.1543)"><path id="path3585" fill="none" stroke="#2C2C2D" stroke-miterlimit="10" d="M206.944,156.142 v32.816"/></g><g id="g3587" transform="translate(596.1924,529.1543)"><path id="path3589" fill="none" stroke="#3F403F" stroke-miterlimit="10" d="M207.945,157.142 v32.816"/></g><g id="g3591" transform="translate(596.1924,502.7676)"><path id="path3593" fill="none" stroke="#2C2C2D" stroke-miterlimit="10" d="M234.332,183.529 v32.816"/></g><g id="g3599" transform="translate(596.1924,558.3223)"><path id="path3601" fill="none" stroke="#2C2C2D" stroke-miterlimit="10" d="M178.752,127.974 v32.816"/></g><g id="g3603" transform="translate(596.1924,557.3223)"><path id="path3605" fill="none" stroke="#3F403F" stroke-miterlimit="10" d="M179.752,128.974 v32.816"/></g><g id="g3607" transform="translate(596.1924,694.6802)"><path id="path3609" fill="none" stroke="#2C2C2D" stroke-miterlimit="10" d="M42.394-8.384 v32.816"/></g><g id="g3611" transform="translate(596.1924,693.6802)"><path id="path3613" fill="none" stroke="#4C4B4B" stroke-miterlimit="10" d="M43.394-7.384 v32.816"/></g><g id="g3615" transform="translate(596.1924,722.8462)"><path id="path3617" fill="none" stroke="#2C2C2D" stroke-miterlimit="10" d="M14.228-36.55 v32.816"/></g><g id="g3619" transform="translate(596.1924,721.8462)"><path id="path3621" fill="none" stroke="#4C4B4B" stroke-miterlimit="10" d="M15.228-35.55 v32.816"/></g><g id="g3623" transform="translate(596.1924,639.5122)"><path id="path3625" fill="none" stroke="#2C2C2D" stroke-miterlimit="10" d="M97.562,46.784 V79.6"/></g><g id="g3627" transform="translate(596.1924,638.5122)"><path id="path3629" fill="none" stroke="#4C4B4B" stroke-miterlimit="10" d="M98.562,47.784 V80.6"/></g><g id="g3631" transform="translate(596.1924,667.6802)"><path id="path3633" fill="none" stroke="#2C2C2D" stroke-miterlimit="10" d="M69.394,18.616 v32.816"/></g><g id="g3635" transform="translate(596.1924,666.6802)"><path id="path3637" fill="none" stroke="#4C4B4B" stroke-miterlimit="10" d="M70.394,19.616 v32.816"/></g><g id="g3639" transform="translate(596.1924,585.3223)"><path id="path3641" fill="none" stroke="#2C2C2D" stroke-miterlimit="10" d="M151.752,100.974 v32.816"/></g><g id="g3643" transform="translate(596.1924,584.3223)"><path id="path3645" fill="none" stroke="#4C4B4B" stroke-miterlimit="10" d="M152.752,101.974 v32.816"/></g><g id="g3647" transform="translate(596.1924,613.4888)"><path id="path3649" fill="none" stroke="#2C2C2D" stroke-miterlimit="10" d="M123.585,72.807 v32.816"/></g><g id="g3651" transform="translate(596.1924,612.4888)"><path id="path3653" fill="none" stroke="#4C4B4B" stroke-miterlimit="10" d="M124.585,73.807 v32.816"/></g><g id="g3655" transform="translate(596.1924,530.1543)"><path id="path3657" fill="none" stroke="#2C2C2D" stroke-miterlimit="10" d="M206.944,156.142 v32.816"/></g><g id="g3659" transform="translate(596.1924,529.1543)"><path id="path3661" fill="none" stroke="#4C4B4B" stroke-miterlimit="10" d="M207.945,157.142 v32.816"/></g><g id="g3663" transform="translate(596.1924,502.7676)"><path id="path3665" fill="none" stroke="#2C2C2D" stroke-miterlimit="10" d="M234.332,183.529 v32.816"/></g><g id="g3583_1_" transform="translate(596.1924,530.1543)"><path id="path3585_1_" fill="none" stroke="#2C2C2D" stroke-miterlimit="10" d="M234.559,156.142v32.816"/></g><g id="g3587_1_" transform="translate(596.1924,529.1543)"><path id="path3589_1_" fill="none" stroke="#3F403F" stroke-miterlimit="10" d="M235.56,157.142 v32.816"/></g><g id="g3591_1_" transform="translate(596.1924,502.7676)"><path id="path3593_1_" fill="none" stroke="#2C2C2D" stroke-miterlimit="10" d="M261.947,183.529v32.816"/></g><g id="g3595_1_" transform="translate(596.1924,501.7676)"><path id="path3597_1_" fill="none" stroke="#3F403F" stroke-miterlimit="10" d="M262.947,184.529v32.816"/></g><g id="g3655_1_" transform="translate(596.1924,530.1543)"><path id="path3657_1_" fill="none" stroke="#2C2C2D" stroke-miterlimit="10" d="M234.559,156.142v32.816"/></g><g id="g3663_1_" transform="translate(596.1924,502.7676)"><path id="path3665_1_" fill="none" stroke="#2C2C2D" stroke-miterlimit="10" d="M261.947,183.529v32.816"/></g><g id="g3667_1_" transform="translate(596.1924,501.7676)"><path id="path3669_1_" fill="none" stroke="#4C4B4B" stroke-miterlimit="10" d="M262.947,184.529v32.816"/></g><g id="g3671" transform="translate(596.1924,558.3223)"><path id="path3673" fill="none" stroke="#2C2C2D" stroke-miterlimit="10" d="M178.752,127.974 v32.816"/></g><g id="g3675" transform="translate(596.1924,557.3223)"><path id="path3677" fill="none" stroke="#4C4B4B" stroke-miterlimit="10" d="M179.752,128.974 v32.816"/></g></g></svg>