<svg xmlns="http://www.w3.org/2000/svg" xmlns:svg="http://www.w3.org/2000/svg" id="svg4497" width="151.25" height="151.25" version="1.1" xml:space="preserve"><metadata id="metadata4503"/><defs id="defs4501"><linearGradient id="linearGradient4519" x1="0" x2="1" y1="0" y2="0" gradientTransform="matrix(0,121.29395,121.29395,0,60.520508,-0.078125)" gradientUnits="userSpaceOnUse" spreadMethod="pad"><stop style="stop-opacity:1;stop-color:#4d4d4f" id="stop4521" offset="0"/><stop style="stop-opacity:1;stop-color:#48484a" id="stop4523" offset=".397"/><stop style="stop-opacity:1;stop-color:#363737" id="stop4525" offset=".789"/><stop style="stop-opacity:1;stop-color:#292929" id="stop4527" offset="1"/></linearGradient><linearGradient id="linearGradient4543" x1="0" x2="1" y1="0" y2="0" gradientTransform="matrix(0,112.05273,112.05273,0,60.520508,4.5410156)" gradientUnits="userSpaceOnUse" spreadMethod="pad"><stop style="stop-opacity:1;stop-color:#292929" id="stop4545" offset="0"/><stop style="stop-opacity:1;stop-color:#363737" id="stop4547" offset=".211"/><stop style="stop-opacity:1;stop-color:#48484a" id="stop4549" offset=".603"/><stop style="stop-opacity:1;stop-color:#4d4d4f" id="stop4551" offset="1"/></linearGradient><linearGradient id="linearGradient4567" x1="0" x2="1" y1="0" y2="0" gradientTransform="matrix(112.05371,0,0,-112.05371,4.4931641,88.23877)" gradientUnits="userSpaceOnUse" spreadMethod="pad"><stop style="stop-opacity:1;stop-color:#292929" id="stop4569" offset="0"/><stop style="stop-opacity:1;stop-color:#657178" id="stop4571" offset=".13"/><stop style="stop-opacity:1;stop-color:#7e9dab" id="stop4573" offset=".266"/><stop style="stop-opacity:1;stop-color:#85bbd4" id="stop4575" offset=".379"/><stop style="stop-opacity:1;stop-color:#84cded" id="stop4577" offset=".462"/><stop style="stop-opacity:1;stop-color:#84d4f7" id="stop4579" offset=".508"/><stop style="stop-opacity:1;stop-color:#292929" id="stop4581" offset="1"/></linearGradient><linearGradient id="linearGradient4597" x1="0" x2="1" y1="0" y2="0" gradientTransform="matrix(112.05371,0,0,112.05371,4.4931641,32.893555)" gradientUnits="userSpaceOnUse" spreadMethod="pad"><stop style="stop-opacity:1;stop-color:#292929" id="stop4599" offset="0"/><stop style="stop-opacity:1;stop-color:#657178" id="stop4601" offset=".13"/><stop style="stop-opacity:1;stop-color:#7e9dab" id="stop4603" offset=".266"/><stop style="stop-opacity:1;stop-color:#85bbd4" id="stop4605" offset=".379"/><stop style="stop-opacity:1;stop-color:#84cded" id="stop4607" offset=".462"/><stop style="stop-opacity:1;stop-color:#84d4f7" id="stop4609" offset=".508"/><stop style="stop-opacity:1;stop-color:#292929" id="stop4611" offset="1"/></linearGradient><clipPath id="clipPath4619" clipPathUnits="userSpaceOnUse"><path id="path4621" d="M 2.417,58.409 26.745,64 l 1.893,1.193 -26.221,1.747 0,-8.531 z"/></clipPath><linearGradient id="linearGradient4631" x1="0" x2="1" y1="0" y2="0" gradientTransform="matrix(26.22168,0,0,-26.22168,2.4169922,62.674805)" gradientUnits="userSpaceOnUse" spreadMethod="pad"><stop style="stop-opacity:0;stop-color:#fff" id="stop4633" offset="0"/><stop style="stop-opacity:.85349813;stop-color:#fff" id="stop4635" offset=".854"/><stop style="stop-opacity:.85349813;stop-color:#fff" id="stop4637" offset=".854"/><stop style="stop-opacity:1;stop-color:#fff" id="stop4639" offset="1"/></linearGradient><mask id="mask4641" width="1" height="1" x="0" y="0" maskUnits="userSpaceOnUse"><g id="g4643"><g id="g4645"><g id="g4647"><g id="g4649"><path style="fill:url(#linearGradient4631);stroke:none" id="path4651" d="m -32768,32767 65535,0 0,-65534 -65535,0 0,65534 z"/></g></g></g></g></mask><linearGradient id="linearGradient4657" x1="0" x2="1" y1="0" y2="0" gradientTransform="matrix(26.22168,0,0,-26.22168,2.4169922,62.674805)" gradientUnits="userSpaceOnUse" spreadMethod="pad"><stop style="stop-opacity:1;stop-color:#fff" id="stop4659" offset="0"/><stop style="stop-opacity:1;stop-color:#fff" id="stop4661" offset=".854"/><stop style="stop-opacity:1;stop-color:#fff" id="stop4663" offset="1"/></linearGradient><radialGradient id="radialGradient4679" cx="0" cy="0" r="1" fx="0" fy="0" gradientTransform="matrix(42.603317,0,0,-42.603317,38.867187,73.749023)" gradientUnits="userSpaceOnUse" spreadMethod="pad"><stop style="stop-opacity:1;stop-color:#2a7ea9" id="stop4681" offset="0"/><stop style="stop-opacity:1;stop-color:#2881ac" id="stop4683" offset=".016"/><stop style="stop-opacity:1;stop-color:#2795c1" id="stop4685" offset=".144"/><stop style="stop-opacity:1;stop-color:#27a7d2" id="stop4687" offset=".281"/><stop style="stop-opacity:1;stop-color:#3bb7e0" id="stop4689" offset=".425"/><stop style="stop-opacity:1;stop-color:#56c4ee" id="stop4691" offset=".581"/><stop style="stop-opacity:1;stop-color:#67cbf3" id="stop4693" offset=".758"/><stop style="stop-opacity:1;stop-color:#6ccef5" id="stop4695" offset="1"/></radialGradient><clipPath id="clipPath4703" clipPathUnits="userSpaceOnUse"><path id="path4705" d="M 0,121 121,121 121,0 0,0 0,121 z"/></clipPath><radialGradient id="radialGradient4723" cx="0" cy="0" r="1" fx="0" fy="0" gradientTransform="matrix(42.603317,0,0,-42.603317,38.867187,73.749023)" gradientUnits="userSpaceOnUse" spreadMethod="pad"><stop style="stop-opacity:1;stop-color:#2a7ea9" id="stop4725" offset="0"/><stop style="stop-opacity:1;stop-color:#2881ac" id="stop4727" offset=".016"/><stop style="stop-opacity:1;stop-color:#2795c1" id="stop4729" offset=".144"/><stop style="stop-opacity:1;stop-color:#27a7d2" id="stop4731" offset=".281"/><stop style="stop-opacity:1;stop-color:#3bb7e0" id="stop4733" offset=".425"/><stop style="stop-opacity:1;stop-color:#56c4ee" id="stop4735" offset=".581"/><stop style="stop-opacity:1;stop-color:#67cbf3" id="stop4737" offset=".758"/><stop style="stop-opacity:1;stop-color:#6ccef5" id="stop4739" offset="1"/></radialGradient><clipPath id="clipPath4747" clipPathUnits="userSpaceOnUse"><path id="path4749" d="M 2.417,54.711 3.404,44.823 23.84,53.472 23.434,55.216 2.417,54.711 z"/></clipPath><linearGradient id="linearGradient4759" x1="0" x2="1" y1="0" y2="0" gradientTransform="matrix(21.422852,0,0,-21.422852,2.4169922,50.019531)" gradientUnits="userSpaceOnUse" spreadMethod="pad"><stop style="stop-opacity:0;stop-color:#fff" id="stop4761" offset="0"/><stop style="stop-opacity:.85349813;stop-color:#fff" id="stop4763" offset=".854"/><stop style="stop-opacity:.85349813;stop-color:#fff" id="stop4765" offset=".854"/><stop style="stop-opacity:1;stop-color:#fff" id="stop4767" offset="1"/></linearGradient><mask id="mask4769" width="1" height="1" x="0" y="0" maskUnits="userSpaceOnUse"><g id="g4771"><g id="g4773"><g id="g4775"><g id="g4777"><path style="fill:url(#linearGradient4759);stroke:none" id="path4779" d="m -32768,32767 65535,0 0,-65534 -65535,0 0,65534 z"/></g></g></g></g></mask><linearGradient id="linearGradient4785" x1="0" x2="1" y1="0" y2="0" gradientTransform="matrix(21.422852,0,0,-21.422852,2.4169922,50.019531)" gradientUnits="userSpaceOnUse" spreadMethod="pad"><stop style="stop-opacity:1;stop-color:#fff" id="stop4787" offset="0"/><stop style="stop-opacity:1;stop-color:#fff" id="stop4789" offset=".854"/><stop style="stop-opacity:1;stop-color:#fff" id="stop4791" offset="1"/></linearGradient><clipPath id="clipPath4799" clipPathUnits="userSpaceOnUse"><path id="path4801" d="M 0,121 121,121 121,0 0,0 0,121 z"/></clipPath><linearGradient id="linearGradient4823" x1="0" x2="1" y1="0" y2="0" gradientTransform="matrix(21.757721,-30.284424,30.284424,21.757721,70.154297,53.71875)" gradientUnits="userSpaceOnUse" spreadMethod="pad"><stop style="stop-opacity:1;stop-color:#f48335" id="stop4825" offset="0"/><stop style="stop-opacity:1;stop-color:#f58c35" id="stop4827" offset=".244"/><stop style="stop-opacity:1;stop-color:#f58c35" id="stop4829" offset=".244"/><stop style="stop-opacity:1;stop-color:#f9a533" id="stop4831" offset=".644"/><stop style="stop-opacity:1;stop-color:#fcbf30" id="stop4833" offset="1"/></linearGradient><clipPath id="clipPath4841" clipPathUnits="userSpaceOnUse"><path id="path4843" d="M 0,121 121,121 121,0 0,0 0,121 z"/></clipPath><linearGradient id="linearGradient4861" x1="0" x2="1" y1="0" y2="0" gradientTransform="matrix(21.757721,-30.284424,30.284424,21.757721,70.154297,53.71875)" gradientUnits="userSpaceOnUse" spreadMethod="pad"><stop style="stop-opacity:1;stop-color:#64b051" id="stop4863" offset="0"/><stop style="stop-opacity:1;stop-color:#63bb51" id="stop4865" offset=".005"/><stop style="stop-opacity:1;stop-color:#6cbe50" id="stop4867" offset=".169"/><stop style="stop-opacity:1;stop-color:#83c44d" id="stop4869" offset=".44"/><stop style="stop-opacity:1;stop-color:#a6cf47" id="stop4871" offset=".781"/><stop style="stop-opacity:1;stop-color:#c4d83e" id="stop4873" offset="1"/></linearGradient><clipPath id="clipPath4881" clipPathUnits="userSpaceOnUse"><path id="path4883" d="M 0,121 121,121 121,0 0,0 0,121 z"/></clipPath><clipPath id="clipPath4897" clipPathUnits="userSpaceOnUse"><path id="path4899" d="m -40.8911,157.918 191.3751,0 0,-180.5801 -191.3751,0 0,180.5801 z"/></clipPath><clipPath id="clipPath4901" clipPathUnits="userSpaceOnUse"><path id="path4903" d="m 5.023,58.725 c 0,-14.813 6.051,-28.059 15.473,-38.066 4.899,40.443 39.03,71.887 80.793,71.887 1.125,0 2.17,-0.229 3.281,-0.27 C 94.354,105.562 78.94,114.595 60.894,114.595 30.049,114.596 5.023,89.575 5.023,58.725"/></clipPath><clipPath id="clipPath4905" clipPathUnits="userSpaceOnUse"><path id="path4907" d="m -40.8911,157.918 191.3751,0 0,-180.5801 -191.3751,0 0,180.5801 z"/></clipPath><clipPath id="clipPath4909" clipPathUnits="userSpaceOnUse"><path id="path4911" d="m -40.8911,157.918 191.3751,0 0,-180.5801 -191.3751,0 0,180.5801 z"/></clipPath><linearGradient id="linearGradient4917" x1="0" x2="1" y1="0" y2="0" gradientTransform="matrix(38.500092,-54.596191,57.860138,36.328293,18.90625,118.47656)" gradientUnits="userSpaceOnUse" spreadMethod="pad"><stop style="stop-opacity:1;stop-color:#fff" id="stop4919" offset="0"/><stop style="stop-opacity:1;stop-color:#292929" id="stop4921" offset="1"/></linearGradient><mask id="mask4923" width="1" height="1" x="0" y="0" maskUnits="userSpaceOnUse"><g id="g4925"><g id="g4927" clip-path="url(#clipPath4905)"><path style="fill:#000;fill-opacity:1;fill-rule:nonzero;stroke:none" id="path4929" d="m -40.891,157.918 191.375,0 0,-180.581 -191.375,0 0,180.581 z"/><g id="g4931"><g id="g4935"><g id="g4937" clip-path="url(#clipPath4909)"><g id="g4939"><g id="g4941"><g id="g4943"><g id="g4945"><path style="fill:url(#linearGradient4917);stroke:none" id="path4947" d="m 5.024,58.725 c 0,-14.813 6.05,-28.059 15.472,-38.065 l 0,0 c 4.898,40.442 39.03,71.886 80.793,71.886 l 0,0 c 1.125,0 2.17,-0.228 3.281,-0.27 l 0,0 c -10.217,13.286 -25.629,22.319 -43.676,22.319 l 0,0 C 30.049,114.596 5.024,89.575 5.024,58.725"/></g></g></g></g></g></g></g></g></g></mask><clipPath id="clipPath4949" clipPathUnits="userSpaceOnUse"><path id="path4951" d="m -40.8911,157.918 191.3751,0 0,-180.5801 -191.3751,0 0,180.5801 z"/></clipPath><linearGradient id="linearGradient4957" x1="0" x2="1" y1="0" y2="0" gradientTransform="matrix(38.500092,-54.596191,57.860138,36.328293,18.90625,118.47656)" gradientUnits="userSpaceOnUse" spreadMethod="pad"><stop style="stop-opacity:1;stop-color:#fff" id="stop4959" offset="0"/><stop style="stop-opacity:1;stop-color:#fff" id="stop4961" offset="1"/></linearGradient></defs><g id="g4505" transform="matrix(1.25,0,0,-1.25,0,151.25)"><g id="g4507"><g id="g4509"><g id="g4515"><g id="g4517"><path style="fill:url(#linearGradient4519);stroke:none" id="path4529" d="M 55.367,121 C 25.576,118.493 1.914,94.451 0,64.496 l 0,0 0,-7.853 C 1.957,26 26.668,1.552 57.412,0 l 0,0 6.217,0 C 94.177,1.542 118.759,25.681 121,56.042 l 0,0 0,9.055 C 118.81,94.771 95.268,118.51 65.675,121 l 0,0 -10.308,0 z"/></g></g></g></g><g id="g4531"><g id="g4533"><g id="g4539"><g id="g4541"><path style="fill:url(#linearGradient4543);stroke:none" id="path4553" d="M 4.493,60.57 C 4.493,29.678 29.627,4.542 60.521,4.542 l 0,0 c 30.897,0 56.026,25.136 56.026,56.028 l 0,0 c 0,30.894 -25.129,56.025 -56.026,56.025 l 0,0 C 29.628,116.595 4.493,91.466 4.493,60.57"/></g></g></g></g><g id="g4555"><g id="g4557"><g id="g4563"><g id="g4565"><path style="fill:url(#linearGradient4567);stroke:none" id="path4583" d="m 4.493,60.569 c 0,-0.234 0.031,-0.452 0.037,-0.687 l 0,0 c 0.372,30.571 25.331,55.336 55.991,55.336 l 0,0 c 30.663,0 55.616,-24.765 55.99,-55.336 l 0,0 c 0.007,0.235 0.036,0.453 0.036,0.687 l 0,0 c 0,30.897 -25.129,56.026 -56.026,56.026 l 0,0 C 29.627,116.595 4.493,91.464 4.493,60.569"/></g></g></g></g><g id="g4585"><g id="g4587"><g id="g4593"><g id="g4595"><path style="fill:url(#linearGradient4597);stroke:none" id="path4613" d="M 60.521,5.912 C 29.861,5.912 4.902,30.675 4.53,61.25 l 0,0 C 4.524,61.016 4.493,60.796 4.493,60.562 l 0,0 C 4.493,29.663 29.627,4.537 60.521,4.537 l 0,0 c 30.897,0 56.026,25.126 56.026,56.025 l 0,0 c 0,0.234 -0.029,0.454 -0.036,0.688 l 0,0 C 116.137,30.675 91.184,5.912 60.521,5.912"/></g></g></g></g><g id="g4615"><g id="g4617" clip-path="url(#clipPath4619)"><g id="g4623"><g id="g4653" mask="url(#mask4641)"><g id="g4655"><path style="fill:url(#linearGradient4657);stroke:none" id="path4665" d="M 2.417,58.409 26.745,64 l 1.893,1.193 -26.221,1.747 0,-8.531 z"/></g></g></g></g></g><g id="g4667"><g id="g4669"><g id="g4675"><g id="g4677"><path style="fill:url(#radialGradient4679);stroke:none" id="path4697" d="M 44.857,69.001 C 31.94,68.939 24.025,63.397 21.709,58.341 l 0,0 c -0.23,-0.506 -0.39,-0.999 -0.489,-1.487 l 0,0 c -0.938,-4.573 3.312,-8.432 3.312,-9.629 l 0,0 c 0,-1.075 2.674,-1.624 3.681,-1.793 l 0,0 c 1.124,-1.943 3.438,-3.278 6.109,-3.278 l 0,0 c 2.715,0 5,0.875 6.105,2.868 l 0,0 c 1.165,0 5.54,0.882 5.54,0.882 l 0,0 c 0,0 12.7,0.086 22.404,0.265 l 0,0 c 9.361,0.17 10.292,-1.108 10.342,-1.218 l 0,0 c 1.195,-1.734 3.302,-2.797 5.799,-2.797 l 0,0 c 2.978,0 5.511,1.655 6.448,3.966 l 0,0 c 4.726,0.726 6.341,2.252 6.341,2.252 l 0,0 c 0,0 1.235,0.529 2.252,4.767 l 0,0 c 1.017,4.23 -0.844,5.749 -0.844,5.749 l 0,0 c 1.412,1.255 0.795,5.008 0,7.302 l 0,0 c -0.565,1.632 -3.673,2.369 -5.419,2.658 l 0,0 c -0.275,0.23 -0.571,0.463 -0.888,0.699 l 0,0 c -0.099,0.056 -10.07,5.692 -23.685,5.692 l 0,0 c -8.411,0 -16.416,-2.1 -23.86,-6.238 m -3.594,-8.017 c -0.695,2.365 0.46,4.408 0.736,4.849 l 0,0 c 8.219,5.425 17.207,8.175 26.718,8.175 l 0,0 c 13.271,0 22.974,-5.476 23.009,-5.489 l 0,0 c 2.108,-1.566 3.18,-3.021 3.104,-4.203 l 0,0 c -0.05,-0.735 -0.55,-1.238 -0.855,-1.478 l 0,0 c -2.03,0.912 -13.219,5.629 -27.293,5.379 l 0,0 C 52.902,67.983 45.42,60.762 44.246,59.534 l 0,0 c -0.114,-0.015 -0.274,-0.026 -0.465,-0.026 l 0,0 c -0.855,0 -1.994,0.267 -2.518,1.476 m 6.11,-2.782 c 2.236,2.084 8.609,6.85 20.109,6.85 l 0,0 c 5.262,0 10.996,-0.999 17.063,-2.968 l 0,0 C 83.955,61.673 83.08,61.138 81.976,60.67 l 0,0 C 80.055,59.858 59.387,58.186 49.043,58.186 l 0,0 c -0.598,0 -1.156,0.004 -1.67,0.016 M 80.236,48.057 c 0,2.263 1.979,4.105 4.411,4.105 l 0,0 c 2.431,0 4.412,-1.842 4.412,-4.105 l 0,0 c 0,-2.262 -1.981,-4.104 -4.412,-4.104 l 0,0 c -2.434,0 -4.411,1.842 -4.411,4.104 m -50.556,0 c 0,2.263 1.979,4.105 4.411,4.105 l 0,0 c 2.433,0 4.411,-1.842 4.411,-4.105 l 0,0 c 0,-2.262 -1.978,-4.104 -4.411,-4.104 l 0,0 c -2.432,0 -4.411,1.842 -4.411,4.104"/></g></g></g></g><g id="g4699"><g id="g4701" clip-path="url(#clipPath4703)"><g id="g4707" transform="translate(93.9756,62.8379)"><path style="fill:none;stroke:#292929;stroke-opacity:1;stroke-width:4;stroke-linecap:butt;stroke-linejoin:miter;stroke-miterlimit:10;stroke-dasharray:none" id="path4709" d="m 0,0 c -2.03,0.912 -13.22,5.629 -27.294,5.379 -13.78,-0.234 -21.262,-7.455 -22.436,-8.683 -0.113,-0.015 -0.273,-0.026 -0.464,-0.026 -0.856,0 -1.994,0.267 -2.518,1.476 -0.696,2.366 0.459,4.408 0.736,4.85 8.218,5.424 17.207,8.174 26.717,8.174 13.272,0 22.975,-5.476 23.01,-5.489 C -0.142,4.115 0.931,2.661 0.854,1.478 0.805,0.743 0.305,0.24 0,0 z m -9.329,-18.885 c -2.434,0 -4.41,1.842 -4.41,4.105 0,2.262 1.978,4.104 4.41,4.104 2.432,0 4.412,-1.842 4.412,-4.104 0,-2.263 -1.98,-4.105 -4.412,-4.105 z m -35.604,14.233 c -0.598,0 -1.155,0.005 -1.67,0.016 2.236,2.084 8.609,6.85 20.11,6.85 5.262,0 10.996,-0.999 17.062,-2.968 -0.59,-0.411 -1.465,-0.946 -2.569,-1.414 -1.921,-0.811 -22.588,-2.484 -32.933,-2.484 z m -14.951,-14.233 c -2.432,0 -4.411,1.842 -4.411,4.105 0,2.262 1.979,4.104 4.411,4.104 2.432,0 4.411,-1.842 4.411,-4.104 0,-2.263 -1.979,-4.105 -4.411,-4.105 z M 4.733,-3.95 c 1.413,1.255 0.795,5.008 0,7.302 -0.564,1.632 -3.673,2.37 -5.42,2.659 -0.274,0.229 -0.57,0.462 -0.886,0.698 -0.1,0.056 -10.071,5.692 -23.686,5.692 -8.41,0 -16.416,-2.1 -23.86,-6.237 -12.916,-0.063 -20.832,-5.605 -23.148,-10.661 -0.229,-0.506 -0.389,-0.999 -0.488,-1.487 -0.938,-4.573 3.312,-8.432 3.312,-9.629 0,-1.075 2.674,-1.623 3.68,-1.793 1.125,-1.943 3.439,-3.278 6.11,-3.278 2.714,0 4.999,0.875 6.104,2.868 1.165,0 5.54,0.881 5.54,0.881 0,0 12.7,0.087 22.405,0.266 9.361,0.17 10.291,-1.107 10.341,-1.218 1.196,-1.734 3.303,-2.797 5.799,-2.797 2.979,0 5.511,1.656 6.448,3.966 4.727,0.726 6.341,2.252 6.341,2.252 0,0 1.235,0.528 2.253,4.767 1.017,4.23 -0.845,5.749 -0.845,5.749 z"/></g></g></g><g id="g4711"><g id="g4713"><g id="g4719"><g id="g4721"><path style="fill:url(#radialGradient4723);stroke:none" id="path4741" d="M 44.857,69.001 C 31.94,68.939 24.025,63.397 21.709,58.341 l 0,0 c -0.23,-0.506 -0.39,-0.999 -0.489,-1.487 l 0,0 c -0.938,-4.573 3.312,-8.432 3.312,-9.629 l 0,0 c 0,-1.075 2.674,-1.624 3.681,-1.793 l 0,0 c 1.124,-1.943 3.438,-3.278 6.109,-3.278 l 0,0 c 2.715,0 5,0.875 6.105,2.868 l 0,0 c 1.165,0 5.54,0.882 5.54,0.882 l 0,0 c 0,0 12.7,0.086 22.404,0.265 l 0,0 c 9.361,0.17 10.292,-1.108 10.342,-1.218 l 0,0 c 1.195,-1.734 3.302,-2.797 5.799,-2.797 l 0,0 c 2.978,0 5.511,1.655 6.448,3.966 l 0,0 c 4.726,0.726 6.341,2.252 6.341,2.252 l 0,0 c 0,0 1.235,0.529 2.252,4.767 l 0,0 c 1.017,4.23 -0.844,5.749 -0.844,5.749 l 0,0 c 1.412,1.255 0.795,5.008 0,7.302 l 0,0 c -0.565,1.632 -3.673,2.369 -5.419,2.658 l 0,0 c -0.275,0.23 -0.571,0.463 -0.888,0.699 l 0,0 c -0.099,0.056 -10.07,5.692 -23.685,5.692 l 0,0 c -8.411,0 -16.416,-2.1 -23.86,-6.238 m -3.594,-8.017 c -0.695,2.365 0.46,4.408 0.736,4.849 l 0,0 c 8.219,5.425 17.207,8.175 26.718,8.175 l 0,0 c 13.271,0 22.974,-5.476 23.009,-5.489 l 0,0 c 2.108,-1.566 3.18,-3.021 3.104,-4.203 l 0,0 c -0.05,-0.735 -0.55,-1.238 -0.855,-1.478 l 0,0 c -2.03,0.912 -13.219,5.629 -27.293,5.379 l 0,0 C 52.902,67.983 45.42,60.762 44.246,59.534 l 0,0 c -0.114,-0.015 -0.274,-0.026 -0.465,-0.026 l 0,0 c -0.855,0 -1.994,0.267 -2.518,1.476 m 6.11,-2.782 c 2.236,2.084 8.609,6.85 20.109,6.85 l 0,0 c 5.262,0 10.996,-0.999 17.063,-2.968 l 0,0 C 83.955,61.673 83.08,61.138 81.976,60.67 l 0,0 C 80.055,59.858 59.387,58.186 49.043,58.186 l 0,0 c -0.598,0 -1.156,0.004 -1.67,0.016"/></g></g></g></g><g id="g4743"><g id="g4745" clip-path="url(#clipPath4747)"><g id="g4751"><g id="g4781" mask="url(#mask4769)"><g id="g4783"><path style="fill:url(#linearGradient4785);stroke:none" id="path4793" d="M 2.417,54.711 3.404,44.823 23.84,53.472 23.434,55.216 2.417,54.711 z"/></g></g></g></g></g><g id="g4795"><g id="g4797" clip-path="url(#clipPath4799)"><g id="g4803" transform="translate(34.0913,43.9531)"><path style="fill:#292929;fill-opacity:1;fill-rule:nonzero;stroke:none" id="path4805" d="m 0,0 c -2.432,0 -4.411,1.842 -4.411,4.104 0,2.263 1.979,4.105 4.411,4.105 2.432,0 4.411,-1.842 4.411,-4.105 C 4.411,1.842 2.432,0 0,0"/></g><g id="g4807" transform="translate(84.6465,43.9531)"><path style="fill:#292929;fill-opacity:1;fill-rule:nonzero;stroke:none" id="path4809" d="m 0,0 c -2.434,0 -4.41,1.842 -4.41,4.104 0,2.263 1.978,4.105 4.41,4.105 2.432,0 4.412,-1.842 4.412,-4.105 C 4.412,1.842 2.432,0 0,0"/></g></g></g><g id="g4811"><g id="g4813"><g id="g4819"><g id="g4821"><path style="fill:url(#linearGradient4823);stroke:none" id="path4835" d="m 84.529,54.725 c -0.936,-0.08 -1.261,-0.712 -1.608,-1.329 l 0,0 c -0.462,-0.82 -0.97,-1.699 -1.415,-2.484 l 0,0 C 81.365,50.662 81.229,50.433 81.1,50.205 l 0,0 c -1.406,-2.5 -2.786,-4.976 -4.219,-7.453 l 0,0 C 75.947,41.143 74.966,39.326 74.01,37.717 l 0,0 C 73.85,37.45 73.701,37.172 73.561,36.925 l 0,0 c -0.072,-0.129 -0.122,-0.24 -0.192,-0.364 l 0,0 c -0.366,-0.637 -0.753,-1.337 -1.115,-1.95 l 0,0 c -0.107,-0.183 -0.2,-0.361 -0.301,-0.535 l 0,0 c -0.242,-0.421 -0.471,-0.828 -0.705,-1.242 l 0,0 c -0.266,-0.47 -0.633,-1.033 -0.645,-1.586 l 0,0 c -0.011,-0.606 0.364,-1.129 0.729,-1.37 l 0,0 c 0.461,-0.307 1.081,-0.299 1.799,-0.299 l 0,0 23.155,0 c 0.386,0 0.718,-0.004 1.007,0.043 l 0,0 c 0.573,0.092 0.994,0.434 1.221,0.877 l 0,0 c 0.125,0.245 0.199,0.542 0.173,0.876 l 0,0 c -0.054,0.627 -0.376,1.005 -0.642,1.48 l 0,0 c -1.006,1.782 -1.991,3.516 -3.042,5.375 l 0,0 c -0.668,1.178 -1.474,2.616 -2.184,3.834 l 0,0 c -0.108,0.183 -0.186,0.353 -0.281,0.516 l 0,0 c -1.112,1.912 -2.254,3.952 -3.343,5.868 l 0,0 c -0.633,1.12 -1.294,2.26 -1.906,3.362 l 0,0 c -0.224,0.407 -0.434,0.79 -0.664,1.18 l 0,0 c -0.272,0.461 -0.514,0.976 -0.833,1.285 l 0,0 c -0.256,0.245 -0.66,0.455 -1.129,0.455 l 0,0 c -0.044,0 -0.089,-0.002 -0.134,-0.005"/></g></g></g></g><g id="g4837"><g id="g4839" clip-path="url(#clipPath4841)"><g id="g4845" transform="translate(98.5137,30.499)"><path style="fill:none;stroke:#373536;stroke-opacity:1;stroke-width:6;stroke-linecap:butt;stroke-linejoin:miter;stroke-miterlimit:10;stroke-dasharray:none" id="path4847" d="M 0,0 C -0.227,-0.442 -0.647,-0.785 -1.221,-0.877 -1.51,-0.924 -1.842,-0.921 -2.229,-0.921 l -23.154,0 c -0.718,0 -1.338,-0.007 -1.799,0.3 -0.365,0.241 -0.74,0.765 -0.728,1.37 0.012,0.553 0.379,1.116 0.644,1.586 0.235,0.414 0.463,0.82 0.705,1.242 0.101,0.174 0.194,0.352 0.301,0.535 0.362,0.614 0.75,1.313 1.115,1.95 0.071,0.124 0.12,0.236 0.192,0.364 0.14,0.247 0.29,0.525 0.449,0.792 0.957,1.609 1.938,3.426 2.871,5.035 1.434,2.476 2.814,4.953 4.219,7.453 0.129,0.229 0.266,0.457 0.406,0.707 0.445,0.785 0.953,1.664 1.415,2.484 0.347,0.617 0.672,1.249 1.609,1.329 0.525,0.045 0.982,-0.181 1.262,-0.45 0.32,-0.309 0.562,-0.824 0.833,-1.285 0.231,-0.389 0.441,-0.773 0.664,-1.179 0.613,-1.103 1.273,-2.244 1.907,-3.363 1.088,-1.916 2.23,-3.957 3.342,-5.868 0.095,-0.163 0.173,-0.333 0.281,-0.516 0.711,-1.217 1.516,-2.656 2.184,-3.834 C -2.459,5.872 -1.475,4.138 -0.469,2.355 -0.203,1.881 0.119,1.503 0.173,0.876 0.199,0.542 0.125,0.245 0,0 z"/></g></g></g><g id="g4849"><g id="g4851"><g id="g4857"><g id="g4859"><path style="fill:url(#linearGradient4861);stroke:none" id="path4875" d="m 84.529,54.725 c -0.936,-0.08 -1.261,-0.712 -1.608,-1.329 l 0,0 c -0.462,-0.82 -0.97,-1.699 -1.415,-2.484 l 0,0 C 81.365,50.662 81.229,50.433 81.1,50.205 l 0,0 c -1.406,-2.5 -2.786,-4.976 -4.219,-7.453 l 0,0 C 75.947,41.143 74.966,39.326 74.01,37.717 l 0,0 C 73.85,37.45 73.701,37.172 73.561,36.925 l 0,0 c -0.072,-0.129 -0.122,-0.24 -0.192,-0.364 l 0,0 c -0.366,-0.637 -0.753,-1.337 -1.115,-1.95 l 0,0 c -0.107,-0.183 -0.2,-0.361 -0.301,-0.535 l 0,0 c -0.242,-0.421 -0.471,-0.828 -0.705,-1.242 l 0,0 c -0.266,-0.47 -0.633,-1.033 -0.645,-1.586 l 0,0 c -0.011,-0.606 0.364,-1.129 0.729,-1.37 l 0,0 c 0.461,-0.307 1.081,-0.299 1.799,-0.299 l 0,0 23.155,0 c 0.386,0 0.718,-0.004 1.007,0.043 l 0,0 c 0.573,0.092 0.994,0.434 1.221,0.877 l 0,0 c 0.125,0.245 0.199,0.542 0.173,0.876 l 0,0 c -0.054,0.627 -0.376,1.005 -0.642,1.48 l 0,0 c -1.006,1.782 -1.991,3.516 -3.042,5.375 l 0,0 c -0.668,1.178 -1.474,2.616 -2.184,3.834 l 0,0 c -0.108,0.183 -0.186,0.353 -0.281,0.516 l 0,0 c -1.112,1.912 -2.254,3.952 -3.343,5.868 l 0,0 c -0.633,1.12 -1.294,2.26 -1.906,3.362 l 0,0 c -0.224,0.407 -0.434,0.79 -0.664,1.18 l 0,0 c -0.272,0.461 -0.514,0.976 -0.833,1.285 l 0,0 c -0.256,0.245 -0.66,0.455 -1.129,0.455 l 0,0 c -0.044,0 -0.089,-0.002 -0.134,-0.005"/></g></g></g></g><g id="g4877"><g id="g4879" clip-path="url(#clipPath4881)"><g id="g4885" transform="translate(85.9609,46.6709)"><path style="fill:#373536;fill-opacity:1;fill-rule:nonzero;stroke:none" id="path4887" d="m 0,0 c 0.111,-0.7 0.064,-1.47 0.064,-2.271 l 0,-5.804 c 0,-0.71 -0.023,-1.09 -0.363,-1.457 -0.299,-0.321 -0.844,-0.582 -1.478,-0.386 -0.42,0.215 -0.778,0.521 -0.877,1.028 -0.065,0.318 -0.024,0.713 -0.024,1.094 l 0,6.576 c 0,0.506 -0.029,0.954 0.086,1.285 0.223,0.372 0.496,0.689 0.987,0.793 C -0.732,0.995 -0.268,0.54 0,0"/></g><g id="g4889" transform="translate(84.5039,35.5986)"><path style="fill:#373536;fill-opacity:1;fill-rule:nonzero;stroke:none" id="path4891" d="m 0,0 c -0.622,-0.057 -1.057,-0.499 -1.135,-1.073 -0.045,-0.336 0.057,-0.598 0.151,-0.771 0.158,-0.292 0.513,-0.6 0.793,-0.663 0.375,-0.086 0.783,0.033 0.984,0.149 0.283,0.163 0.557,0.504 0.619,0.858 0.053,0.289 -0.018,0.622 -0.104,0.79 C 1.059,-0.226 0.68,0.06 0,0"/></g><g id="g4893"><g id="g4963"><g id="g4965" clip-path="url(#clipPath4897)" opacity=".5"><g id="g4967"><g id="g4969" clip-path="url(#clipPath4901)"><g id="g4971"><g id="g4975" mask="url(#mask4923)"><g id="g4979"><g id="g4981" clip-path="url(#clipPath4949)"><g id="g4983"><g id="g4985"><g id="g4987"><g id="g4989"><path style="fill:url(#linearGradient4957);stroke:none" id="path4991" d="M 74.021,157.918 -40.892,85.769 35.572,-22.662 150.486,49.487 74.021,157.918 z"/></g></g></g></g></g></g></g></g></g></g></g></g></g></g></g></g></svg>