<svg xmlns="http://www.w3.org/2000/svg" xmlns:svg="http://www.w3.org/2000/svg" id="svg3769" width="151.25" height="151.25" version="1.1" xml:space="preserve"><metadata id="metadata3775"/><defs id="defs3773"><linearGradient id="linearGradient3791" x1="0" x2="1" y1="0" y2="0" gradientTransform="matrix(0,121.29346,-121.29346,0,60.500977,-0.046875)" gradientUnits="userSpaceOnUse" spreadMethod="pad"><stop style="stop-opacity:1;stop-color:#4d4d4f" id="stop3793" offset="0"/><stop style="stop-opacity:1;stop-color:#48484a" id="stop3795" offset=".397"/><stop style="stop-opacity:1;stop-color:#363737" id="stop3797" offset=".789"/><stop style="stop-opacity:1;stop-color:#292929" id="stop3799" offset="1"/></linearGradient><linearGradient id="linearGradient3815" x1="0" x2="1" y1="0" y2="0" gradientTransform="matrix(0,112.05225,-112.05225,0,60.5,4.5703125)" gradientUnits="userSpaceOnUse" spreadMethod="pad"><stop style="stop-opacity:1;stop-color:#292929" id="stop3817" offset="0"/><stop style="stop-opacity:1;stop-color:#363737" id="stop3819" offset=".211"/><stop style="stop-opacity:1;stop-color:#48484a" id="stop3821" offset=".603"/><stop style="stop-opacity:1;stop-color:#4d4d4f" id="stop3823" offset="1"/></linearGradient><linearGradient id="linearGradient3839" x1="0" x2="1" y1="0" y2="0" gradientTransform="matrix(112.05371,0,0,112.05371,4.4726562,88.269043)" gradientUnits="userSpaceOnUse" spreadMethod="pad"><stop style="stop-opacity:1;stop-color:#292929" id="stop3841" offset="0"/><stop style="stop-opacity:1;stop-color:#657178" id="stop3843" offset=".13"/><stop style="stop-opacity:1;stop-color:#7e9dab" id="stop3845" offset=".266"/><stop style="stop-opacity:1;stop-color:#85bbd4" id="stop3847" offset=".379"/><stop style="stop-opacity:1;stop-color:#84cded" id="stop3849" offset=".462"/><stop style="stop-opacity:1;stop-color:#84d4f7" id="stop3851" offset=".508"/><stop style="stop-opacity:1;stop-color:#292929" id="stop3853" offset="1"/></linearGradient><linearGradient id="linearGradient3869" x1="0" x2="1" y1="0" y2="0" gradientTransform="matrix(112.05371,0,0,-112.05371,4.4726562,32.923828)" gradientUnits="userSpaceOnUse" spreadMethod="pad"><stop style="stop-opacity:1;stop-color:#292929" id="stop3871" offset="0"/><stop style="stop-opacity:1;stop-color:#657178" id="stop3873" offset=".13"/><stop style="stop-opacity:1;stop-color:#7e9dab" id="stop3875" offset=".266"/><stop style="stop-opacity:1;stop-color:#85bbd4" id="stop3877" offset=".379"/><stop style="stop-opacity:1;stop-color:#84cded" id="stop3879" offset=".462"/><stop style="stop-opacity:1;stop-color:#84d4f7" id="stop3881" offset=".508"/><stop style="stop-opacity:1;stop-color:#292929" id="stop3883" offset="1"/></linearGradient><clipPath id="clipPath3891" clipPathUnits="userSpaceOnUse"><path id="path3893" d="m 2.397,58.438 24.328,5.592 1.892,1.193 -26.22,1.748 0,-8.533 z"/></clipPath><linearGradient id="linearGradient3903" x1="0" x2="1" y1="0" y2="0" gradientTransform="matrix(26.22168,0,0,26.22168,2.3964844,62.704102)" gradientUnits="userSpaceOnUse" spreadMethod="pad"><stop style="stop-opacity:0;stop-color:#fff" id="stop3905" offset="0"/><stop style="stop-opacity:.85349813;stop-color:#fff" id="stop3907" offset=".854"/><stop style="stop-opacity:.85349813;stop-color:#fff" id="stop3909" offset=".854"/><stop style="stop-opacity:1;stop-color:#fff" id="stop3911" offset="1"/></linearGradient><mask id="mask3913" width="1" height="1" x="0" y="0" maskUnits="userSpaceOnUse"><g id="g3915"><g id="g3917"><g id="g3919"><g id="g3921"><path style="fill:url(#linearGradient3903);stroke:none" id="path3923" d="m -32768,32767 65535,0 0,-65534 -65535,0 0,65534 z"/></g></g></g></g></mask><linearGradient id="linearGradient3929" x1="0" x2="1" y1="0" y2="0" gradientTransform="matrix(26.22168,0,0,26.22168,2.3964844,62.704102)" gradientUnits="userSpaceOnUse" spreadMethod="pad"><stop style="stop-opacity:1;stop-color:#fff" id="stop3931" offset="0"/><stop style="stop-opacity:1;stop-color:#fff" id="stop3933" offset=".854"/><stop style="stop-opacity:1;stop-color:#fff" id="stop3935" offset="1"/></linearGradient><radialGradient id="radialGradient3951" cx="0" cy="0" r="1" fx="0" fy="0" gradientTransform="matrix(42.602509,0,0,42.602509,38.84668,73.777832)" gradientUnits="userSpaceOnUse" spreadMethod="pad"><stop style="stop-opacity:1;stop-color:#2a7ea9" id="stop3953" offset="0"/><stop style="stop-opacity:1;stop-color:#2881ac" id="stop3955" offset=".016"/><stop style="stop-opacity:1;stop-color:#2795c1" id="stop3957" offset=".144"/><stop style="stop-opacity:1;stop-color:#27a7d2" id="stop3959" offset=".281"/><stop style="stop-opacity:1;stop-color:#3bb7e0" id="stop3961" offset=".425"/><stop style="stop-opacity:1;stop-color:#56c4ee" id="stop3963" offset=".581"/><stop style="stop-opacity:1;stop-color:#67cbf3" id="stop3965" offset=".758"/><stop style="stop-opacity:1;stop-color:#6ccef5" id="stop3967" offset="1"/></radialGradient><clipPath id="clipPath3975" clipPathUnits="userSpaceOnUse"><path id="path3977" d="M 0,121 121,121 121,0 0,0 0,121 z"/></clipPath><radialGradient id="radialGradient3995" cx="0" cy="0" r="1" fx="0" fy="0" gradientTransform="matrix(42.602509,0,0,42.602509,38.84668,73.777832)" gradientUnits="userSpaceOnUse" spreadMethod="pad"><stop style="stop-opacity:1;stop-color:#2a7ea9" id="stop3997" offset="0"/><stop style="stop-opacity:1;stop-color:#2881ac" id="stop3999" offset=".016"/><stop style="stop-opacity:1;stop-color:#2795c1" id="stop4001" offset=".144"/><stop style="stop-opacity:1;stop-color:#27a7d2" id="stop4003" offset=".281"/><stop style="stop-opacity:1;stop-color:#3bb7e0" id="stop4005" offset=".425"/><stop style="stop-opacity:1;stop-color:#56c4ee" id="stop4007" offset=".581"/><stop style="stop-opacity:1;stop-color:#67cbf3" id="stop4009" offset=".758"/><stop style="stop-opacity:1;stop-color:#6ccef5" id="stop4011" offset="1"/></radialGradient><clipPath id="clipPath4019" clipPathUnits="userSpaceOnUse"><path id="path4021" d="m 2.397,54.74 0.986,-9.888 20.436,8.65 -0.406,1.742 L 2.397,54.74 z"/></clipPath><linearGradient id="linearGradient4031" x1="0" x2="1" y1="0" y2="0" gradientTransform="matrix(21.422852,0,0,21.422852,2.3964844,50.047852)" gradientUnits="userSpaceOnUse" spreadMethod="pad"><stop style="stop-opacity:0;stop-color:#fff" id="stop4033" offset="0"/><stop style="stop-opacity:.85349813;stop-color:#fff" id="stop4035" offset=".854"/><stop style="stop-opacity:.85349813;stop-color:#fff" id="stop4037" offset=".854"/><stop style="stop-opacity:1;stop-color:#fff" id="stop4039" offset="1"/></linearGradient><mask id="mask4041" width="1" height="1" x="0" y="0" maskUnits="userSpaceOnUse"><g id="g4043"><g id="g4045"><g id="g4047"><g id="g4049"><path style="fill:url(#linearGradient4031);stroke:none" id="path4051" d="m -32768,32767 65535,0 0,-65534 -65535,0 0,65534 z"/></g></g></g></g></mask><linearGradient id="linearGradient4057" x1="0" x2="1" y1="0" y2="0" gradientTransform="matrix(21.422852,0,0,21.422852,2.3964844,50.047852)" gradientUnits="userSpaceOnUse" spreadMethod="pad"><stop style="stop-opacity:1;stop-color:#fff" id="stop4059" offset="0"/><stop style="stop-opacity:1;stop-color:#fff" id="stop4061" offset=".854"/><stop style="stop-opacity:1;stop-color:#fff" id="stop4063" offset="1"/></linearGradient><clipPath id="clipPath4071" clipPathUnits="userSpaceOnUse"><path id="path4073" d="M 0,121 121,121 121,0 0,0 0,121 z"/></clipPath><clipPath id="clipPath4087" clipPathUnits="userSpaceOnUse"><path id="path4089" d="m -40.7129,158.333 191.3749,0 0,-180.5801 -191.3749,0 0,180.5801 z"/></clipPath><clipPath id="clipPath4091" clipPathUnits="userSpaceOnUse"><path id="path4093" d="m 5.201,59.141 c 0,-14.813 6.05,-28.061 15.472,-38.067 4.898,40.444 39.042,71.888 80.794,71.888 1.125,0 2.17,-0.23 3.281,-0.272 -10.218,13.287 -25.631,22.32 -43.667,22.32 -30.853,0 -55.88,-25.022 -55.88,-55.869"/></clipPath><clipPath id="clipPath4095" clipPathUnits="userSpaceOnUse"><path id="path4097" d="m -40.7129,158.333 191.3749,0 0,-180.5801 -191.3749,0 0,180.5801 z"/></clipPath><clipPath id="clipPath4099" clipPathUnits="userSpaceOnUse"><path id="path4101" d="m -40.7129,158.333 191.3749,0 0,-180.5801 -191.3749,0 0,180.5801 z"/></clipPath><linearGradient id="linearGradient4107" x1="0" x2="1" y1="0" y2="0" gradientTransform="matrix(38.506165,-54.604813,57.869263,36.33403,19.0625,118.91406)" gradientUnits="userSpaceOnUse" spreadMethod="pad"><stop style="stop-opacity:1;stop-color:#fff" id="stop4109" offset="0"/><stop style="stop-opacity:1;stop-color:#292929" id="stop4111" offset="1"/></linearGradient><mask id="mask4113" width="1" height="1" x="0" y="0" maskUnits="userSpaceOnUse"><g id="g4115"><g id="g4117" clip-path="url(#clipPath4095)"><path style="fill:#000;fill-opacity:1;fill-rule:nonzero;stroke:none" id="path4119" d="m -40.713,158.333 191.375,0 0,-180.58 -191.375,0 0,180.58 z"/><g id="g4121"><g id="g4125"><g id="g4127" clip-path="url(#clipPath4099)"><g id="g4129"><g id="g4131"><g id="g4133"><g id="g4135"><path style="fill:url(#linearGradient4107);stroke:none" id="path4137" d="m 5.201,59.141 c 0,-14.813 6.051,-28.061 15.472,-38.067 l 0,0 c 4.899,40.444 39.042,71.888 80.794,71.888 l 0,0 c 1.125,0 2.17,-0.23 3.281,-0.272 l 0,0 c -10.217,13.287 -25.631,22.32 -43.667,22.32 l 0,0 c -30.854,0 -55.88,-25.022 -55.88,-55.869"/></g></g></g></g></g></g></g></g></g></mask><clipPath id="clipPath4139" clipPathUnits="userSpaceOnUse"><path id="path4141" d="m -40.7129,158.333 191.3749,0 0,-180.5801 -191.3749,0 0,180.5801 z"/></clipPath><linearGradient id="linearGradient4147" x1="0" x2="1" y1="0" y2="0" gradientTransform="matrix(38.506165,-54.604813,57.869263,36.33403,19.0625,118.91406)" gradientUnits="userSpaceOnUse" spreadMethod="pad"><stop style="stop-opacity:1;stop-color:#fff" id="stop4149" offset="0"/><stop style="stop-opacity:1;stop-color:#fff" id="stop4151" offset="1"/></linearGradient></defs><g id="g3777" transform="matrix(1.25,0,0,-1.25,0,151.25)"><g id="g3779"><g id="g3781"><g id="g3787"><g id="g3789"><path style="fill:url(#linearGradient3791);stroke:none" id="path3801" d="M 54.995,121 C 25.469,118.34 2.05,94.525 0,64.838 l 0,0 0,-8.476 C 2.121,25.632 27.132,1.207 58.108,0 l 0,0 4.806,0 C 93.875,1.207 118.879,25.632 121,56.362 l 0,0 0,8.476 C 118.95,94.526 95.532,118.338 66.022,121 l 0,0 -11.027,0 z"/></g></g></g></g><g id="g3803"><g id="g3805"><g id="g3811"><g id="g3813"><path style="fill:url(#linearGradient3815);stroke:none" id="path3825" d="M 4.473,60.6 C 4.473,29.707 29.606,4.57 60.512,4.57 l 0,0 c 30.886,0 56.015,25.137 56.015,56.03 l 0,0 c 0,30.891 -25.129,56.023 -56.015,56.023 l 0,0 C 29.607,116.623 4.473,91.495 4.473,60.6"/></g></g></g></g><g id="g3827"><g id="g3829"><g id="g3835"><g id="g3837"><path style="fill:url(#linearGradient3839);stroke:none" id="path3855" d="m 4.473,60.601 c 0,-0.234 0.031,-0.453 0.036,-0.689 l 0,0 c 0.373,30.57 25.331,55.337 56.003,55.337 l 0,0 c 30.652,0 55.604,-24.767 55.98,-55.337 l 0,0 c 0.006,0.234 0.035,0.453 0.035,0.689 l 0,0 c 0,30.896 -25.129,56.025 -56.015,56.025 l 0,0 C 29.606,116.626 4.473,91.494 4.473,60.601"/></g></g></g></g><g id="g3857"><g id="g3859"><g id="g3865"><g id="g3867"><path style="fill:url(#linearGradient3869);stroke:none" id="path3885" d="M 60.512,5.942 C 29.84,5.942 4.882,30.704 4.509,61.28 l 0,0 C 4.504,61.048 4.473,60.826 4.473,60.592 l 0,0 C 4.473,29.695 29.606,4.568 60.512,4.568 l 0,0 c 30.886,0 56.015,25.127 56.015,56.024 l 0,0 c 0,0.234 -0.029,0.456 -0.035,0.688 l 0,0 C 116.116,30.705 91.164,5.942 60.512,5.942"/></g></g></g></g><g id="g3887"><g id="g3889" clip-path="url(#clipPath3891)"><g id="g3895"><g id="g3925" mask="url(#mask3913)"><g id="g3927"><path style="fill:url(#linearGradient3929);stroke:none" id="path3937" d="m 2.397,58.438 24.328,5.592 1.892,1.193 -26.22,1.748 0,-8.533 z"/></g></g></g></g></g><g id="g3939"><g id="g3941"><g id="g3947"><g id="g3949"><path style="fill:url(#radialGradient3951);stroke:none" id="path3969" d="M 44.835,69.031 C 31.919,68.97 24.002,63.428 21.687,58.37 l 0,0 c -0.228,-0.504 -0.388,-0.999 -0.488,-1.487 l 0,0 c -0.938,-4.572 3.312,-8.431 3.312,-9.629 l 0,0 c 0,-1.074 2.673,-1.623 3.681,-1.793 l 0,0 c 1.125,-1.943 3.438,-3.277 6.108,-3.277 l 0,0 c 2.714,0 4.999,0.875 6.105,2.866 l 0,0 c 1.164,0 5.539,0.882 5.539,0.882 l 0,0 c 0,0 12.713,0.088 22.405,0.265 l 0,0 C 77.71,46.371 78.64,45.094 78.691,44.98 l 0,0 c 1.194,-1.732 3.304,-2.796 5.798,-2.796 l 0,0 c 2.978,0 5.511,1.654 6.448,3.964 l 0,0 c 4.727,0.729 6.341,2.252 6.341,2.252 l 0,0 c 0,0 1.233,0.529 2.252,4.77 l 0,0 c 1.019,4.228 -0.841,5.746 -0.841,5.746 l 0,0 c 1.412,1.257 0.794,5.009 0,7.303 l 0,0 c -0.564,1.634 -3.673,2.37 -5.42,2.659 l 0,0 c -0.275,0.229 -0.571,0.463 -0.888,0.699 l 0,0 c -0.099,0.057 -10.07,5.693 -23.687,5.693 l 0,0 c -8.397,0 -16.414,-2.1 -23.859,-6.239 m -3.592,-8.018 c -0.695,2.365 0.459,4.408 0.736,4.849 l 0,0 c 8.218,5.427 17.218,8.177 26.715,8.177 l 0,0 c 13.273,0 22.975,-5.478 23.012,-5.49 l 0,0 c 2.106,-1.565 3.179,-3.022 3.103,-4.203 l 0,0 C 94.76,63.609 94.26,63.108 93.956,62.869 l 0,0 c -2.03,0.91 -13.222,5.628 -27.294,5.378 l 0,0 C 52.881,68.013 45.4,60.791 44.226,59.563 l 0,0 c -0.113,-0.016 -0.274,-0.028 -0.464,-0.028 l 0,0 c -0.858,0 -1.996,0.267 -2.519,1.478 m 6.11,-2.78 c 2.235,2.082 8.608,6.852 20.108,6.852 l 0,0 c 5.263,0 10.998,-0.998 17.062,-2.967 l 0,0 C 83.935,61.706 83.06,61.171 81.955,60.704 l 0,0 C 80.035,59.889 59.379,58.215 49.022,58.215 l 0,0 c -0.598,0 -1.155,0.006 -1.669,0.018 M 80.215,48.088 c 0,2.262 1.979,4.103 4.41,4.103 l 0,0 c 2.434,0 4.412,-1.841 4.412,-4.103 l 0,0 c 0,-2.262 -1.978,-4.106 -4.412,-4.106 l 0,0 c -2.432,0 -4.41,1.844 -4.41,4.106 m -50.555,0 c 0,2.262 1.979,4.103 4.41,4.103 l 0,0 c 2.432,0 4.411,-1.841 4.411,-4.103 l 0,0 c 0,-2.262 -1.979,-4.106 -4.411,-4.106 l 0,0 c -2.431,0 -4.41,1.844 -4.41,4.106"/></g></g></g></g><g id="g3971"><g id="g3973" clip-path="url(#clipPath3975)"><g id="g3979" transform="translate(93.9551,62.8682)"><path style="fill:none;stroke:#292929;stroke-opacity:1;stroke-width:4;stroke-linecap:butt;stroke-linejoin:miter;stroke-miterlimit:10;stroke-dasharray:none" id="path3981" d="m 0,0 c -2.029,0.911 -13.221,5.629 -27.293,5.379 -13.781,-0.234 -21.263,-7.456 -22.436,-8.685 -0.114,-0.015 -0.274,-0.027 -0.464,-0.027 -0.858,0 -1.995,0.268 -2.519,1.478 -0.696,2.365 0.459,4.408 0.735,4.849 8.219,5.427 17.218,8.177 26.716,8.177 13.273,0 22.976,-5.478 23.011,-5.49 C -0.143,4.116 0.93,2.659 0.854,1.478 0.805,0.741 0.305,0.24 0,0 z m -9.33,-18.886 c -2.432,0 -4.41,1.844 -4.41,4.106 0,2.261 1.979,4.103 4.41,4.103 2.434,0 4.412,-1.842 4.412,-4.103 0,-2.262 -1.978,-4.106 -4.412,-4.106 z m -35.603,14.233 c -0.598,0 -1.155,0.006 -1.67,0.017 2.236,2.083 8.609,6.853 20.109,6.853 5.263,0 10.998,-0.998 17.062,-2.967 -0.589,-0.412 -1.463,-0.947 -2.568,-1.414 -1.92,-0.815 -22.576,-2.489 -32.933,-2.489 z m -14.952,-14.233 c -2.431,0 -4.41,1.844 -4.41,4.106 0,2.261 1.979,4.103 4.41,4.103 2.432,0 4.411,-1.842 4.411,-4.103 0,-2.262 -1.979,-4.106 -4.411,-4.106 z M 4.733,-3.952 c 1.413,1.257 0.795,5.009 0,7.304 -0.563,1.632 -3.672,2.369 -5.42,2.658 -0.274,0.229 -0.57,0.464 -0.887,0.699 -0.1,0.057 -10.07,5.692 -23.687,5.692 -8.397,0 -16.414,-2.099 -23.859,-6.238 -12.917,-0.061 -20.833,-5.603 -23.148,-10.662 -0.229,-0.504 -0.389,-0.998 -0.489,-1.486 -0.937,-4.573 3.312,-8.432 3.312,-9.629 0,-1.074 2.674,-1.623 3.681,-1.793 1.125,-1.944 3.438,-3.278 6.109,-3.278 2.715,0 4.999,0.875 6.104,2.868 1.165,0 5.54,0.88 5.54,0.88 0,0 12.712,0.088 22.405,0.266 9.362,0.174 10.292,-1.103 10.341,-1.217 1.195,-1.732 3.304,-2.797 5.799,-2.797 2.978,0 5.511,1.655 6.447,3.965 4.728,0.729 6.342,2.252 6.342,2.252 0,0 1.234,0.53 2.252,4.77 1.019,4.228 -0.842,5.746 -0.842,5.746 z"/></g></g></g><g id="g3983"><g id="g3985"><g id="g3991"><g id="g3993"><path style="fill:url(#radialGradient3995);stroke:none" id="path4013" d="M 44.835,69.031 C 31.919,68.97 24.002,63.428 21.687,58.37 l 0,0 c -0.228,-0.504 -0.388,-0.999 -0.488,-1.487 l 0,0 c -0.938,-4.572 3.312,-8.431 3.312,-9.629 l 0,0 c 0,-1.074 2.673,-1.623 3.681,-1.793 l 0,0 c 1.125,-1.943 3.438,-3.277 6.108,-3.277 l 0,0 c 2.714,0 4.999,0.875 6.105,2.866 l 0,0 c 1.164,0 5.539,0.882 5.539,0.882 l 0,0 c 0,0 12.713,0.088 22.405,0.265 l 0,0 C 77.71,46.371 78.64,45.094 78.691,44.98 l 0,0 c 1.194,-1.732 3.304,-2.796 5.798,-2.796 l 0,0 c 2.978,0 5.511,1.654 6.448,3.964 l 0,0 c 4.727,0.729 6.341,2.252 6.341,2.252 l 0,0 c 0,0 1.233,0.529 2.252,4.77 l 0,0 c 1.019,4.228 -0.841,5.746 -0.841,5.746 l 0,0 c 1.412,1.257 0.794,5.009 0,7.303 l 0,0 c -0.564,1.634 -3.673,2.37 -5.42,2.659 l 0,0 c -0.275,0.229 -0.571,0.463 -0.888,0.699 l 0,0 c -0.099,0.057 -10.07,5.693 -23.687,5.693 l 0,0 c -8.397,0 -16.414,-2.1 -23.859,-6.239 m -3.592,-8.018 c -0.695,2.365 0.459,4.408 0.736,4.849 l 0,0 c 8.218,5.427 17.218,8.177 26.715,8.177 l 0,0 c 13.273,0 22.975,-5.478 23.012,-5.49 l 0,0 c 2.106,-1.565 3.179,-3.022 3.103,-4.203 l 0,0 C 94.76,63.609 94.26,63.108 93.956,62.869 l 0,0 c -2.03,0.91 -13.222,5.628 -27.294,5.378 l 0,0 C 52.881,68.013 45.4,60.791 44.226,59.563 l 0,0 c -0.113,-0.016 -0.274,-0.028 -0.464,-0.028 l 0,0 c -0.858,0 -1.996,0.267 -2.519,1.478 m 6.11,-2.78 c 2.235,2.082 8.608,6.852 20.108,6.852 l 0,0 c 5.263,0 10.998,-0.998 17.062,-2.967 l 0,0 C 83.935,61.706 83.06,61.171 81.955,60.704 l 0,0 C 80.035,59.889 59.379,58.215 49.022,58.215 l 0,0 c -0.598,0 -1.155,0.006 -1.669,0.018"/></g></g></g></g><g id="g4015"><g id="g4017" clip-path="url(#clipPath4019)"><g id="g4023"><g id="g4053" mask="url(#mask4041)"><g id="g4055"><path style="fill:url(#linearGradient4057);stroke:none" id="path4065" d="m 2.397,54.74 0.986,-9.888 20.436,8.65 -0.406,1.742 L 2.397,54.74 z"/></g></g></g></g></g><g id="g4067"><g id="g4069" clip-path="url(#clipPath4071)"><g id="g4075" transform="translate(34.0703,43.9824)"><path style="fill:#292929;fill-opacity:1;fill-rule:nonzero;stroke:none" id="path4077" d="m 0,0 c -2.432,0 -4.411,1.844 -4.411,4.105 0,2.262 1.979,4.104 4.411,4.104 2.432,0 4.411,-1.842 4.411,-4.104 C 4.411,1.844 2.432,0 0,0"/></g><g id="g4079" transform="translate(84.625,43.9824)"><path style="fill:#292929;fill-opacity:1;fill-rule:nonzero;stroke:none" id="path4081" d="m 0,0 c -2.432,0 -4.41,1.844 -4.41,4.105 0,2.262 1.979,4.104 4.41,4.104 2.434,0 4.412,-1.842 4.412,-4.104 C 4.412,1.844 2.434,0 0,0"/></g><g id="g4083"><g id="g4153"><g id="g4155" clip-path="url(#clipPath4087)" opacity=".5"><g id="g4157"><g id="g4159" clip-path="url(#clipPath4091)"><g id="g4161"><g id="g4165" mask="url(#mask4113)"><g id="g4169"><g id="g4171" clip-path="url(#clipPath4139)"><g id="g4173"><g id="g4175"><g id="g4177"><g id="g4179"><path style="fill:url(#linearGradient4147);stroke:none" id="path4181" d="M -40.713,86.183 35.75,-22.248 150.664,49.902 74.199,158.333 -40.713,86.183 z"/></g></g></g></g></g></g></g></g></g></g></g></g></g></g></g></g></svg>