<svg xmlns="http://www.w3.org/2000/svg" xmlns:svg="http://www.w3.org/2000/svg" xmlns:xlink="http://www.w3.org/1999/xlink" id="svg3503" width="61.594" height="23.615" x="0" y="0" enable-background="new 0 0 61.594 23.615" version="1.1" viewBox="0 0 61.594 23.615" xml:space="preserve"><g id="g3511" transform="matrix(1.25,0,0,-1.25,-351.73875,506.4775)"><g id="g3545"><g id="g3547"><g id="g3553"><g id="g3555"><linearGradient id="path3563_1_" x1="232.479" x2="233.479" y1="372.581" y2="372.581" gradientTransform="matrix(0 23.6145 -23.6145 0 9104.335 -5103.5791)" gradientUnits="userSpaceOnUse"><stop offset="0" style="stop-color:#747576"/><stop offset="1" style="stop-color:#373536"/></linearGradient><path id="path3563" fill="url(#path3563_1_)" d="M289.264,405.182 c-4.339,0-7.873-4.237-7.873-9.445l0,0c0-5.211,3.534-9.447,7.873-9.447l0,0h33.529c4.342,0,7.873,4.237,7.873,9.447l0,0 c0,5.208-3.531,9.445-7.873,9.445l0,0H289.264z"/></g></g></g></g><g id="g3565"><g id="g3567"><g id="g3573"><g id="g3575"><linearGradient id="path3583_1_" x1="231.622" x2="232.622" y1="398.355" y2="398.355" gradientTransform="matrix(0 21.7419 21.7419 0 -8354.9883 -4648.8677)" gradientUnits="userSpaceOnUse"><stop offset="0" style="stop-color:#747576"/><stop offset="1" style="stop-color:#373536"/></linearGradient><path id="path3583" fill="url(#path3583_1_)" d="M289.264,404.434 c-3.924,0-7.12-3.903-7.12-8.696l0,0c0-4.795,3.196-8.697,7.12-8.697l0,0h33.529c3.927,0,7.122,3.902,7.122,8.697l0,0 c0,4.793-3.195,8.696-7.122,8.696l0,0H289.264z"/></g></g></g></g><g id="g3585"><g id="g3587"><g id="g3593"><g id="g3595"><linearGradient id="path3605_1_" x1="230.924" x2="231.924" y1="399.221" y2="399.221" gradientTransform="matrix(0 20.4236 20.4236 0 -7847.5044 -4328.7349)" gradientUnits="userSpaceOnUse"><stop offset="0" style="stop-color:#373536"/><stop offset=".995" style="stop-color:#747576"/><stop offset="1" style="stop-color:#747576"/></linearGradient><path id="path3605" fill="url(#path3605_1_)" d="M289.264,403.906 c-3.661,0-6.644-3.665-6.644-8.168l0,0c0-4.505,2.982-8.17,6.644-8.17l0,0h33.529c3.666,0,6.641,3.665,6.641,8.17l0,0 c0,4.503-2.975,8.168-6.641,8.168l0,0H289.264z"/></g></g></g></g><g id="g3607"><g><defs><rect id="SVGID_1_" width="765" height="990" x="-76.5" y="-99"/></defs><clipPath id="SVGID_2_"><use overflow="visible" xlink:href="#SVGID_1_"/></clipPath><g id="g3609" clip-path="url(#SVGID_2_)"><g id="g3615" transform="translate(297.3105,391.9668)"><path id="path3617" fill="#FFF" d="M0,0v3.645h-3.046V0h-1.323v8.363h1.323v-3.37H0v3.37 h1.323V0H0z"/></g><g id="g3619" transform="translate(300.627,391.9668)"><path id="path3621" fill="#FFF" d="M0,0v8.363h4.931V7.04H1.324V4.993h2.435V3.645H1.324 V1.35h3.87V0.001L0,0L0,0z"/></g><g id="g3623" transform="translate(310.0488,398.0078)"><path id="path3625" fill="#FFF" d="M0,0l-0.861-2.346h1.673L0,0z M2.109-6.041 L1.286-3.693h-2.609l-0.823-2.348h-1.411l2.884,8.363h1.311l2.884-8.363H2.109z"/></g><g id="g3627" transform="translate(317.3223,399.1567)"><path id="path3629" fill="#FFF" d="M0,0V-7.19h-1.323V0h-1.909v1.173h5.168V0H0z"/></g></g></g></g></g></svg>