<svg xmlns="http://www.w3.org/2000/svg" xmlns:svg="http://www.w3.org/2000/svg" id="svg2" width="151.25" height="151.25" version="1.1" xml:space="preserve"><metadata id="metadata8"/><defs id="defs6"><linearGradient id="linearGradient24" x1="0" x2="1" y1="0" y2="0" gradientTransform="matrix(0,121.29248,-121.29248,0,60.530273,-0.2851562)" gradientUnits="userSpaceOnUse" spreadMethod="pad"><stop style="stop-opacity:1;stop-color:#4d4d4f" id="stop26" offset="0"/><stop style="stop-opacity:1;stop-color:#48484a" id="stop28" offset=".397"/><stop style="stop-opacity:1;stop-color:#363737" id="stop30" offset=".789"/><stop style="stop-opacity:1;stop-color:#292929" id="stop32" offset="1"/></linearGradient><linearGradient id="linearGradient48" x1="0" x2="1" y1="0" y2="0" gradientTransform="matrix(0,112.05225,-112.05225,0,60.529297,4.3320312)" gradientUnits="userSpaceOnUse" spreadMethod="pad"><stop style="stop-opacity:1;stop-color:#292929" id="stop50" offset="0"/><stop style="stop-opacity:1;stop-color:#363737" id="stop52" offset=".211"/><stop style="stop-opacity:1;stop-color:#48484a" id="stop54" offset=".603"/><stop style="stop-opacity:1;stop-color:#4d4d4f" id="stop56" offset="1"/></linearGradient><linearGradient id="linearGradient72" x1="0" x2="1" y1="0" y2="0" gradientTransform="matrix(112.05176,0,0,112.05176,4.5029297,88.030273)" gradientUnits="userSpaceOnUse" spreadMethod="pad"><stop style="stop-opacity:1;stop-color:#292929" id="stop74" offset="0"/><stop style="stop-opacity:1;stop-color:#657178" id="stop76" offset=".13"/><stop style="stop-opacity:1;stop-color:#7e9dab" id="stop78" offset=".266"/><stop style="stop-opacity:1;stop-color:#85bbd4" id="stop80" offset=".379"/><stop style="stop-opacity:1;stop-color:#84cded" id="stop82" offset=".462"/><stop style="stop-opacity:1;stop-color:#84d4f7" id="stop84" offset=".508"/><stop style="stop-opacity:1;stop-color:#292929" id="stop86" offset="1"/></linearGradient><linearGradient id="linearGradient102" x1="0" x2="1" y1="0" y2="0" gradientTransform="matrix(112.05176,0,0,-112.05176,4.5029297,32.685547)" gradientUnits="userSpaceOnUse" spreadMethod="pad"><stop style="stop-opacity:1;stop-color:#292929" id="stop104" offset="0"/><stop style="stop-opacity:1;stop-color:#657178" id="stop106" offset=".13"/><stop style="stop-opacity:1;stop-color:#7e9dab" id="stop108" offset=".266"/><stop style="stop-opacity:1;stop-color:#85bbd4" id="stop110" offset=".379"/><stop style="stop-opacity:1;stop-color:#84cded" id="stop112" offset=".462"/><stop style="stop-opacity:1;stop-color:#84d4f7" id="stop114" offset=".508"/><stop style="stop-opacity:1;stop-color:#292929" id="stop116" offset="1"/></linearGradient><radialGradient id="radialGradient132" cx="0" cy="0" r="1" fx="0" fy="0" gradientTransform="matrix(72.243652,0,0,72.243652,36.919922,98.985352)" gradientUnits="userSpaceOnUse" spreadMethod="pad"><stop style="stop-opacity:1;stop-color:#2a7ea9" id="stop134" offset="0"/><stop style="stop-opacity:1;stop-color:#2881ac" id="stop136" offset=".016"/><stop style="stop-opacity:1;stop-color:#2795c1" id="stop138" offset=".144"/><stop style="stop-opacity:1;stop-color:#27a7d2" id="stop140" offset=".281"/><stop style="stop-opacity:1;stop-color:#3bb7e0" id="stop142" offset=".425"/><stop style="stop-opacity:1;stop-color:#56c4ee" id="stop144" offset=".581"/><stop style="stop-opacity:1;stop-color:#67cbf3" id="stop146" offset=".758"/><stop style="stop-opacity:1;stop-color:#6ccef5" id="stop148" offset="1"/></radialGradient><clipPath id="clipPath156" clipPathUnits="userSpaceOnUse"><path id="path158" d="M 0,121 121,121 121,0 0,0 0,121 z"/></clipPath><radialGradient id="radialGradient176" cx="0" cy="0" r="1" fx="0" fy="0" gradientTransform="matrix(72.243652,0,0,72.243652,36.919922,98.985352)" gradientUnits="userSpaceOnUse" spreadMethod="pad"><stop style="stop-opacity:1;stop-color:#2a7ea9" id="stop178" offset="0"/><stop style="stop-opacity:1;stop-color:#2881ac" id="stop180" offset=".016"/><stop style="stop-opacity:1;stop-color:#2795c1" id="stop182" offset=".144"/><stop style="stop-opacity:1;stop-color:#27a7d2" id="stop184" offset=".281"/><stop style="stop-opacity:1;stop-color:#3bb7e0" id="stop186" offset=".425"/><stop style="stop-opacity:1;stop-color:#56c4ee" id="stop188" offset=".581"/><stop style="stop-opacity:1;stop-color:#67cbf3" id="stop190" offset=".758"/><stop style="stop-opacity:1;stop-color:#6ccef5" id="stop192" offset="1"/></radialGradient><clipPath id="clipPath200" clipPathUnits="userSpaceOnUse"><path id="path202" d="M 0,121 121,121 121,0 0,0 0,121 z"/></clipPath><clipPath id="clipPath212" clipPathUnits="userSpaceOnUse"><path id="path214" d="m -40.8662,157.494 191.3762,0 0,-180.5858 -191.3762,0 0,180.5858 z"/></clipPath><clipPath id="clipPath216" clipPathUnits="userSpaceOnUse"><path id="path218" d="m 5.049,58.296 c 0,-14.813 6.051,-28.061 15.473,-38.066 4.898,40.443 39.03,71.893 80.792,71.893 1.125,0 2.17,-0.228 3.281,-0.27 -10.217,13.286 -25.63,22.319 -43.676,22.319 C 30.075,114.173 5.049,89.15 5.049,58.296"/></clipPath><clipPath id="clipPath220" clipPathUnits="userSpaceOnUse"><path id="path222" d="m -40.8662,157.494 191.3762,0 0,-180.5858 -191.3762,0 0,180.5858 z"/></clipPath><clipPath id="clipPath224" clipPathUnits="userSpaceOnUse"><path id="path226" d="m -40.8662,157.494 191.3762,0 0,-180.5858 -191.3762,0 0,180.5858 z"/></clipPath><linearGradient id="linearGradient232" x1="0" x2="1" y1="0" y2="0" gradientTransform="matrix(38.51236,-54.613586,57.878555,36.339859,18.9375,118.03906)" gradientUnits="userSpaceOnUse" spreadMethod="pad"><stop style="stop-opacity:1;stop-color:#fff" id="stop234" offset="0"/><stop style="stop-opacity:1;stop-color:#292929" id="stop236" offset="1"/></linearGradient><mask id="mask238" width="1" height="1" x="0" y="0" maskUnits="userSpaceOnUse"><g id="g240"><g id="g242" clip-path="url(#clipPath220)"><path style="fill:#000;fill-opacity:1;fill-rule:nonzero;stroke:none" id="path244" d="m -40.866,157.494 191.376,0 0,-180.586 -191.376,0 0,180.586 z"/><g id="g246"><g id="g250"><g id="g252" clip-path="url(#clipPath224)"><g id="g254"><g id="g256"><g id="g258"><g id="g260"><path style="fill:url(#linearGradient232);stroke:none" id="path262" d="m 5.049,58.296 c 0,-14.812 6.051,-28.06 15.473,-38.066 l 0,0 c 4.898,40.443 39.03,71.893 80.793,71.893 l 0,0 c 1.125,0 2.17,-0.228 3.279,-0.271 l 0,0 c -10.216,13.287 -25.629,22.32 -43.675,22.32 l 0,0 C 30.074,114.173 5.049,89.15 5.049,58.296"/></g></g></g></g></g></g></g></g></g></mask><clipPath id="clipPath264" clipPathUnits="userSpaceOnUse"><path id="path266" d="m -40.8662,157.494 191.3762,0 0,-180.5858 -191.3762,0 0,180.5858 z"/></clipPath><linearGradient id="linearGradient272" x1="0" x2="1" y1="0" y2="0" gradientTransform="matrix(38.51236,-54.613586,57.878555,36.339859,18.9375,118.03906)" gradientUnits="userSpaceOnUse" spreadMethod="pad"><stop style="stop-opacity:1;stop-color:#fff" id="stop274" offset="0"/><stop style="stop-opacity:1;stop-color:#fff" id="stop276" offset="1"/></linearGradient></defs><g id="g10" transform="matrix(1.25,0,0,-1.25,0,151.25)"><g id="g12"><g id="g14"><g id="g20"><g id="g22"><path style="fill:url(#linearGradient24);stroke:none" id="path34" d="M 59.53,121 C 27.76,120.487 1.926,95.537 0,64.129 l 0,0 0,-7.536 C 1.825,26.817 25.131,2.855 54.61,0 l 0,0 11.84,0 C 95.644,2.827 118.775,26.345 121,55.712 l 0,0 0,9.297 C 118.651,96.003 93.004,120.49 61.526,121 l 0,0 -1.996,0 z"/></g></g></g></g><g id="g36"><g id="g38"><g id="g44"><g id="g46"><path style="fill:url(#linearGradient48);stroke:none" id="path58" d="M 4.503,60.36 C 4.503,29.469 29.637,4.331 60.529,4.331 l 0,0 c 30.897,0 56.026,25.138 56.026,56.029 l 0,0 c 0,30.892 -25.129,56.023 -56.026,56.023 l 0,0 C 29.638,116.383 4.503,91.256 4.503,60.36"/></g></g></g></g><g id="g60"><g id="g62"><g id="g68"><g id="g70"><path style="fill:url(#linearGradient72);stroke:none" id="path88" d="m 4.503,60.361 c 0,-0.234 0.03,-0.452 0.037,-0.687 l 0,0 c 0.372,30.569 25.332,55.336 55.989,55.336 l 0,0 c 30.663,0 55.615,-24.767 55.99,-55.336 l 0,0 c 0.007,0.234 0.036,0.452 0.036,0.687 l 0,0 c 0,30.897 -25.129,56.026 -56.026,56.026 l 0,0 C 29.637,116.387 4.503,91.256 4.503,60.361"/></g></g></g></g><g id="g90"><g id="g92"><g id="g98"><g id="g100"><path style="fill:url(#linearGradient102);stroke:none" id="path118" d="M 60.529,5.703 C 29.872,5.703 4.912,30.465 4.54,61.041 l 0,0 C 4.533,60.809 4.503,60.587 4.503,60.353 l 0,0 C 4.503,29.456 29.637,4.329 60.529,4.329 l 0,0 c 30.897,0 56.026,25.127 56.026,56.024 l 0,0 c 0,0.234 -0.029,0.456 -0.036,0.688 l 0,0 C 116.144,30.467 91.192,5.703 60.529,5.703"/></g></g></g></g><g id="g120"><g id="g122"><g id="g128"><g id="g130"><path style="fill:url(#radialGradient132);stroke:none" id="path150" d="m 60.777,94.434 c -2.728,-0.129 -5.189,-0.396 -7.433,-1.006 l 0,0 c -2.232,-0.608 -4.263,-1.32 -6.172,-2.236 l 0,0 C 43.366,89.368 40.225,86.978 37.44,84.137 l 0,0 c -2.823,-2.88 -4.984,-6.118 -6.707,-10.078 l 0,0 c -0.836,-1.92 -1.55,-4.052 -2.016,-6.36 l 0,0 c -0.478,-2.355 -0.662,-4.947 -0.662,-7.685 l 0,0 c 0,-2.619 0.441,-5.132 1.009,-7.369 l 0,0 c 1.685,-6.649 5.046,-11.899 9.258,-15.939 l 0,0 c 4.339,-4.151 9.568,-7.155 16.472,-8.72 l 0,0 c 2.339,-0.532 4.919,-0.694 7.715,-0.694 l 0,0 c 2.549,0 5.049,0.475 7.337,1.039 l 0,0 c 6.686,1.652 11.932,5.036 15.971,9.229 l 0,0 c 2.775,2.885 4.962,6.173 6.707,10.077 l 0,0 c 1.757,3.936 2.707,8.506 2.707,14.077 l 0,0 c 0,1.292 -0.136,2.61 -0.345,3.843 l 0,0 c -0.21,1.216 -0.372,2.399 -0.663,3.526 l 0,0 c -1.176,4.514 -3.036,8.207 -5.354,11.433 l 0,0 c -2.334,3.248 -5.209,6.026 -8.535,8.251 l 0,0 c -4.18,2.793 -9.124,4.885 -15.465,5.542 l 0,0 c -0.934,0.097 -2.021,0.149 -3.008,0.149 l 0,0 c -0.381,0 -0.747,-0.008 -1.084,-0.024 M 45.251,79.475 c 1.887,1.736 4.107,3.106 6.582,4.189 l 0,0 c 1.259,0.551 2.611,1.014 4.031,1.355 l 0,0 c 1.469,0.352 3.157,0.601 4.85,0.662 l 0,0 c 3.621,0.125 6.905,-0.555 9.668,-1.575 l 0,0 c 2.737,-1.013 5.126,-2.508 7.119,-4.159 l 0,0 c 3.065,-2.537 5.53,-5.797 7.148,-9.793 l 0,0 c 0.49,-1.218 0.921,-2.535 1.173,-3.933 l 0,0 c -1.136,0.543 -4.778,1.442 -7.238,2.019 l 0,0 C 74.339,72 63.173,72.675 61.771,72.743 l 0,0 L 61.21,72.74 C 59.833,72.675 48.371,71.982 44.266,68.082 l 0,0 C 41.939,67.558 38.46,66.718 37.439,66.188 l 0,0 c 1.21,5.708 4.16,9.93 7.812,13.287 M 68.394,42.881 c 0.358,1.576 5.373,8.168 7.449,9.957 l 0,0 c 0.981,0.848 3.311,2.061 5.638,3.184 l 0,0 c 0.688,0.293 1.375,0.593 2.065,0.878 l 0,0 c 0.868,0.361 1.746,0.729 2.615,1.104 l 0,0 c 0.023,0.006 0.028,-0.014 0.03,-0.031 l 0,0 c 0.024,-0.782 -0.125,-1.556 -0.282,-2.272 l 0,0 C 84.49,49.238 81.015,44.598 76.587,41.117 l 0,0 c -0.746,-0.584 -1.549,-1.094 -2.363,-1.603 l 0,0 c -0.275,-0.173 -0.587,-0.276 -0.881,-0.441 l 0,0 c -1.817,-1.02 -3.873,-1.838 -6.121,-2.329 l 0,0 c 0.308,2.617 0.91,4.986 1.172,6.137 m -24.497,0.726 c -1.762,1.76 -3.266,3.801 -4.441,6.141 l 0,0 c -0.867,1.728 -1.603,3.729 -2.078,5.857 l 0,0 c -0.162,0.728 -0.217,1.516 -0.38,2.299 l 0,0 c 0.02,0.045 0.051,0.078 0.096,0.096 l 0,0 0.062,0 c 1.772,-0.781 3.524,-1.523 5.271,-2.264 l 0,0 c 2.121,-1.039 4.151,-2.125 5.051,-2.898 l 0,0 c 2.077,-1.79 7.092,-8.382 7.449,-9.957 l 0,0 c 0.261,-1.146 0.861,-3.512 1.17,-6.121 l 0,0 c -5.161,1.125 -9.09,3.735 -12.2,6.847"/></g></g></g></g><g id="g152"><g id="g154" clip-path="url(#clipPath156)"><g id="g160" transform="translate(85.9082,55.7012)"><path style="fill:none;stroke:#292929;stroke-opacity:1;stroke-width:4;stroke-linecap:butt;stroke-linejoin:miter;stroke-miterlimit:10;stroke-dasharray:none" id="path162" d="m 0,0 c -1.418,-6.463 -4.893,-11.104 -9.321,-14.584 -0.746,-0.584 -1.55,-1.094 -2.364,-1.604 -0.274,-0.172 -0.586,-0.275 -0.88,-0.441 -1.818,-1.019 -3.873,-1.838 -6.122,-2.328 0.308,2.617 0.911,4.986 1.172,6.138 0.359,1.575 5.373,8.167 7.45,9.956 0.981,0.847 3.311,2.061 5.637,3.184 0.689,0.292 1.375,0.592 2.066,0.877 0.868,0.362 1.746,0.73 2.614,1.105 C 0.275,2.31 0.281,2.288 0.283,2.272 0.308,1.489 0.158,0.716 0,0 z m -42.011,-12.095 c -1.761,1.761 -3.266,3.802 -4.442,6.142 -0.866,1.728 -1.602,3.729 -2.077,5.856 -0.162,0.729 -0.218,1.517 -0.38,2.3 0.019,0.045 0.052,0.077 0.097,0.096 l 0.062,0 c 1.771,-0.78 3.522,-1.524 5.27,-2.264 2.121,-1.039 4.15,-2.125 5.05,-2.898 2.077,-1.79 7.093,-8.383 7.45,-9.957 0.261,-1.147 0.861,-3.512 1.169,-6.12 -5.161,1.124 -9.089,3.734 -12.199,6.845 z m 1.354,35.869 c 1.887,1.736 4.107,3.106 6.582,4.189 1.259,0.551 2.611,1.015 4.031,1.355 1.469,0.352 3.157,0.601 4.85,0.661 3.621,0.125 6.905,-0.554 9.668,-1.575 2.737,-1.011 5.126,-2.508 7.119,-4.158 3.065,-2.537 5.53,-5.797 7.147,-9.793 0.49,-1.219 0.922,-2.535 1.174,-3.933 -1.137,0.543 -4.778,1.442 -7.238,2.019 -4.245,3.76 -15.411,4.435 -16.813,4.502 l -0.561,-0.002 c -1.377,-0.065 -12.839,-0.758 -16.944,-4.658 -2.327,-0.525 -5.806,-1.364 -6.827,-1.895 1.21,5.709 4.159,9.931 7.812,13.288 z M 8.978,9.855 c -0.209,1.216 -0.372,2.4 -0.664,3.527 -1.174,4.514 -3.035,8.207 -5.353,11.432 -2.334,3.249 -5.209,6.027 -8.535,8.251 -4.18,2.793 -9.124,4.886 -15.465,5.543 -1.295,0.134 -2.885,0.183 -4.092,0.125 -2.728,-0.129 -5.189,-0.396 -7.433,-1.006 -2.232,-0.609 -4.263,-1.321 -6.172,-2.237 -3.806,-1.823 -6.948,-4.214 -9.732,-7.053 -2.824,-2.881 -4.985,-6.119 -6.707,-10.079 -0.836,-1.92 -1.55,-4.052 -2.016,-6.36 -0.477,-2.355 -0.663,-4.947 -0.663,-7.685 0,-2.62 0.441,-5.132 1.01,-7.37 1.684,-6.648 5.046,-11.898 9.258,-15.938 4.338,-4.151 9.567,-7.155 16.472,-8.721 2.339,-0.531 4.919,-0.693 7.715,-0.693 2.549,0 5.048,0.474 7.337,1.039 6.685,1.651 11.931,5.035 15.97,9.228 2.777,2.886 4.963,6.173 6.707,10.078 1.758,3.935 2.707,8.505 2.707,14.077 0,1.292 -0.135,2.61 -0.344,3.842 z"/></g></g></g><g id="g164"><g id="g166"><g id="g172"><g id="g174"><path style="fill:url(#radialGradient176);stroke:none" id="path194" d="m 60.777,94.434 c -2.728,-0.129 -5.189,-0.396 -7.433,-1.006 l 0,0 c -2.232,-0.608 -4.263,-1.32 -6.172,-2.236 l 0,0 C 43.366,89.368 40.225,86.978 37.44,84.137 l 0,0 c -2.823,-2.88 -4.984,-6.118 -6.707,-10.078 l 0,0 c -0.836,-1.92 -1.55,-4.052 -2.016,-6.36 l 0,0 c -0.478,-2.355 -0.662,-4.947 -0.662,-7.685 l 0,0 c 0,-2.619 0.441,-5.132 1.009,-7.369 l 0,0 c 1.685,-6.649 5.046,-11.899 9.258,-15.939 l 0,0 c 4.339,-4.151 9.568,-7.155 16.472,-8.72 l 0,0 c 2.339,-0.532 4.919,-0.694 7.715,-0.694 l 0,0 c 2.549,0 5.049,0.475 7.337,1.039 l 0,0 c 6.686,1.652 11.932,5.036 15.971,9.229 l 0,0 c 2.775,2.885 4.962,6.173 6.707,10.077 l 0,0 c 1.757,3.936 2.707,8.506 2.707,14.077 l 0,0 c 0,1.292 -0.136,2.61 -0.345,3.843 l 0,0 c -0.21,1.216 -0.372,2.399 -0.663,3.526 l 0,0 c -1.176,4.514 -3.036,8.207 -5.354,11.433 l 0,0 c -2.334,3.248 -5.209,6.026 -8.535,8.251 l 0,0 c -4.18,2.793 -9.124,4.885 -15.465,5.542 l 0,0 c -0.934,0.097 -2.021,0.149 -3.008,0.149 l 0,0 c -0.381,0 -0.747,-0.008 -1.084,-0.024 M 45.251,79.475 c 1.887,1.736 4.107,3.106 6.582,4.189 l 0,0 c 1.259,0.551 2.611,1.014 4.031,1.355 l 0,0 c 1.469,0.352 3.157,0.601 4.85,0.662 l 0,0 c 3.621,0.125 6.905,-0.555 9.668,-1.575 l 0,0 c 2.737,-1.013 5.126,-2.508 7.119,-4.159 l 0,0 c 3.065,-2.537 5.53,-5.797 7.148,-9.793 l 0,0 c 0.49,-1.218 0.921,-2.535 1.173,-3.933 l 0,0 c -1.136,0.543 -4.778,1.442 -7.238,2.019 l 0,0 C 74.339,72 63.173,72.675 61.771,72.743 l 0,0 L 61.21,72.74 C 59.833,72.675 48.371,71.982 44.266,68.082 l 0,0 C 41.939,67.558 38.46,66.718 37.439,66.188 l 0,0 c 1.21,5.708 4.16,9.93 7.812,13.287 M 68.394,42.881 c 0.358,1.576 5.373,8.168 7.449,9.957 l 0,0 c 0.981,0.848 3.311,2.061 5.638,3.184 l 0,0 c 0.688,0.293 1.375,0.593 2.065,0.878 l 0,0 c 0.868,0.361 1.746,0.729 2.615,1.104 l 0,0 c 0.023,0.006 0.028,-0.014 0.03,-0.031 l 0,0 c 0.024,-0.782 -0.125,-1.556 -0.282,-2.272 l 0,0 C 84.49,49.238 81.015,44.598 76.587,41.117 l 0,0 c -0.746,-0.584 -1.549,-1.094 -2.363,-1.603 l 0,0 c -0.275,-0.173 -0.587,-0.276 -0.881,-0.441 l 0,0 c -1.817,-1.02 -3.873,-1.838 -6.121,-2.329 l 0,0 c 0.308,2.617 0.91,4.986 1.172,6.137 m -24.497,0.726 c -1.762,1.76 -3.266,3.801 -4.441,6.141 l 0,0 c -0.867,1.728 -1.603,3.729 -2.078,5.857 l 0,0 c -0.162,0.728 -0.217,1.516 -0.38,2.299 l 0,0 c 0.02,0.045 0.051,0.078 0.096,0.096 l 0,0 0.062,0 c 1.772,-0.781 3.524,-1.523 5.271,-2.264 l 0,0 c 2.121,-1.039 4.151,-2.125 5.051,-2.898 l 0,0 c 2.077,-1.79 7.092,-8.382 7.449,-9.957 l 0,0 c 0.261,-1.146 0.861,-3.512 1.17,-6.121 l 0,0 c -5.161,1.125 -9.09,3.735 -12.2,6.847"/></g></g></g></g><g id="g196"><g id="g198" clip-path="url(#clipPath200)"><g id="g204" transform="translate(64.0049,49.8477)"><path style="fill:#292929;fill-opacity:1;fill-rule:nonzero;stroke:none" id="path206" d="m 0,0 -4.458,0 c 0,0 -0.691,0.1 -0.691,0.43 l 0,2.281 -3.805,4.199 0,0.493 0,0.166 13.549,0 0,-0.527 -3.834,-4.396 0,-2.116 C 0.762,0.526 0.794,0 0,0"/></g><g id="g208"><g id="g278"><g id="g280" clip-path="url(#clipPath212)" opacity=".5"><g id="g282"><g id="g284" clip-path="url(#clipPath216)"><g id="g286"><g id="g290" mask="url(#mask238)"><g id="g294"><g id="g296" clip-path="url(#clipPath264)"><g id="g298"><g id="g300"><g id="g302"><g id="g304"><path style="fill:url(#linearGradient272);stroke:none" id="path306" d="M -40.866,85.346 35.597,-23.092 150.51,49.059 74.045,157.494 -40.866,85.346 z"/></g></g></g></g></g></g></g></g></g></g></g></g></g></g></g></g></svg>