<svg xmlns="http://www.w3.org/2000/svg" xmlns:svg="http://www.w3.org/2000/svg" id="svg2" width="52.036" height="52.044" version="1.1" xml:space="preserve"><metadata id="metadata8"/><defs id="defs6"><clipPath id="clipPath16" clipPathUnits="userSpaceOnUse"><path id="path18" d="m 0,1224 1224,0 L 1224,0 0,0 0,1224 z"/></clipPath></defs><g id="g10" transform="matrix(1.25,0,0,-1.25,-493.47838,1030.0089)"><g id="g12"><g id="g14" clip-path="url(#clipPath16)"><g id="g20" transform="translate(415.5957,782.3721)"><path style="fill:#fff;fill-opacity:1;fill-rule:nonzero;stroke:none" id="path22" d="m 0,0 c -11.499,0 -20.813,9.318 -20.813,20.814 0,11.5 9.314,20.821 20.814,20.821 11.496,0 20.817,-9.32 20.815,-20.821 C 20.816,9.321 11.495,0 0,0"/></g><g id="g24" transform="translate(415.7422,822.3359)"><path style="fill:#3b3b3b;fill-opacity:1;fill-rule:nonzero;stroke:none" id="path26" d="m 0,0 c -10.576,0 -19.145,-8.571 -19.145,-19.145 0,-10.569 8.571,-19.145 19.145,-19.145 10.573,0 19.144,8.571 19.146,19.145 C 19.146,-8.571 10.573,0 0,0 m 0.051,-34.145 c -0.861,0 -1.623,0.521 -1.989,1.232 l 3.972,0 C 1.667,-33.64 0.917,-34.145 0.051,-34.145 m 3.394,2.301 c 0,-0.238 -0.178,-0.431 -0.391,-0.431 l -6.017,0 c -0.216,0 -0.395,0.192 -0.395,0.431 l 0,0.399 c 0,0.236 0.179,0.426 0.395,0.426 l 6.02,0 c 0.212,0 0.392,-0.188 0.392,-0.426 l -0.004,-0.399 z m 0,1.836 c 0,-0.237 -0.178,-0.432 -0.391,-0.432 l -6.017,0 c -0.216,0 -0.395,0.193 -0.395,0.432 l 0,0.401 c 0,0.237 0.179,0.427 0.395,0.427 l 6.02,0 c 0.212,0 0.392,-0.188 0.392,-0.427 l -0.004,-0.401 z m 0,1.836 c 0,-0.237 -0.178,-0.433 -0.391,-0.433 l -6.017,0 c -0.216,0 -0.395,0.193 -0.395,0.433 l 0,0.398 c 0,0.236 0.179,0.43 0.395,0.43 l 6.02,0 c 0.212,0 0.392,-0.193 0.392,-0.43 l -0.004,-0.398 z m 1.532,3.617 C 4.699,-26.243 4.303,-26.64 3.028,-26.64 l -2.979,0 -2.979,0 c -1.276,0 -1.673,0.395 -1.947,2.085 -0.338,2.021 -0.816,7.136 -2.247,11.312 l 14.351,0 c -1.641,-5.341 -1.914,-9.291 -2.25,-11.312 m 4.145,16.497 -1.798,-4.638 -14.555,0 -1.839,4.918 c 0,0 -1.305,3.634 9.116,3.634 10.195,0 9.076,-3.914 9.076,-3.914"/></g></g></g></g></svg>