<svg xmlns="http://www.w3.org/2000/svg" xmlns:svg="http://www.w3.org/2000/svg" id="svg3679" width="32.944" height="32.945" version="1.1" xml:space="preserve"><metadata id="metadata3685"/><defs id="defs3683"><linearGradient id="linearGradient3701" x1="0" x2="1" y1="0" y2="0" gradientTransform="matrix(0,26.355469,26.355469,0,612.72217,598.57227)" gradientUnits="userSpaceOnUse" spreadMethod="pad"><stop style="stop-opacity:1;stop-color:#4d4c4e" id="stop3703" offset="0"/><stop style="stop-opacity:1;stop-color:#373535" id="stop3705" offset="1"/></linearGradient><linearGradient id="linearGradient3721" x1="0" x2="1" y1="0" y2="0" gradientTransform="matrix(0,24.347656,24.347656,0,612.72217,599.57617)" gradientUnits="userSpaceOnUse" spreadMethod="pad"><stop style="stop-opacity:1;stop-color:#373535" id="stop3723" offset="0"/><stop style="stop-opacity:1;stop-color:#4d4c4e" id="stop3725" offset="1"/></linearGradient><linearGradient id="linearGradient3741" x1="0" x2="1" y1="0" y2="0" gradientTransform="matrix(24.347656,0,0,-24.347656,600.54785,617.76318)" gradientUnits="userSpaceOnUse" spreadMethod="pad"><stop style="stop-opacity:1;stop-color:#373535" id="stop3743" offset="0"/><stop style="stop-opacity:1;stop-color:#fff" id="stop3745" offset=".508"/><stop style="stop-opacity:1;stop-color:#373535" id="stop3747" offset="1"/></linearGradient><linearGradient id="linearGradient3763" x1="0" x2="1" y1="0" y2="0" gradientTransform="matrix(24.347656,0,0,24.347656,600.54785,605.7373)" gradientUnits="userSpaceOnUse" spreadMethod="pad"><stop style="stop-opacity:1;stop-color:#373535" id="stop3765" offset="0"/><stop style="stop-opacity:1;stop-color:#fff" id="stop3767" offset=".508"/><stop style="stop-opacity:1;stop-color:#373535" id="stop3769" offset="1"/></linearGradient><clipPath id="clipPath3777" clipPathUnits="userSpaceOnUse"><path id="path3779" d="m 0,1224 1224,0 L 1224,0 0,0 0,1224 z"/></clipPath><linearGradient id="linearGradient3797" x1="0" x2="1" y1="0" y2="0" gradientTransform="matrix(12.739258,0,0,-12.739258,606.35254,608.62012)" gradientUnits="userSpaceOnUse" spreadMethod="pad"><stop style="stop-opacity:1;stop-color:#373535" id="stop3799" offset="0"/><stop style="stop-opacity:1;stop-color:#fff" id="stop3801" offset=".508"/><stop style="stop-opacity:1;stop-color:#373535" id="stop3803" offset="1"/></linearGradient><radialGradient id="radialGradient3819" cx="0" cy="0" r="1" fx="0" fy="0" gradientTransform="matrix(12.226974,0,0,-12.226959,608.11328,617.86426)" gradientUnits="userSpaceOnUse" spreadMethod="pad"><stop style="stop-opacity:1;stop-color:#007da8" id="stop3821" offset="0"/><stop style="stop-opacity:1;stop-color:#69cef6" id="stop3823" offset="1"/></radialGradient><linearGradient id="linearGradient3839" x1="0" x2="1" y1="0" y2="0" gradientTransform="matrix(0,26.355469,26.355469,0,612.72217,598.57227)" gradientUnits="userSpaceOnUse" spreadMethod="pad"><stop style="stop-opacity:1;stop-color:#4d4c4e" id="stop3841" offset="0"/><stop style="stop-opacity:1;stop-color:#373535" id="stop3843" offset="1"/></linearGradient><linearGradient id="linearGradient3859" x1="0" x2="1" y1="0" y2="0" gradientTransform="matrix(0,24.347656,24.347656,0,612.72217,599.57617)" gradientUnits="userSpaceOnUse" spreadMethod="pad"><stop style="stop-opacity:1;stop-color:#373535" id="stop3861" offset="0"/><stop style="stop-opacity:1;stop-color:#4d4c4e" id="stop3863" offset="1"/></linearGradient><linearGradient id="linearGradient3879" x1="0" x2="1" y1="0" y2="0" gradientTransform="matrix(24.347656,0,0,-24.347656,600.54785,617.76318)" gradientUnits="userSpaceOnUse" spreadMethod="pad"><stop style="stop-opacity:1;stop-color:#373535" id="stop3881" offset="0"/><stop style="stop-opacity:1;stop-color:#fff" id="stop3883" offset=".508"/><stop style="stop-opacity:1;stop-color:#373535" id="stop3885" offset="1"/></linearGradient><linearGradient id="linearGradient3901" x1="0" x2="1" y1="0" y2="0" gradientTransform="matrix(24.347656,0,0,24.347656,600.54785,605.7373)" gradientUnits="userSpaceOnUse" spreadMethod="pad"><stop style="stop-opacity:1;stop-color:#373535" id="stop3903" offset="0"/><stop style="stop-opacity:1;stop-color:#fff" id="stop3905" offset=".508"/><stop style="stop-opacity:1;stop-color:#373535" id="stop3907" offset="1"/></linearGradient><clipPath id="clipPath3915" clipPathUnits="userSpaceOnUse"><path id="path3917" d="m 0,1224 1224,0 L 1224,0 0,0 0,1224 z"/></clipPath><linearGradient id="linearGradient3935" x1="0" x2="1" y1="0" y2="0" gradientTransform="matrix(12.739258,0,0,-12.739258,606.35254,608.62012)" gradientUnits="userSpaceOnUse" spreadMethod="pad"><stop style="stop-opacity:1;stop-color:#373535" id="stop3937" offset="0"/><stop style="stop-opacity:1;stop-color:#fff" id="stop3939" offset=".508"/><stop style="stop-opacity:1;stop-color:#373535" id="stop3941" offset="1"/></linearGradient><radialGradient id="radialGradient3957" cx="0" cy="0" r="1" fx="0" fy="0" gradientTransform="matrix(12.226974,0,0,-12.226959,608.11328,617.86426)" gradientUnits="userSpaceOnUse" spreadMethod="pad"><stop style="stop-opacity:1;stop-color:#007da8" id="stop3959" offset="0"/><stop style="stop-opacity:1;stop-color:#69cef6" id="stop3961" offset="1"/></radialGradient></defs><g id="g3687" transform="matrix(1.25,0,0,-1.25,-749.43125,781.16)"><g id="g3689"><g id="g3691"><g id="g3697"><g id="g3699"><path style="fill:url(#linearGradient3701);stroke:none" id="path3707" d="m 599.545,611.753 c 0,-7.281 5.9,-13.181 13.178,-13.181 l 0,0 c 7.278,0 13.177,5.9 13.177,13.181 l 0,0 c 0,7.277 -5.899,13.175 -13.177,13.175 l 0,0 c -7.278,0 -13.178,-5.898 -13.178,-13.175"/></g></g></g></g><g id="g3709"><g id="g3711"><g id="g3717"><g id="g3719"><path style="fill:url(#linearGradient3721);stroke:none" id="path3727" d="m 600.547,611.753 c 0,-6.716 5.462,-12.177 12.176,-12.177 l 0,0 c 6.712,0 12.172,5.461 12.172,12.177 l 0,0 c 0,6.711 -5.46,12.171 -12.172,12.171 l 0,0 c -6.714,0 -12.176,-5.46 -12.176,-12.171"/></g></g></g></g><g id="g3729"><g id="g3731"><g id="g3737"><g id="g3739"><path style="fill:url(#linearGradient3741);stroke:none" id="path3749" d="m 600.547,611.753 c 0,-0.054 0.009,-0.1 0.01,-0.151 l 0,0 c 0.082,6.642 5.504,12.023 12.166,12.023 l 0,0 c 6.661,0 12.085,-5.381 12.167,-12.023 l 0,0 c 0,0.051 0.005,0.097 0.005,0.151 l 0,0 c 0,6.711 -5.46,12.171 -12.172,12.171 l 0,0 c -6.714,0 -12.176,-5.46 -12.176,-12.171"/></g></g></g></g><g id="g3751"><g id="g3753"><g id="g3759"><g id="g3761"><path style="fill:url(#linearGradient3763);stroke:none" id="path3771" d="m 612.723,599.875 c -6.662,0 -12.084,5.379 -12.166,12.024 l 0,0 c -10e-4,-0.051 -0.01,-0.1 -0.01,-0.148 l 0,0 c 0,-6.714 5.462,-12.175 12.176,-12.175 l 0,0 c 6.712,0 12.172,5.461 12.172,12.175 l 0,0 c 0,0.048 -0.005,0.097 -0.005,0.148 l 0,0 c -0.082,-6.645 -5.506,-12.024 -12.167,-12.024"/></g></g></g></g><g id="g3773"><g id="g3775" clip-path="url(#clipPath3777)"><g id="g3781" transform="translate(612.7227,605.4336)"><path style="fill:#373535;fill-opacity:1;fill-rule:nonzero;stroke:none" id="path3783" d="m 0,0 c -3.516,0 -6.37,2.854 -6.37,6.372 0,3.511 2.854,6.369 6.37,6.369 3.515,0 6.369,-2.858 6.369,-6.369 C 6.369,2.854 3.515,0 0,0"/></g></g></g><g id="g3785"><g id="g3787"><g id="g3793"><g id="g3795"><path style="fill:url(#linearGradient3797);stroke:none" id="path3805" d="m 612.723,605.759 c -3.443,0 -6.244,2.741 -6.362,6.157 l 0,0 c 0,-0.075 -0.009,-0.15 -0.009,-0.222 l 0,0 c 0,-3.514 2.855,-6.37 6.371,-6.37 l 0,0 c 3.514,0 6.369,2.856 6.369,6.37 l 0,0 c 0,0.072 -0.012,0.147 -0.012,0.222 l 0,0 c -0.116,-3.416 -2.921,-6.157 -6.357,-6.157"/></g></g></g></g><g id="g3807"><g id="g3809"><g id="g3815"><g id="g3817"><path style="fill:url(#radialGradient3819);stroke:none" id="path3825" d="m 606.897,611.806 c 0,-3.222 2.608,-5.832 5.826,-5.832 l 0,0 c 3.216,0 5.824,2.61 5.824,5.832 l 0,0 c 0,3.214 -2.608,5.823 -5.824,5.823 l 0,0 c -3.218,0 -5.826,-2.609 -5.826,-5.823"/></g></g></g></g><g id="g3827"><g id="g3829"><g id="g3835"><g id="g3837"><path style="fill:url(#linearGradient3839);stroke:none" id="path3845" d="m 599.545,611.753 c 0,-7.281 5.9,-13.181 13.178,-13.181 l 0,0 c 7.278,0 13.177,5.9 13.177,13.181 l 0,0 c 0,7.277 -5.899,13.175 -13.177,13.175 l 0,0 c -7.278,0 -13.178,-5.898 -13.178,-13.175"/></g></g></g></g><g id="g3847"><g id="g3849"><g id="g3855"><g id="g3857"><path style="fill:url(#linearGradient3859);stroke:none" id="path3865" d="m 600.547,611.753 c 0,-6.716 5.462,-12.177 12.176,-12.177 l 0,0 c 6.712,0 12.172,5.461 12.172,12.177 l 0,0 c 0,6.711 -5.46,12.171 -12.172,12.171 l 0,0 c -6.714,0 -12.176,-5.46 -12.176,-12.171"/></g></g></g></g><g id="g3867"><g id="g3869"><g id="g3875"><g id="g3877"><path style="fill:url(#linearGradient3879);stroke:none" id="path3887" d="m 600.547,611.753 c 0,-0.054 0.009,-0.1 0.01,-0.151 l 0,0 c 0.082,6.642 5.504,12.023 12.166,12.023 l 0,0 c 6.661,0 12.085,-5.381 12.167,-12.023 l 0,0 c 0,0.051 0.005,0.097 0.005,0.151 l 0,0 c 0,6.711 -5.46,12.171 -12.172,12.171 l 0,0 c -6.714,0 -12.176,-5.46 -12.176,-12.171"/></g></g></g></g><g id="g3889"><g id="g3891"><g id="g3897"><g id="g3899"><path style="fill:url(#linearGradient3901);stroke:none" id="path3909" d="m 612.723,599.875 c -6.662,0 -12.084,5.379 -12.166,12.024 l 0,0 c -10e-4,-0.051 -0.01,-0.1 -0.01,-0.148 l 0,0 c 0,-6.714 5.462,-12.175 12.176,-12.175 l 0,0 c 6.712,0 12.172,5.461 12.172,12.175 l 0,0 c 0,0.048 -0.005,0.097 -0.005,0.148 l 0,0 c -0.082,-6.645 -5.506,-12.024 -12.167,-12.024"/></g></g></g></g><g id="g3911"><g id="g3913" clip-path="url(#clipPath3915)"><g id="g3919" transform="translate(612.7227,605.4336)"><path style="fill:#373535;fill-opacity:1;fill-rule:nonzero;stroke:none" id="path3921" d="m 0,0 c -3.516,0 -6.37,2.854 -6.37,6.372 0,3.511 2.854,6.369 6.37,6.369 3.515,0 6.369,-2.858 6.369,-6.369 C 6.369,2.854 3.515,0 0,0"/></g></g></g><g id="g3923"><g id="g3925"><g id="g3931"><g id="g3933"><path style="fill:url(#linearGradient3935);stroke:none" id="path3943" d="m 612.723,605.759 c -3.443,0 -6.244,2.741 -6.362,6.157 l 0,0 c 0,-0.075 -0.009,-0.15 -0.009,-0.222 l 0,0 c 0,-3.514 2.855,-6.37 6.371,-6.37 l 0,0 c 3.514,0 6.369,2.856 6.369,6.37 l 0,0 c 0,0.072 -0.012,0.147 -0.012,0.222 l 0,0 c -0.116,-3.416 -2.921,-6.157 -6.357,-6.157"/></g></g></g></g><g id="g3945"><g id="g3947"><g id="g3953"><g id="g3955"><path style="fill:url(#radialGradient3957);stroke:none" id="path3963" d="m 606.897,611.806 c 0,-3.222 2.608,-5.832 5.826,-5.832 l 0,0 c 3.216,0 5.824,2.61 5.824,5.832 l 0,0 c 0,3.214 -2.608,5.823 -5.824,5.823 l 0,0 c -3.218,0 -5.826,-2.609 -5.826,-5.823"/></g></g></g></g></g></svg>