<svg xmlns="http://www.w3.org/2000/svg" xmlns:svg="http://www.w3.org/2000/svg" id="svg4993" width="151.25" height="151.25" version="1.1" xml:space="preserve"><metadata id="metadata4999"/><defs id="defs4997"><linearGradient id="linearGradient5015" x1="0" x2="1" y1="0" y2="0" gradientTransform="matrix(0,121.29297,-121.29297,0,60.500977,-0.1464844)" gradientUnits="userSpaceOnUse" spreadMethod="pad"><stop style="stop-opacity:1;stop-color:#4d4d4f" id="stop5017" offset="0"/><stop style="stop-opacity:1;stop-color:#48484a" id="stop5019" offset=".397"/><stop style="stop-opacity:1;stop-color:#363737" id="stop5021" offset=".789"/><stop style="stop-opacity:1;stop-color:#292929" id="stop5023" offset="1"/></linearGradient><linearGradient id="linearGradient5039" x1="0" x2="1" y1="0" y2="0" gradientTransform="matrix(0,112.05273,-112.05273,0,60.499023,4.4707031)" gradientUnits="userSpaceOnUse" spreadMethod="pad"><stop style="stop-opacity:1;stop-color:#292929" id="stop5041" offset="0"/><stop style="stop-opacity:1;stop-color:#363737" id="stop5043" offset=".211"/><stop style="stop-opacity:1;stop-color:#48484a" id="stop5045" offset=".603"/><stop style="stop-opacity:1;stop-color:#4d4d4f" id="stop5047" offset="1"/></linearGradient><linearGradient id="linearGradient5063" x1="0" x2="1" y1="0" y2="0" gradientTransform="matrix(112.05273,0,0,112.05273,4.4716797,88.168945)" gradientUnits="userSpaceOnUse" spreadMethod="pad"><stop style="stop-opacity:1;stop-color:#292929" id="stop5065" offset="0"/><stop style="stop-opacity:1;stop-color:#657178" id="stop5067" offset=".13"/><stop style="stop-opacity:1;stop-color:#7e9dab" id="stop5069" offset=".266"/><stop style="stop-opacity:1;stop-color:#85bbd4" id="stop5071" offset=".379"/><stop style="stop-opacity:1;stop-color:#84cded" id="stop5073" offset=".462"/><stop style="stop-opacity:1;stop-color:#84d4f7" id="stop5075" offset=".508"/><stop style="stop-opacity:1;stop-color:#292929" id="stop5077" offset="1"/></linearGradient><linearGradient id="linearGradient5093" x1="0" x2="1" y1="0" y2="0" gradientTransform="matrix(112.05273,0,0,-112.05273,4.4716797,32.824219)" gradientUnits="userSpaceOnUse" spreadMethod="pad"><stop style="stop-opacity:1;stop-color:#292929" id="stop5095" offset="0"/><stop style="stop-opacity:1;stop-color:#657178" id="stop5097" offset=".13"/><stop style="stop-opacity:1;stop-color:#7e9dab" id="stop5099" offset=".266"/><stop style="stop-opacity:1;stop-color:#85bbd4" id="stop5101" offset=".379"/><stop style="stop-opacity:1;stop-color:#84cded" id="stop5103" offset=".462"/><stop style="stop-opacity:1;stop-color:#84d4f7" id="stop5105" offset=".508"/><stop style="stop-opacity:1;stop-color:#292929" id="stop5107" offset="1"/></linearGradient><clipPath id="clipPath5115" clipPathUnits="userSpaceOnUse"><path id="path5117" d="M 0,121 121,121 121,0 0,0 0,121 z"/></clipPath><radialGradient id="radialGradient5143" cx="0" cy="0" r="1" fx="0" fy="0" gradientTransform="matrix(91.807114,0,0,91.807114,34.082031,102.30176)" gradientUnits="userSpaceOnUse" spreadMethod="pad"><stop style="stop-opacity:1;stop-color:#2a7ea9" id="stop5145" offset="0"/><stop style="stop-opacity:1;stop-color:#2881ac" id="stop5147" offset=".016"/><stop style="stop-opacity:1;stop-color:#2795c1" id="stop5149" offset=".144"/><stop style="stop-opacity:1;stop-color:#27a7d2" id="stop5151" offset=".281"/><stop style="stop-opacity:1;stop-color:#3bb7e0" id="stop5153" offset=".425"/><stop style="stop-opacity:1;stop-color:#56c4ee" id="stop5155" offset=".581"/><stop style="stop-opacity:1;stop-color:#67cbf3" id="stop5157" offset=".758"/><stop style="stop-opacity:1;stop-color:#6ccef5" id="stop5159" offset="1"/></radialGradient><radialGradient id="radialGradient5175" cx="0" cy="0" r="1" fx="0" fy="0" gradientTransform="matrix(91.816238,0,0,91.816238,34.079102,102.30664)" gradientUnits="userSpaceOnUse" spreadMethod="pad"><stop style="stop-opacity:1;stop-color:#2a7ea9" id="stop5177" offset="0"/><stop style="stop-opacity:1;stop-color:#2881ac" id="stop5179" offset=".016"/><stop style="stop-opacity:1;stop-color:#2795c1" id="stop5181" offset=".144"/><stop style="stop-opacity:1;stop-color:#27a7d2" id="stop5183" offset=".281"/><stop style="stop-opacity:1;stop-color:#3bb7e0" id="stop5185" offset=".425"/><stop style="stop-opacity:1;stop-color:#56c4ee" id="stop5187" offset=".581"/><stop style="stop-opacity:1;stop-color:#67cbf3" id="stop5189" offset=".758"/><stop style="stop-opacity:1;stop-color:#6ccef5" id="stop5191" offset="1"/></radialGradient><clipPath id="clipPath5199" clipPathUnits="userSpaceOnUse"><path id="path5201" d="M 0,121 121,121 121,0 0,0 0,121 z"/></clipPath><clipPath id="clipPath5211" clipPathUnits="userSpaceOnUse"><path id="path5213" d="m -40.2734,158.233 191.3764,0 0,-180.5807 -191.3764,0 0,180.5807 z"/></clipPath><clipPath id="clipPath5215" clipPathUnits="userSpaceOnUse"><path id="path5217" d="m 5.642,59.04 c 0,-14.811 6.05,-28.06 15.472,-38.065 4.899,40.442 39.03,71.887 80.791,71.887 1.127,0 2.17,-0.23 3.282,-0.272 C 94.97,105.876 79.556,114.91 61.511,114.91 30.667,114.91 5.642,89.888 5.642,59.04"/></clipPath><clipPath id="clipPath5219" clipPathUnits="userSpaceOnUse"><path id="path5221" d="m -40.2734,158.233 191.3764,0 0,-180.5807 -191.3764,0 0,180.5807 z"/></clipPath><clipPath id="clipPath5223" clipPathUnits="userSpaceOnUse"><path id="path5225" d="m -40.2734,158.233 191.3764,0 0,-180.5807 -191.3764,0 0,180.5807 z"/></clipPath><linearGradient id="linearGradient5231" x1="0" x2="1" y1="0" y2="0" gradientTransform="matrix(38.512527,-54.613815,57.878815,36.340027,19.5,118.85156)" gradientUnits="userSpaceOnUse" spreadMethod="pad"><stop style="stop-opacity:1;stop-color:#fff" id="stop5233" offset="0"/><stop style="stop-opacity:1;stop-color:#292929" id="stop5235" offset="1"/></linearGradient><mask id="mask5237" width="1" height="1" x="0" y="0" maskUnits="userSpaceOnUse"><g id="g5239"><g id="g5241" clip-path="url(#clipPath5219)"><path style="fill:#000;fill-opacity:1;fill-rule:nonzero;stroke:none" id="path5243" d="m -40.273,158.233 191.376,0 0,-180.581 -191.376,0 0,180.581 z"/><g id="g5245"><g id="g5249"><g id="g5251" clip-path="url(#clipPath5223)"><g id="g5253"><g id="g5255"><g id="g5257"><g id="g5259"><path style="fill:url(#linearGradient5231);stroke:none" id="path5261" d="m 5.641,59.04 c 0,-14.811 6.052,-28.059 15.473,-38.065 l 0,0 c 4.899,40.442 39.029,71.887 80.791,71.887 l 0,0 c 1.127,0 2.17,-0.229 3.282,-0.272 l 0,0 C 94.97,105.877 79.555,114.909 61.51,114.909 l 0,0 C 30.667,114.909 5.641,89.888 5.641,59.04"/></g></g></g></g></g></g></g></g></g></mask><clipPath id="clipPath5263" clipPathUnits="userSpaceOnUse"><path id="path5265" d="m -40.2734,158.233 191.3764,0 0,-180.5807 -191.3764,0 0,180.5807 z"/></clipPath><linearGradient id="linearGradient5271" x1="0" x2="1" y1="0" y2="0" gradientTransform="matrix(38.512527,-54.613815,57.878815,36.340027,19.5,118.85156)" gradientUnits="userSpaceOnUse" spreadMethod="pad"><stop style="stop-opacity:1;stop-color:#fff" id="stop5273" offset="0"/><stop style="stop-opacity:1;stop-color:#fff" id="stop5275" offset="1"/></linearGradient></defs><g id="g5001" transform="matrix(1.25,0,0,-1.25,0,151.25)"><g id="g5003"><g id="g5005"><g id="g5011"><g id="g5013"><path style="fill:url(#linearGradient5015);stroke:none" id="path5025" d="M 56.236,121 C 26.134,118.909 2.079,94.843 0,64.737 l 0,0 0,-8.475 C 2.079,26.145 26.142,2.084 56.248,0 l 0,0 8.503,0 C 94.864,2.084 118.921,26.145 121,56.261 l 0,0 0,8.476 C 118.921,94.843 94.866,118.908 64.76,121 l 0,0 -8.524,0 z"/></g></g></g></g><g id="g5027"><g id="g5029"><g id="g5035"><g id="g5037"><path style="fill:url(#linearGradient5039);stroke:none" id="path5049" d="m 4.472,60.499 c 0,-30.892 25.133,-56.03 56.027,-56.03 l 0,0 c 30.899,0 56.026,25.138 56.026,56.03 l 0,0 c 0,30.892 -25.129,56.024 -56.026,56.024 l 0,0 C 29.608,116.523 4.472,91.395 4.472,60.499"/></g></g></g></g><g id="g5051"><g id="g5053"><g id="g5059"><g id="g5061"><path style="fill:url(#linearGradient5063);stroke:none" id="path5079" d="m 4.472,60.5 c 0,-0.234 0.031,-0.453 0.037,-0.688 l 0,0 c 0.373,30.571 25.331,55.337 55.99,55.337 l 0,0 c 30.662,0 55.615,-24.766 55.991,-55.337 l 0,0 c 0.005,0.234 0.035,0.453 0.035,0.688 l 0,0 c 0,30.897 -25.134,56.026 -56.026,56.026 l 0,0 C 29.605,116.526 4.472,91.394 4.472,60.5"/></g></g></g></g><g id="g5081"><g id="g5083"><g id="g5089"><g id="g5091"><path style="fill:url(#linearGradient5093);stroke:none" id="path5109" d="M 60.499,5.842 C 29.84,5.842 4.882,30.604 4.509,61.179 l 0,0 C 4.503,60.947 4.472,60.725 4.472,60.493 l 0,0 C 4.472,29.595 29.605,4.468 60.499,4.468 l 0,0 c 30.892,0 56.026,25.127 56.026,56.025 l 0,0 c 0,0.232 -0.03,0.454 -0.035,0.686 l 0,0 C 116.114,30.605 91.161,5.842 60.499,5.842"/></g></g></g></g><g id="g5111"><g id="g5113" clip-path="url(#clipPath5115)"><path style="fill:#292929;fill-opacity:1;fill-rule:nonzero;stroke:none" id="path5119" d="m 40.724,34.646 41.928,0 0,29.521 -41.928,0 0,-29.521 z"/><path style="fill:#292929;fill-opacity:1;fill-rule:nonzero;stroke:none" id="path5121" d="m 42.524,36.442 38.328,0 0,25.924 -38.328,0 0,-25.924 z m 41.926,-3.599 -45.527,0 0,33.123 45.527,0 0,-33.123 z"/><g id="g5123" transform="translate(47.54,68.3599)"><path style="fill:#292929;fill-opacity:1;fill-rule:nonzero;stroke:none" id="path5125" d="m 0,0 5.041,0 0,10.434 c -0.002,0.04 0.012,4.061 2.545,6.632 1.482,1.506 3.637,2.272 6.441,2.272 2.746,0 4.891,-0.755 6.371,-2.246 2.563,-2.572 2.569,-6.63 2.569,-6.696 l 0,-10.395 5.041,0 0,10.357 c 0.002,0.249 0.043,6.147 -3.996,10.246 -2.467,2.503 -5.824,3.773 -10.032,3.773 -4.158,0 -7.521,-1.27 -9.984,-3.773 C -0.043,16.504 -0.002,10.607 0,10.396 L 0,0 z"/></g><g id="g5127" transform="translate(72.3135,70.1597)"><path style="fill:#292929;fill-opacity:1;fill-rule:nonzero;stroke:none" id="path5129" d="m 0,0 1.438,0 0,8.559 c 0.001,0.079 0.035,5.417 -3.477,8.982 -2.117,2.147 -5.061,3.236 -8.752,3.236 -3.66,0 -6.588,-1.089 -8.703,-3.236 -3.512,-3.562 -3.481,-8.862 -3.479,-8.916 l 0,-8.625 1.44,0 0,8.634 c -0.004,0.008 -0.069,4.719 3.06,7.896 1.836,1.863 4.438,2.808 7.729,2.808 3.242,0 5.812,-0.934 7.646,-2.776 3.008,-3.021 3.096,-7.468 3.096,-7.965 L -0.002,0 0,0 z m 5.039,-3.599 -8.641,0 0,12.196 c 0,0.031 -0.041,3.411 -2.046,5.424 -1.133,1.14 -2.85,1.717 -5.098,1.717 -2.291,0 -4.025,-0.583 -5.16,-1.734 -1.981,-2.01 -2.028,-5.336 -2.028,-5.37 l 0,-12.233 -8.638,0 0,12.196 c -0.004,0.248 -0.063,6.829 4.513,11.471 2.817,2.859 6.608,4.31 11.27,4.31 4.691,0 8.498,-1.45 11.314,-4.31 C 5.006,15.521 5.047,9.236 5.039,8.534 l 0,-12.133 z"/></g></g></g><g id="g5131"><g id="g5133"><g id="g5139"><g id="g5141"><path style="fill:url(#radialGradient5143);stroke:none" id="path5161" d="m 40.723,34.646 41.928,0 0,29.521 -41.928,0 0,-29.521 z"/></g></g></g></g><g id="g5163"><g id="g5165"><g id="g5171"><g id="g5173"><path style="fill:url(#radialGradient5175);stroke:none" id="path5193" d="M 51.536,88.963 C 47.497,84.864 47.538,78.967 47.54,78.755 l 0,0 0,-10.396 5.041,0 0,10.434 c -0.002,0.041 0.011,4.062 2.545,6.633 l 0,0 c 1.482,1.506 3.637,2.272 6.441,2.272 l 0,0 c 2.746,0 4.891,-0.755 6.371,-2.247 l 0,0 c 2.563,-2.572 2.569,-6.629 2.569,-6.695 l 0,0 0,-10.396 5.041,0 0,10.359 c 0.002,0.248 0.043,6.146 -3.996,10.244 l 0,0 c -2.467,2.504 -5.824,3.774 -10.032,3.774 l 0,0 c -4.158,0 -7.521,-1.27 -9.984,-3.774"/></g></g></g></g><g id="g5195"><g id="g5197" clip-path="url(#clipPath5199)"><g id="g5203" transform="translate(71.3057,53.0732)"><path style="fill:#373536;fill-opacity:1;fill-rule:nonzero;stroke:none" id="path5205" d="m 0,0 -12.033,-12.44 -7.399,6.938 c -1.015,0.953 -1.064,2.547 -0.113,3.562 0.949,1.016 2.547,1.066 3.563,0.113 l 3.779,-3.543 8.582,8.873 c 0.971,1.001 2.562,1.026 3.562,0.06 C 0.941,2.595 0.967,1.001 0,0"/></g><g id="g5207"><g id="g5277"><g id="g5279" clip-path="url(#clipPath5211)" opacity=".5"><g id="g5281"><g id="g5283" clip-path="url(#clipPath5215)"><g id="g5285"><g id="g5289" mask="url(#mask5237)"><g id="g5293"><g id="g5295" clip-path="url(#clipPath5263)"><g id="g5297"><g id="g5299"><g id="g5301"><g id="g5303"><path style="fill:url(#linearGradient5271);stroke:none" id="path5305" d="M -40.273,86.083 36.19,-22.348 151.103,49.802 74.638,158.233 -40.273,86.083 z"/></g></g></g></g></g></g></g></g></g></g></g></g></g></g></g></g></svg>