<svg xmlns="http://www.w3.org/2000/svg" xmlns:svg="http://www.w3.org/2000/svg" xmlns:xlink="http://www.w3.org/1999/xlink" id="Layer_1" width="80.779" height="28.162" x="0" y="0" enable-background="new 0 0 80.779 28.162" version="1.1" viewBox="0 0 80.779 28.162" xml:space="preserve"><g id="g3" transform="translate(-228.965,-586.67701)"><linearGradient id="path14_1_" x1="763.284" x2="763.284" y1="1172.877" y2="1144.715" gradientTransform="matrix(1 0 0 1 -493.9297 -558.0371)" gradientUnits="userSpaceOnUse"><stop offset="0" style="stop-color:#414042"/><stop offset=".397" style="stop-color:#3a3a3c"/><stop offset=".789" style="stop-color:#212122"/><stop offset="1" style="stop-color:#000"/></linearGradient><path id="path14" fill="url(#path14_1_)" d="M243.045,614.839c-7.764,0-14.08-6.315-14.08-14.082 c0-7.764,6.316-14.08,14.08-14.08h52.617c7.766,0,14.082,6.316,14.082,14.08c0,7.767-6.316,14.082-14.082,14.082H243.045 L243.045,614.839z"/><linearGradient id="path25_1_" x1="763.284" x2="763.284" y1="1170.627" y2="1146.965" gradientTransform="matrix(1 0 0 1 -493.9297 -558.0371)" gradientUnits="userSpaceOnUse"><stop offset="0" style="stop-color:#000"/><stop offset=".211" style="stop-color:#212122"/><stop offset=".603" style="stop-color:#3a3a3c"/><stop offset="1" style="stop-color:#414042"/></linearGradient><path id="path25" fill="url(#path25_1_)" d="M307.494,600.757 c0,6.535-5.297,11.832-11.832,11.832h-52.617c-6.533,0-11.83-5.297-11.83-11.832l0,0c0-6.533,5.297-11.83,11.83-11.83h52.617 C302.197,588.927,307.494,594.224,307.494,600.757L307.494,600.757z"/><linearGradient id="path42_1_" x1="725.144" x2="801.424" y1="1152.991" y2="1152.991" gradientTransform="matrix(1 0 0 1 -493.9297 -558.0371)" gradientUnits="userSpaceOnUse"><stop offset="0" style="stop-color:#000"/><stop offset=".13" style="stop-color:#5d6a72"/><stop offset=".266" style="stop-color:#7899a9"/><stop offset=".379" style="stop-color:#80b9d3"/><stop offset=".462" style="stop-color:#7fcbeb"/><stop offset=".508" style="stop-color:#7ed3f7"/><stop offset="1" style="stop-color:#000"/></linearGradient><path id="path42" fill="url(#path42_1_)" d="M243.045,589.376h52.617 c6.459,0,11.701,5.176,11.82,11.604c0-0.074,0.012-0.148,0.012-0.225c0-6.533-5.297-11.83-11.832-11.83h-52.617 c-6.533,0-11.83,5.297-11.83,11.83c0,0.076,0.009,0.15,0.014,0.225C231.347,594.552,236.588,589.376,243.045,589.376 L243.045,589.376z"/><linearGradient id="path59_1_" x1="725.144" x2="801.424" y1="-121.108" y2="-121.108" gradientTransform="matrix(1 0 0 -1 -493.9297 485.9019)" gradientUnits="userSpaceOnUse"><stop offset="0" style="stop-color:#000"/><stop offset=".13" style="stop-color:#5d6a72"/><stop offset=".266" style="stop-color:#7899a9"/><stop offset=".379" style="stop-color:#80b9d3"/><stop offset=".462" style="stop-color:#7fcbeb"/><stop offset=".508" style="stop-color:#7ed3f7"/><stop offset="1" style="stop-color:#000"/></linearGradient><path id="path59" fill="url(#path59_1_)" d="M243.045,612.587h52.617 c6.459,0,11.701-5.177,11.82-11.605c0,0.074,0.012,0.148,0.012,0.225c0,6.534-5.297,11.831-11.832,11.831h-52.617 c-6.533,0-11.83-5.297-11.83-11.831c0-0.076,0.009-0.15,0.014-0.225C231.347,607.41,236.588,612.587,243.045,612.587 L243.045,612.587z"/></g><g><path fill="#6FCDF4" d="M24.764,18.176V8.791h1.485v7.999h4.342v1.387H24.764z"/><path fill="#6FCDF4" d="M37.129,17.294c-0.532,0.714-1.289,1.05-2.27,1.05c-1.316,0-2.143-0.532-2.703-1.681 c-0.393-0.799-0.659-2.045-0.659-3.166c0-1.541,0.393-2.927,1.023-3.824c0.56-0.714,1.316-1.051,2.395-1.051 c1.191,0,2.017,0.532,2.605,1.681c0.392,0.826,0.63,2.017,0.63,3.193C38.152,14.981,37.787,16.467,37.129,17.294z M36.107,10.864 c-0.294-0.49-0.659-0.687-1.219-0.729c-0.028,0-0.056,0-0.084,0c-0.672,0-1.121,0.364-1.429,1.163 c-0.238,0.561-0.364,1.415-0.364,2.199c0,0.995,0.196,2.018,0.56,2.605c0.294,0.49,0.687,0.729,1.289,0.729 c0.687,0,1.121-0.364,1.443-1.19c0.196-0.491,0.364-1.415,0.364-2.144C36.667,12.447,36.47,11.494,36.107,10.864z"/><path fill="#6FCDF4" d="M43.161,18.344c-1.414,0-2.24-0.532-2.801-1.709c-0.393-0.826-0.617-1.989-0.617-3.138 c0-1.513,0.42-2.998,1.051-3.824c0.56-0.687,1.345-1.051,2.41-1.051c1.442,0,2.297,0.603,2.928,2.073l-1.416,0.56 c-0.392-0.812-0.798-1.121-1.512-1.121c-0.757,0-1.262,0.336-1.583,1.163c-0.238,0.561-0.364,1.415-0.364,2.199 c0,0.995,0.168,1.975,0.462,2.578c0.294,0.518,0.729,0.756,1.289,0.756c0.952,0,1.639-0.603,1.639-1.457v-0.393h-1.709v-1.484 h3.194v1.877C46.132,17.083,44.885,18.344,43.161,18.344z"/><path fill="#6FCDF4" d="M48.172,18.176V8.791h1.513v9.385H48.172z"/><path fill="#6FCDF4" d="M56.995,18.176l-3.586-6.359v6.359h-1.485V8.791h1.485l3.418,5.996V8.791h1.484v9.385H56.995z"/></g></svg>