<svg xmlns="http://www.w3.org/2000/svg" xmlns:svg="http://www.w3.org/2000/svg" id="svg3559" width="55.943" height="68.594" version="1.1" xml:space="preserve"><metadata id="metadata3565"/><defs id="defs3563"><linearGradient id="linearGradient3581" x1="0" x2="1" y1="0" y2="0" gradientTransform="matrix(0,54.875977,-54.875977,0,305.42578,368.49512)" gradientUnits="userSpaceOnUse" spreadMethod="pad"><stop style="stop-opacity:1;stop-color:#4d4d4e" id="stop3583" offset="0"/><stop style="stop-opacity:1;stop-color:#373536" id="stop3585" offset="1"/></linearGradient><linearGradient id="linearGradient3601" x1="0" x2="1" y1="0" y2="0" gradientTransform="matrix(0,50.257812,-50.257812,0,305.98633,370.80469)" gradientUnits="userSpaceOnUse" spreadMethod="pad"><stop style="stop-opacity:1;stop-color:#373536" id="stop3603" offset="0"/><stop style="stop-opacity:1;stop-color:#4d4d4e" id="stop3605" offset="1"/></linearGradient><linearGradient id="linearGradient3621" x1="0" x2="1" y1="0" y2="0" gradientTransform="matrix(-39.017578,0,0,-39.017578,325.49414,408.32666)" gradientUnits="userSpaceOnUse" spreadMethod="pad"><stop style="stop-opacity:1;stop-color:#373536" id="stop3623" offset="0"/><stop style="stop-opacity:1;stop-color:#84d3f6" id="stop3625" offset=".492"/><stop style="stop-opacity:1;stop-color:#373536" id="stop3627" offset="1"/></linearGradient><linearGradient id="linearGradient3643" x1="0" x2="1" y1="0" y2="0" gradientTransform="matrix(-39.017578,0,0,39.017578,325.49414,383.54297)" gradientUnits="userSpaceOnUse" spreadMethod="pad"><stop style="stop-opacity:1;stop-color:#373536" id="stop3645" offset="0"/><stop style="stop-opacity:1;stop-color:#84d3f6" id="stop3647" offset=".492"/><stop style="stop-opacity:1;stop-color:#373536" id="stop3649" offset="1"/></linearGradient><clipPath id="clipPath3657" clipPathUnits="userSpaceOnUse"><path id="path3659" d="M 0,792 612,792 612,0 0,0 0,792 z"/></clipPath><linearGradient id="linearGradient3677" x1="0" x2="1" y1="0" y2="0" gradientTransform="matrix(9.4995117,0,0,-9.4995117,297.52588,391.98437)" gradientUnits="userSpaceOnUse" spreadMethod="pad"><stop style="stop-opacity:1;stop-color:#373536" id="stop3679" offset="0"/><stop style="stop-opacity:1;stop-color:#84d3f6" id="stop3681" offset=".492"/><stop style="stop-opacity:1;stop-color:#373536" id="stop3683" offset="1"/></linearGradient><linearGradient id="linearGradient3699" x1="0" x2="1" y1="0" y2="0" gradientTransform="matrix(9.3710938,0,0,-9.3710938,307.02539,391.92871)" gradientUnits="userSpaceOnUse" spreadMethod="pad"><stop style="stop-opacity:1;stop-color:#373536" id="stop3701" offset="0"/><stop style="stop-opacity:1;stop-color:#84d3f6" id="stop3703" offset=".492"/><stop style="stop-opacity:1;stop-color:#373536" id="stop3705" offset="1"/></linearGradient><linearGradient id="linearGradient3721" x1="0" x2="1" y1="0" y2="0" gradientTransform="matrix(4.328125,0,0,-4.328125,316.39648,390.1123)" gradientUnits="userSpaceOnUse" spreadMethod="pad"><stop style="stop-opacity:1;stop-color:#373536" id="stop3723" offset="0"/><stop style="stop-opacity:1;stop-color:#84d3f6" id="stop3725" offset=".492"/><stop style="stop-opacity:1;stop-color:#373536" id="stop3727" offset="1"/></linearGradient><radialGradient id="radialGradient3743" cx="0" cy="0" r="1" fx="0" fy="0" gradientTransform="matrix(17.880508,0,0,-17.880508,296.35937,407.79639)" gradientUnits="userSpaceOnUse" spreadMethod="pad"><stop style="stop-opacity:1;stop-color:#6dcdf5" id="stop3745" offset="0"/><stop style="stop-opacity:1;stop-color:#2a7ea9" id="stop3747" offset="1"/></radialGradient><radialGradient id="radialGradient3763" cx="0" cy="0" r="1" fx="0" fy="0" gradientTransform="matrix(17.87944,0,0,-17.87944,305.8623,407.79639)" gradientUnits="userSpaceOnUse" spreadMethod="pad"><stop style="stop-opacity:1;stop-color:#6dcdf5" id="stop3765" offset="0"/><stop style="stop-opacity:1;stop-color:#2a7ea9" id="stop3767" offset="1"/></radialGradient><radialGradient id="radialGradient3783" cx="0" cy="0" r="1" fx="0" fy="0" gradientTransform="matrix(19.768433,0,0,-15.470688,317.02246,407.79541)" gradientUnits="userSpaceOnUse" spreadMethod="pad"><stop style="stop-opacity:1;stop-color:#6dcdf5" id="stop3785" offset="0"/><stop style="stop-opacity:1;stop-color:#2a7ea9" id="stop3787" offset="1"/></radialGradient></defs><g id="g3567" transform="matrix(1.25,0,0,-1.25,-353.81,529.21375)"><g id="g3569"><g id="g3571"><g id="g3577"><g id="g3579"><path style="fill:url(#linearGradient3581);stroke:none" id="path3587" d="m 283.048,417.207 c 5.394,-5.473 8.728,-12.98 8.728,-21.272 l 0,0 c 0,-8.291 -3.334,-15.798 -8.728,-21.277 l 0,0 c 4.726,-3.847 10.747,-6.162 17.318,-6.162 l 0,0 c 15.151,0 27.436,12.285 27.436,27.439 l 0,0 c 0,15.151 -12.285,27.436 -27.436,27.436 l 0,0 c -6.571,0 -12.592,-2.314 -17.318,-6.164"/></g></g></g></g><g id="g3589"><g id="g3591"><g id="g3597"><g id="g3599"><path style="fill:url(#linearGradient3601);stroke:none" id="path3607" d="m 286.477,416.867 c 4.924,-5.866 7.61,-13.203 7.61,-20.932 l 0,0 c 0,-7.73 -2.686,-15.068 -7.61,-20.935 l 0,0 c 4.101,-2.72 8.947,-4.195 13.889,-4.195 l 0,0 c 13.855,0 25.128,11.273 25.128,25.13 l 0,0 c 0,13.855 -11.273,25.127 -25.128,25.127 l 0,0 c -4.942,0 -9.788,-1.477 -13.889,-4.195"/></g></g></g></g><g id="g3609"><g id="g3611"><g id="g3617"><g id="g3619"><path style="fill:url(#linearGradient3621);stroke:none" id="path3629" d="m 286.477,416.867 c 0.129,-0.153 0.236,-0.315 0.36,-0.469 l 0,0 c 4.024,2.569 8.73,3.975 13.529,3.975 l 0,0 c 13.738,0 24.923,-11.088 25.108,-24.783 l 0,0 c 0.005,0.118 0.02,0.228 0.02,0.345 l 0,0 c 0,13.855 -11.273,25.127 -25.128,25.127 l 0,0 c -4.942,0 -9.788,-1.477 -13.889,-4.195"/></g></g></g></g><g id="g3631"><g id="g3633"><g id="g3639"><g id="g3641"><path style="fill:url(#linearGradient3643);stroke:none" id="path3651" d="m 300.366,371.496 c -4.799,0 -9.505,1.405 -13.529,3.975 l 0,0 c -0.124,-0.154 -0.231,-0.317 -0.36,-0.469 l 0,0 c 4.101,-2.719 8.947,-4.197 13.889,-4.197 l 0,0 c 13.855,0 25.128,11.273 25.128,25.13 l 0,0 c 0,0.118 -0.015,0.227 -0.02,0.344 l 0,0 c -0.185,-13.696 -11.37,-24.783 -25.108,-24.783"/></g></g></g></g><g id="g3653"><g id="g3655" clip-path="url(#clipPath3657)"><g id="g3661" transform="translate(318.5605,403.7646)"><path style="fill:#373536;fill-opacity:1;fill-rule:nonzero;stroke:none" id="path3663" d="m 0,0 c -1.191,0 -2.164,-0.872 -2.164,-1.943 l 0,-3.643 -5.391,4.554 C -8.193,-0.498 -8.893,0 -9.678,0 l -0.367,-0.029 -0.184,-0.062 c -0.806,-0.277 -1.306,-1.061 -1.306,-2.048 l 0,-3.557 -5.526,4.664 C -17.7,-0.498 -18.4,0 -19.179,0 l -0.365,-0.029 -0.183,-0.062 c -0.807,-0.275 -1.308,-1.058 -1.308,-2.048 l 0,-10.693 c 0,-0.989 0.501,-1.772 1.309,-2.051 l 0.359,-0.088 0.189,0 c 0.785,0 1.483,0.498 2.123,1.035 l 5.52,4.659 0,-3.555 c 0,-0.986 0.5,-1.771 1.314,-2.051 l 0.356,-0.088 0.191,0 c 0.787,0 1.486,0.498 2.119,1.035 l 5.391,4.546 0,-3.634 c 0,-1.075 0.973,-1.947 2.164,-1.947 1.195,0 2.164,0.872 2.164,1.947 l 0,11.081 C 2.164,-0.872 1.195,0 0,0"/></g></g></g><g id="g3665"><g id="g3667"><g id="g3673"><g id="g3675"><path style="fill:url(#linearGradient3677);stroke:none" id="path3685" d="m 301.505,390.52 c -0.64,-0.539 -1.338,-1.036 -2.123,-1.036 l 0,0 -0.188,0 -0.36,0.088 c -0.807,0.276 -1.308,1.063 -1.308,2.049 l 0,0 0,-0.688 c 0,-0.99 0.501,-1.773 1.308,-2.051 l 0,0 0.36,-0.088 0.188,0 c 0.785,0 1.483,0.498 2.123,1.035 l 0,0 5.52,4.658 0,0.689 -5.52,-4.656 z"/></g></g></g></g><g id="g3687"><g id="g3689"><g id="g3695"><g id="g3697"><path style="fill:url(#linearGradient3699);stroke:none" id="path3707" d="m 311.006,390.52 c -0.633,-0.537 -1.332,-1.036 -2.12,-1.036 l 0,0 -0.191,0 -0.355,0.088 c -0.815,0.279 -1.315,1.065 -1.315,2.049 l 0,0 0,-0.688 c 0,-0.986 0.5,-1.771 1.315,-2.051 l 0,0 0.355,-0.088 0.191,0 c 0.788,0 1.487,0.498 2.12,1.035 l 0,0 5.391,4.546 0,0.688 -5.391,-4.543 z"/></g></g></g></g><g id="g3709"><g id="g3711"><g id="g3717"><g id="g3719"><path style="fill:url(#linearGradient3721);stroke:none" id="path3729" d="m 318.56,389.484 c -1.191,0 -2.163,0.872 -2.163,1.947 l 0,0 0,-0.691 c 0,-1.074 0.972,-1.946 2.163,-1.946 l 0,0 c 1.196,0 2.165,0.872 2.165,1.946 l 0,0 0,0.691 c 0,-1.075 -0.969,-1.947 -2.165,-1.947"/></g></g></g></g><g id="g3731"><g id="g3733"><g id="g3739"><g id="g3741"><path style="fill:url(#radialGradient3743);stroke:none" id="path3749" d="m 299.207,402.583 c -0.322,-0.11 -0.528,-0.446 -0.528,-0.957 l 0,0 0,-5.347 0,-5.346 c 0,-0.513 0.206,-0.847 0.528,-0.958 l 0,0 c 0.472,-0.159 1.171,0.413 1.554,0.736 l 0,0 5.91,4.984 c 0.384,0.323 0.384,0.846 0,1.165 l 0,0 -5.91,4.987 c -0.339,0.283 -0.923,0.762 -1.38,0.762 l 0,0 c -0.061,0 -0.119,-0.008 -0.174,-0.026"/></g></g></g></g><g id="g3751"><g id="g3753"><g id="g3759"><g id="g3761"><path style="fill:url(#radialGradient3763);stroke:none" id="path3769" d="m 308.707,402.583 c -0.318,-0.11 -0.527,-0.446 -0.527,-0.957 l 0,0 0,-5.347 0,-5.346 c 0,-0.513 0.209,-0.847 0.527,-0.958 l 0,0 c 0.474,-0.159 1.176,0.413 1.556,0.736 l 0,0 5.909,4.984 c 0.382,0.323 0.382,0.846 0,1.165 l 0,0 -5.909,4.987 c -0.336,0.283 -0.922,0.762 -1.381,0.762 l 0,0 c -0.061,0 -0.119,-0.008 -0.175,-0.026"/></g></g></g></g><g id="g3771"><g id="g3773"><g id="g3779"><g id="g3781"><path style="fill:url(#radialGradient3783);stroke:none" id="path3789" d="m 317.552,401.821 0,-11.081 c 0,-0.435 0.452,-0.791 1.008,-0.791 l 0,0 c 0.555,0 1.012,0.356 1.012,0.791 l 0,0 0,11.081 c 0,0.435 -0.457,0.789 -1.012,0.789 l 0,0 c -0.556,0 -1.008,-0.354 -1.008,-0.789"/></g></g></g></g></g></svg>