<svg xmlns="http://www.w3.org/2000/svg" xmlns:svg="http://www.w3.org/2000/svg" id="svg2" width="75.598" height="75.601" version="1.1" xml:space="preserve"><metadata id="metadata8"/><defs id="defs6"><linearGradient id="linearGradient24" x1="0" x2="1" y1="0" y2="0" gradientTransform="matrix(0,60.480957,60.480957,0,305.17725,365.65625)" gradientUnits="userSpaceOnUse" spreadMethod="pad"><stop style="stop-opacity:1;stop-color:#4d4d4e" id="stop26" offset="0"/><stop style="stop-opacity:1;stop-color:#373536" id="stop28" offset="1"/></linearGradient><linearGradient id="linearGradient44" x1="0" x2="1" y1="0" y2="0" gradientTransform="matrix(0,55.880371,55.880371,0,305.17529,367.95703)" gradientUnits="userSpaceOnUse" spreadMethod="pad"><stop style="stop-opacity:1;stop-color:#373536" id="stop46" offset="0"/><stop style="stop-opacity:1;stop-color:#4d4d4e" id="stop48" offset="1"/></linearGradient><linearGradient id="linearGradient64" x1="0" x2="1" y1="0" y2="0" gradientTransform="matrix(55.880371,0,0,-55.880371,277.23486,409.69727)" gradientUnits="userSpaceOnUse" spreadMethod="pad"><stop style="stop-opacity:1;stop-color:#373536" id="stop66" offset="0"/><stop style="stop-opacity:1;stop-color:#84d3f6" id="stop68" offset=".508"/><stop style="stop-opacity:1;stop-color:#373536" id="stop70" offset="1"/></linearGradient><linearGradient id="linearGradient86" x1="0" x2="1" y1="0" y2="0" gradientTransform="matrix(55.880371,0,0,55.880371,277.23486,382.09863)" gradientUnits="userSpaceOnUse" spreadMethod="pad"><stop style="stop-opacity:1;stop-color:#373536" id="stop88" offset="0"/><stop style="stop-opacity:1;stop-color:#84d3f6" id="stop90" offset=".508"/><stop style="stop-opacity:1;stop-color:#373536" id="stop92" offset="1"/></linearGradient><clipPath id="clipPath100" clipPathUnits="userSpaceOnUse"><path id="path102" d="M 0,792 612,792 612,0 0,0 0,792 z"/></clipPath><linearGradient id="linearGradient120" x1="0" x2="1" y1="0" y2="0" gradientTransform="matrix(8.9550781,0,0,-8.9550781,294.39404,385.49805)" gradientUnits="userSpaceOnUse" spreadMethod="pad"><stop style="stop-opacity:1;stop-color:#373536" id="stop122" offset="0"/><stop style="stop-opacity:1;stop-color:#84d3f6" id="stop124" offset=".508"/><stop style="stop-opacity:1;stop-color:#373536" id="stop126" offset="1"/></linearGradient><radialGradient id="radialGradient142" cx="0" cy="0" r="1" fx="0" fy="0" gradientTransform="matrix(58.709488,0,0,26.213043,294.23535,376.35937)" gradientUnits="userSpaceOnUse" spreadMethod="pad"><stop style="stop-opacity:1;stop-color:#6dcdf5" id="stop144" offset="0"/><stop style="stop-opacity:1;stop-color:#2a7ea9" id="stop146" offset="1"/></radialGradient><clipPath id="clipPath154" clipPathUnits="userSpaceOnUse"><path id="path156" d="M 0,792 612,792 612,0 0,0 0,792 z"/></clipPath><linearGradient id="linearGradient174" x1="0" x2="1" y1="0" y2="0" gradientTransform="matrix(8.9589844,0,0,-8.9589844,307.00391,385.49805)" gradientUnits="userSpaceOnUse" spreadMethod="pad"><stop style="stop-opacity:1;stop-color:#373536" id="stop176" offset="0"/><stop style="stop-opacity:1;stop-color:#84d3f6" id="stop178" offset=".508"/><stop style="stop-opacity:1;stop-color:#373536" id="stop180" offset="1"/></linearGradient><radialGradient id="radialGradient196" cx="0" cy="0" r="1" fx="0" fy="0" gradientTransform="matrix(58.710373,0,0,26.21344,306.83496,376.35937)" gradientUnits="userSpaceOnUse" spreadMethod="pad"><stop style="stop-opacity:1;stop-color:#6dcdf5" id="stop198" offset="0"/><stop style="stop-opacity:1;stop-color:#2a7ea9" id="stop200" offset="1"/></radialGradient></defs><g id="g10" transform="matrix(1.25,0,0,-1.25,-343.6725,532.67125)"><g id="g12"><g id="g14"><g id="g20"><g id="g22"><path style="fill:url(#linearGradient24);stroke:none" id="path30" d="m 274.938,395.898 c 0,-16.704 13.536,-30.242 30.238,-30.242 l 0,0 c 16.703,0 30.24,13.538 30.24,30.242 l 0,0 c 0,16.702 -13.537,30.239 -30.24,30.239 l 0,0 c -16.702,0 -30.238,-13.537 -30.238,-30.239"/></g></g></g></g><g id="g32"><g id="g34"><g id="g40"><g id="g42"><path style="fill:url(#linearGradient44);stroke:none" id="path50" d="m 277.235,395.898 c 0,-15.402 12.533,-27.941 27.941,-27.941 l 0,0 c 15.408,0 27.939,12.539 27.939,27.941 l 0,0 c 0,15.408 -12.531,27.94 -27.939,27.94 l 0,0 c -15.408,0 -27.941,-12.532 -27.941,-27.94"/></g></g></g></g><g id="g52"><g id="g54"><g id="g60"><g id="g62"><path style="fill:url(#linearGradient64);stroke:none" id="path72" d="m 277.235,395.898 c 0,-0.115 0.018,-0.224 0.021,-0.342 l 0,0 c 0.188,15.246 12.629,27.596 27.92,27.596 l 0,0 c 15.287,0 27.736,-12.35 27.924,-27.596 l 0,0 c 0,0.118 0.015,0.227 0.015,0.342 l 0,0 c 0,15.408 -12.531,27.94 -27.939,27.94 l 0,0 c -15.408,0 -27.941,-12.532 -27.941,-27.94"/></g></g></g></g><g id="g74"><g id="g76"><g id="g82"><g id="g84"><path style="fill:url(#linearGradient86);stroke:none" id="path94" d="m 305.176,368.645 c -15.291,0 -27.732,12.347 -27.92,27.595 l 0,0 c -0.003,-0.117 -0.021,-0.229 -0.021,-0.344 l 0,0 c 0,-15.408 12.533,-27.939 27.941,-27.939 l 0,0 c 15.408,0 27.939,12.531 27.939,27.939 l 0,0 c 0,0.115 -0.015,0.227 -0.015,0.344 l 0,0 c -0.188,-15.248 -12.637,-27.595 -27.924,-27.595"/></g></g></g></g><g id="g96"><g id="g98" clip-path="url(#clipPath100)"><g id="g104" transform="translate(303.3491,386.4941)"><path style="fill:#373536;fill-opacity:1;fill-rule:nonzero;stroke:none" id="path106" d="m 0,0 c 0,-1.299 -1.966,-2.316 -4.476,-2.316 -2.51,0 -4.479,1.017 -4.479,2.316 l 0,18.771 c 0,1.299 1.969,2.325 4.479,2.325 C -1.966,21.096 0,20.07 0,18.771 L 0,0 z"/></g></g></g><g id="g108"><g id="g110"><g id="g116"><g id="g118"><path style="fill:url(#linearGradient120);stroke:none" id="path128" d="m 298.874,384.827 c -2.511,0 -4.48,1.023 -4.48,2.313 l 0,0 0,-0.968 c 0,-1.299 1.969,-2.317 4.48,-2.317 l 0,0 c 2.509,0 4.475,1.018 4.475,2.317 l 0,0 0,0.968 c 0,-1.29 -1.966,-2.313 -4.475,-2.313"/></g></g></g></g><g id="g130"><g id="g132"><g id="g138"><g id="g140"><path style="fill:url(#radialGradient142);stroke:none" id="path148" d="m 295.872,405.266 0,-18.772 c 0,-0.741 1.351,-1.335 3.002,-1.335 l 0,0 c 1.646,0 3.002,0.594 3.002,1.335 l 0,0 0,18.772 c 0,0.738 -1.356,1.343 -3.002,1.343 l 0,0 c -1.651,0 -3.002,-0.605 -3.002,-1.343"/></g></g></g></g><g id="g150"><g id="g152" clip-path="url(#clipPath154)"><g id="g158" transform="translate(315.9629,386.4941)"><path style="fill:#373536;fill-opacity:1;fill-rule:nonzero;stroke:none" id="path160" d="m 0,0 c 0,-1.299 -1.965,-2.316 -4.482,-2.316 -2.51,0 -4.477,1.017 -4.477,2.316 l 0,18.771 c 0,1.299 1.967,2.325 4.477,2.325 C -1.965,21.096 0,20.07 0,18.771 L 0,0 z"/></g></g></g><g id="g162"><g id="g164"><g id="g170"><g id="g172"><path style="fill:url(#linearGradient174);stroke:none" id="path182" d="m 311.48,384.827 c -2.509,0 -4.477,1.023 -4.477,2.313 l 0,0 0,-0.968 c 0,-1.299 1.968,-2.317 4.477,-2.317 l 0,0 c 2.518,0 4.483,1.018 4.483,2.317 l 0,0 0,0.968 c 0,-1.29 -1.965,-2.313 -4.483,-2.313"/></g></g></g></g><g id="g184"><g id="g186"><g id="g192"><g id="g194"><path style="fill:url(#radialGradient196);stroke:none" id="path202" d="m 308.484,405.266 0,-18.772 c 0,-0.741 1.348,-1.335 2.996,-1.335 l 0,0 c 1.651,0 3.001,0.594 3.001,1.335 l 0,0 0,18.772 c 0,0.738 -1.35,1.343 -3.001,1.343 l 0,0 c -1.648,0 -2.996,-0.605 -2.996,-1.343"/></g></g></g></g></g></svg>