<svg xmlns="http://www.w3.org/2000/svg" xmlns:svg="http://www.w3.org/2000/svg" xmlns:xlink="http://www.w3.org/1999/xlink" id="svg3179" width="75.805" height="75.809" x="0" y="0" enable-background="new 0 0 75.805 75.809" version="1.1" viewBox="0 0 75.805 75.809" xml:space="preserve"><g id="g3187" transform="matrix(1.25,0,0,-1.25,-344.56125,532.8225)"><g id="g3189"><g id="g3191"><g id="g3197"><g id="g3199"><linearGradient id="path3207_1_" x1="535.427" x2="536.427" y1="707.933" y2="707.933" gradientTransform="matrix(0 94.7609 94.7609 0 -66778.4062 -50371.8906)" gradientUnits="userSpaceOnUse"><stop offset="0" style="stop-color:#4d4d4e"/><stop offset="1" style="stop-color:#373536"/></linearGradient><path id="path3207" fill="url(#path3207_1_)" d="M275.649,395.935 c0-16.752,13.576-30.324,30.322-30.324l0,0c16.747,0,30.322,13.573,30.322,30.324l0,0c0,16.746-13.575,30.323-30.322,30.323 l0,0C289.225,426.258,275.649,412.681,275.649,395.935"/></g></g></g></g><g id="g3209"><g id="g3211"><g id="g3217"><g id="g3219"><linearGradient id="path3227_1_" x1="535.054" x2="536.055" y1="708.432" y2="708.432" gradientTransform="matrix(0 87.542 87.542 0 -61711.5664 -46471.7344)" gradientUnits="userSpaceOnUse"><stop offset="0" style="stop-color:#373536"/><stop offset="1" style="stop-color:#4d4d4e"/></linearGradient><path id="path3227" fill="url(#path3227_1_)" d="M277.957,395.935 c0-15.447,12.567-28.014,28.014-28.014l0,0c15.447,0,28.014,12.567,28.014,28.014l0,0c0,15.447-12.567,28.012-28.014,28.012 l0,0C290.524,423.948,277.957,411.382,277.957,395.935"/></g></g></g></g><g id="g3229"><g id="g3231"><g id="g3237"><g id="g3239"><linearGradient id="path3249_1_" x1="546.499" x2="547.499" y1="706.777" y2="706.777" gradientTransform="matrix(87.5435 0 0 -87.5435 -47564.4453 62283.4453)" gradientUnits="userSpaceOnUse"><stop offset="0" style="stop-color:#373536"/><stop offset=".508" style="stop-color:#bfbfbf"/><stop offset="1" style="stop-color:#373536"/></linearGradient><path id="path3249" fill="url(#path3249_1_)" d="M277.957,395.935 c0-0.117,0.016-0.227,0.018-0.345l0,0c0.186,15.288,12.666,27.67,27.996,27.67l0,0c15.33,0,27.808-12.383,27.994-27.67l0,0 c0.003,0.118,0.02,0.228,0.02,0.345l0,0c0,15.447-12.567,28.012-28.014,28.012l0,0 C290.524,423.948,277.957,411.382,277.957,395.935"/></g></g></g></g><g id="g3251"><g id="g3253"><g id="g3259"><g id="g3261"><linearGradient id="path3271_1_" x1="546.499" x2="547.499" y1="696.987" y2="696.987" gradientTransform="matrix(87.5435 0 0 87.5435 -47564.4453 -60634.6289)" gradientUnits="userSpaceOnUse"><stop offset="0" style="stop-color:#373536"/><stop offset=".508" style="stop-color:#bfbfbf"/><stop offset="1" style="stop-color:#373536"/></linearGradient><path id="path3271" fill="url(#path3271_1_)" d="M305.971,368.606 c-15.33,0-27.81,12.38-27.996,27.669l0,0c-0.002-0.117-0.018-0.228-0.018-0.345l0,0c0-15.45,12.567-28.012,28.014-28.012l0,0 c15.447,0,28.014,12.562,28.014,28.012l0,0c0,0.117-0.017,0.228-0.02,0.345l0,0 C333.779,380.986,321.301,368.606,305.971,368.606"/></g></g></g></g><g id="g3273"><g><g><defs><rect id="SVGID_1_" width="956.25" height="1237.5" x="-172.125" y="-222.75"/></defs><clipPath id="SVGID_2_"><use overflow="visible" xlink:href="#SVGID_1_"/></clipPath><g id="g3275" clip-path="url(#SVGID_2_)"><g id="g3281" transform="translate(300.4458,381.1602)"><path id="path3283" fill="#373536" d="M0,0c-0.268,0-0.523,0.038-0.764,0.119 c-1.215,0.416-1.943,1.61-1.943,3.202v23.595c0,1.591,0.728,2.785,1.943,3.203c0.241,0.08,0.496,0.12,0.76,0.12 c1.283,0,2.577-0.938,3.783-1.95L16.82,17.285c0.66-0.555,1.041-1.346,1.045-2.166c0-0.82-0.381-1.611-1.045-2.17L3.782,1.95 C2.574,0.938,1.282,0,0,0"/></g></g></g></g></g><g id="g3285"><g id="g3287"><g id="g3293"><g id="g3295"><linearGradient id="path3305_1_" x1="557.788" x2="558.787" y1="715.212" y2="715.212" gradientTransform="matrix(32.1434 0 0 -32.1434 -17631.4629 23377.8906)" gradientUnits="userSpaceOnUse"><stop offset="0" style="stop-color:#373536"/><stop offset=".508" style="stop-color:#bfbfbf"/><stop offset="1" style="stop-color:#373536"/></linearGradient><path id="path3305" fill="url(#path3305_1_)" d="M317.265,394.799l-13.037-10.998 c-1.208-1.012-2.5-1.953-3.782-1.953l0,0c-0.268,0-0.524,0.042-0.764,0.123l0,0c-1.216,0.412-1.943,1.609-1.943,3.198l0,0 v-1.15c0-1.587,0.727-2.784,1.943-3.198l0,0c0.24-0.08,0.496-0.12,0.764-0.12l0,0c1.282,0,2.574,0.938,3.782,1.95l0,0 l13.037,10.999c0.665,0.557,1.045,1.348,1.045,2.168l0,0c0,0.193-0.027,0.385-0.068,0.571l0,0 C318.108,395.783,317.769,395.224,317.265,394.799"/></g></g></g></g><g id="g3307"><g id="g3309"><g id="g3315"><g id="g3317"><radialGradient id="path3325_1_" cx="549.252" cy="708.834" r="1.001" gradientTransform="matrix(61.6376 0 0 -61.6376 -33557.4609 44103.8359)" gradientUnits="userSpaceOnUse"><stop offset="0" style="stop-color:#6a6a6a"/><stop offset="1" style="stop-color:#b5b5b5"/></radialGradient><path id="path3325" fill="url(#path3325_1_)" d="M300.055,410.186 c-0.708-0.242-1.164-0.985-1.164-2.11l0,0v-11.798v-11.796c0-1.127,0.456-1.87,1.164-2.109l0,0 c1.041-0.354,2.586,0.913,3.428,1.62l0,0l13.036,10.998c0.846,0.711,0.846,1.866,0,2.571l0,0l-13.036,11.001 c-0.743,0.627-2.033,1.684-3.04,1.684l0,0C300.308,410.246,300.178,410.227,300.055,410.186"/></g></g></g></g></g></svg>