<svg xmlns="http://www.w3.org/2000/svg" xmlns:svg="http://www.w3.org/2000/svg" id="svg3179" width="75.805" height="75.809" version="1.1" xml:space="preserve"><metadata id="metadata3185"/><defs id="defs3183"><linearGradient id="linearGradient3201" x1="0" x2="1" y1="0" y2="0" gradientTransform="matrix(0,60.646973,60.646973,0,305.97119,365.61035)" gradientUnits="userSpaceOnUse" spreadMethod="pad"><stop style="stop-opacity:1;stop-color:#4d4d4e" id="stop3203" offset="0"/><stop style="stop-opacity:1;stop-color:#373536" id="stop3205" offset="1"/></linearGradient><linearGradient id="linearGradient3221" x1="0" x2="1" y1="0" y2="0" gradientTransform="matrix(0,56.026856,56.026856,0,305.9707,367.91992)" gradientUnits="userSpaceOnUse" spreadMethod="pad"><stop style="stop-opacity:1;stop-color:#373536" id="stop3223" offset="0"/><stop style="stop-opacity:1;stop-color:#4d4d4e" id="stop3225" offset="1"/></linearGradient><linearGradient id="linearGradient3241" x1="0" x2="1" y1="0" y2="0" gradientTransform="matrix(56.027832,0,0,-56.027832,277.95654,409.76904)" gradientUnits="userSpaceOnUse" spreadMethod="pad"><stop style="stop-opacity:1;stop-color:#373536" id="stop3243" offset="0"/><stop style="stop-opacity:1;stop-color:#84d3f6" id="stop3245" offset=".508"/><stop style="stop-opacity:1;stop-color:#373536" id="stop3247" offset="1"/></linearGradient><linearGradient id="linearGradient3263" x1="0" x2="1" y1="0" y2="0" gradientTransform="matrix(56.027832,0,0,56.027832,277.95654,382.0957)" gradientUnits="userSpaceOnUse" spreadMethod="pad"><stop style="stop-opacity:1;stop-color:#373536" id="stop3265" offset="0"/><stop style="stop-opacity:1;stop-color:#84d3f6" id="stop3267" offset=".508"/><stop style="stop-opacity:1;stop-color:#373536" id="stop3269" offset="1"/></linearGradient><clipPath id="clipPath3277" clipPathUnits="userSpaceOnUse"><path id="path3279" d="M 0,792 612,792 612,0 0,0 0,792 z"/></clipPath><linearGradient id="linearGradient3297" x1="0" x2="1" y1="0" y2="0" gradientTransform="matrix(20.571777,0,0,-20.571777,297.73877,388.54492)" gradientUnits="userSpaceOnUse" spreadMethod="pad"><stop style="stop-opacity:1;stop-color:#373536" id="stop3299" offset="0"/><stop style="stop-opacity:1;stop-color:#84d3f6" id="stop3301" offset=".508"/><stop style="stop-opacity:1;stop-color:#373536" id="stop3303" offset="1"/></linearGradient><radialGradient id="radialGradient3319" cx="0" cy="0" r="1" fx="0" fy="0" gradientTransform="matrix(39.448074,0,0,-39.448059,297.09082,413.03076)" gradientUnits="userSpaceOnUse" spreadMethod="pad"><stop style="stop-opacity:1;stop-color:#2a7ea9" id="stop3321" offset="0"/><stop style="stop-opacity:1;stop-color:#6dcdf5" id="stop3323" offset="1"/></radialGradient></defs><g id="g3187" transform="matrix(1.25,0,0,-1.25,-344.56125,532.8225)"><g id="g3189"><g id="g3191"><g id="g3197"><g id="g3199"><path style="fill:url(#linearGradient3201);stroke:none" id="path3207" d="m 275.649,395.935 c 0,-16.751 13.576,-30.324 30.322,-30.324 l 0,0 c 16.747,0 30.322,13.573 30.322,30.324 l 0,0 c 0,16.746 -13.575,30.323 -30.322,30.323 l 0,0 c -16.746,0 -30.322,-13.577 -30.322,-30.323"/></g></g></g></g><g id="g3209"><g id="g3211"><g id="g3217"><g id="g3219"><path style="fill:url(#linearGradient3221);stroke:none" id="path3227" d="m 277.957,395.935 c 0,-15.447 12.567,-28.015 28.014,-28.015 l 0,0 c 15.447,0 28.014,12.568 28.014,28.015 l 0,0 c 0,15.447 -12.567,28.013 -28.014,28.013 l 0,0 c -15.447,0 -28.014,-12.566 -28.014,-28.013"/></g></g></g></g><g id="g3229"><g id="g3231"><g id="g3237"><g id="g3239"><path style="fill:url(#linearGradient3241);stroke:none" id="path3249" d="m 277.957,395.935 c 0,-0.117 0.016,-0.227 0.018,-0.345 l 0,0 c 0.186,15.287 12.666,27.67 27.996,27.67 l 0,0 c 15.33,0 27.808,-12.383 27.994,-27.67 l 0,0 c 0.003,0.118 0.02,0.228 0.02,0.345 l 0,0 c 0,15.447 -12.567,28.013 -28.014,28.013 l 0,0 c -15.447,0 -28.014,-12.566 -28.014,-28.013"/></g></g></g></g><g id="g3251"><g id="g3253"><g id="g3259"><g id="g3261"><path style="fill:url(#linearGradient3263);stroke:none" id="path3271" d="m 305.971,368.606 c -15.33,0 -27.81,12.38 -27.996,27.669 l 0,0 c -0.002,-0.117 -0.018,-0.228 -0.018,-0.345 l 0,0 c 0,-15.45 12.567,-28.012 28.014,-28.012 l 0,0 c 15.447,0 28.014,12.562 28.014,28.012 l 0,0 c 0,0.117 -0.017,0.228 -0.02,0.345 l 0,0 c -0.186,-15.289 -12.664,-27.669 -27.994,-27.669"/></g></g></g></g><g id="g3273"><g id="g3275" clip-path="url(#clipPath3277)"><g id="g3281" transform="translate(300.4458,381.1602)"><path style="fill:#373536;fill-opacity:1;fill-rule:nonzero;stroke:none" id="path3283" d="m 0,0 c -0.268,0 -0.523,0.039 -0.764,0.119 -1.215,0.415 -1.943,1.61 -1.943,3.201 l 0,23.596 c 0,1.59 0.728,2.785 1.943,3.203 0.242,0.08 0.496,0.119 0.76,0.119 1.283,0 2.578,-0.937 3.783,-1.95 L 16.82,17.285 c 0.66,-0.555 1.041,-1.346 1.045,-2.166 0,-0.82 -0.381,-1.611 -1.045,-2.17 L 3.782,1.95 C 2.574,0.938 1.282,0 0,0"/></g></g></g><g id="g3285"><g id="g3287"><g id="g3293"><g id="g3295"><path style="fill:url(#linearGradient3297);stroke:none" id="path3305" d="m 317.265,394.799 -13.037,-10.998 c -1.208,-1.013 -2.5,-1.953 -3.782,-1.953 l 0,0 c -0.268,0 -0.524,0.042 -0.764,0.123 l 0,0 c -1.216,0.412 -1.943,1.608 -1.943,3.197 l 0,0 0,-1.15 c 0,-1.588 0.727,-2.785 1.943,-3.197 l 0,0 c 0.24,-0.08 0.496,-0.12 0.764,-0.12 l 0,0 c 1.282,0 2.574,0.938 3.782,1.95 l 0,0 13.037,10.999 c 0.665,0.557 1.045,1.348 1.045,2.168 l 0,0 c 0,0.193 -0.027,0.385 -0.068,0.571 l 0,0 c -0.134,-0.606 -0.473,-1.165 -0.977,-1.59"/></g></g></g></g><g id="g3307"><g id="g3309"><g id="g3315"><g id="g3317"><path style="fill:url(#radialGradient3319);stroke:none" id="path3325" d="m 300.055,410.186 c -0.708,-0.242 -1.164,-0.985 -1.164,-2.11 l 0,0 0,-11.799 0,-11.796 c 0,-1.127 0.456,-1.869 1.164,-2.108 l 0,0 c 1.04,-0.354 2.586,0.913 3.428,1.619 l 0,0 13.036,10.998 c 0.846,0.711 0.846,1.866 0,2.571 l 0,0 -13.036,11.001 c -0.743,0.627 -2.033,1.684 -3.04,1.684 l 0,0 c -0.135,0 -0.265,-0.019 -0.388,-0.06"/></g></g></g></g></g></svg>