<svg xmlns="http://www.w3.org/2000/svg" xmlns:svg="http://www.w3.org/2000/svg" id="svg5937" width="151.165" height="60.646" version="1.1" xml:space="preserve"><metadata id="metadata5943"/><defs id="defs5941"><linearGradient id="linearGradient5959" x1="0" x2="1" y1="0" y2="0" gradientTransform="matrix(0,48.516602,48.516602,0,612.56104,587.73047)" gradientUnits="userSpaceOnUse" spreadMethod="pad"><stop style="stop-opacity:1;stop-color:#4d4c4e" id="stop5961" offset="0"/><stop style="stop-opacity:1;stop-color:#373535" id="stop5963" offset="1"/></linearGradient><linearGradient id="linearGradient5979" x1="0" x2="1" y1="0" y2="0" gradientTransform="matrix(0,44.821289,44.821289,0,612.56006,589.57812)" gradientUnits="userSpaceOnUse" spreadMethod="pad"><stop style="stop-opacity:1;stop-color:#373535" id="stop5981" offset="0"/><stop style="stop-opacity:1;stop-color:#4d4c4e" id="stop5983" offset="1"/></linearGradient><linearGradient id="linearGradient5999" x1="0" x2="1" y1="0" y2="0" gradientTransform="matrix(44.821289,0,0,-44.821289,590.14941,623.05713)" gradientUnits="userSpaceOnUse" spreadMethod="pad"><stop style="stop-opacity:1;stop-color:#373535" id="stop6001" offset="0"/><stop style="stop-opacity:1;stop-color:#82d4f7" id="stop6003" offset=".508"/><stop style="stop-opacity:1;stop-color:#373535" id="stop6005" offset="1"/></linearGradient><linearGradient id="linearGradient6021" x1="0" x2="1" y1="0" y2="0" gradientTransform="matrix(44.821289,0,0,44.821289,590.14941,600.91895)" gradientUnits="userSpaceOnUse" spreadMethod="pad"><stop style="stop-opacity:1;stop-color:#373535" id="stop6023" offset="0"/><stop style="stop-opacity:1;stop-color:#82d4f7" id="stop6025" offset=".508"/><stop style="stop-opacity:1;stop-color:#373535" id="stop6027" offset="1"/></linearGradient><clipPath id="clipPath6035" clipPathUnits="userSpaceOnUse"><path id="path6037" d="m 0,1224 1224,0 L 1224,0 0,0 0,1224 z"/></clipPath><linearGradient id="linearGradient6055" x1="0" x2="1" y1="0" y2="0" gradientTransform="matrix(16.457031,0,0,-16.457031,605.97461,606.07812)" gradientUnits="userSpaceOnUse" spreadMethod="pad"><stop style="stop-opacity:1;stop-color:#373535" id="stop6057" offset="0"/><stop style="stop-opacity:1;stop-color:#82d4f7" id="stop6059" offset=".508"/><stop style="stop-opacity:1;stop-color:#373535" id="stop6061" offset="1"/></linearGradient><radialGradient id="radialGradient6077" cx="0" cy="0" r="1" fx="0" fy="0" gradientTransform="matrix(31.557404,0,0,-31.557388,605.45605,625.66602)" gradientUnits="userSpaceOnUse" spreadMethod="pad"><stop style="stop-opacity:1;stop-color:#007da8" id="stop6079" offset="0"/><stop style="stop-opacity:1;stop-color:#69cef6" id="stop6081" offset="1"/></radialGradient><linearGradient id="linearGradient6097" x1="0" x2="1" y1="0" y2="0" gradientTransform="matrix(0,43.900879,-43.900879,0,655.12402,590.03809)" gradientUnits="userSpaceOnUse" spreadMethod="pad"><stop style="stop-opacity:1;stop-color:#4d4c4e" id="stop6099" offset="0"/><stop style="stop-opacity:1;stop-color:#373535" id="stop6101" offset="1"/></linearGradient><linearGradient id="linearGradient6117" x1="0" x2="1" y1="0" y2="0" gradientTransform="matrix(0,40.205566,-40.205566,0,655.57227,591.88574)" gradientUnits="userSpaceOnUse" spreadMethod="pad"><stop style="stop-opacity:1;stop-color:#373535" id="stop6119" offset="0"/><stop style="stop-opacity:1;stop-color:#4d4c4e" id="stop6121" offset="1"/></linearGradient><linearGradient id="linearGradient6137" x1="0" x2="1" y1="0" y2="0" gradientTransform="matrix(-31.212891,0,0,-31.212891,671.17871,621.90283)" gradientUnits="userSpaceOnUse" spreadMethod="pad"><stop style="stop-opacity:1;stop-color:#373535" id="stop6139" offset="0"/><stop style="stop-opacity:1;stop-color:#82d4f7" id="stop6141" offset=".492"/><stop style="stop-opacity:1;stop-color:#373535" id="stop6143" offset="1"/></linearGradient><linearGradient id="linearGradient6159" x1="0" x2="1" y1="0" y2="0" gradientTransform="matrix(-31.212891,0,0,31.212891,671.17871,602.07617)" gradientUnits="userSpaceOnUse" spreadMethod="pad"><stop style="stop-opacity:1;stop-color:#373535" id="stop6161" offset="0"/><stop style="stop-opacity:1;stop-color:#82d4f7" id="stop6163" offset=".492"/><stop style="stop-opacity:1;stop-color:#373535" id="stop6165" offset="1"/></linearGradient><clipPath id="clipPath6173" clipPathUnits="userSpaceOnUse"><path id="path6175" d="m 0,1224 1224,0 L 1224,0 0,0 0,1224 z"/></clipPath><linearGradient id="linearGradient6193" x1="0" x2="1" y1="0" y2="0" gradientTransform="matrix(7.5996094,0,0,-7.5996094,648.80469,608.83008)" gradientUnits="userSpaceOnUse" spreadMethod="pad"><stop style="stop-opacity:1;stop-color:#373535" id="stop6195" offset="0"/><stop style="stop-opacity:1;stop-color:#82d4f7" id="stop6197" offset=".492"/><stop style="stop-opacity:1;stop-color:#373535" id="stop6199" offset="1"/></linearGradient><linearGradient id="linearGradient6215" x1="0" x2="1" y1="0" y2="0" gradientTransform="matrix(7.4970703,0,0,-7.4970703,656.4043,608.78516)" gradientUnits="userSpaceOnUse" spreadMethod="pad"><stop style="stop-opacity:1;stop-color:#373535" id="stop6217" offset="0"/><stop style="stop-opacity:1;stop-color:#82d4f7" id="stop6219" offset=".492"/><stop style="stop-opacity:1;stop-color:#373535" id="stop6221" offset="1"/></linearGradient><linearGradient id="linearGradient6237" x1="0" x2="1" y1="0" y2="0" gradientTransform="matrix(3.4628906,0,0,-3.4628906,663.90137,607.33203)" gradientUnits="userSpaceOnUse" spreadMethod="pad"><stop style="stop-opacity:1;stop-color:#373535" id="stop6239" offset="0"/><stop style="stop-opacity:1;stop-color:#82d4f7" id="stop6241" offset=".492"/><stop style="stop-opacity:1;stop-color:#373535" id="stop6243" offset="1"/></linearGradient><radialGradient id="radialGradient6259" cx="0" cy="0" r="1" fx="0" fy="0" gradientTransform="matrix(14.303192,0,0,-14.303192,647.87207,621.47852)" gradientUnits="userSpaceOnUse" spreadMethod="pad"><stop style="stop-opacity:1;stop-color:#69cef6" id="stop6261" offset="0"/><stop style="stop-opacity:1;stop-color:#007da8" id="stop6263" offset="1"/></radialGradient><radialGradient id="radialGradient6279" cx="0" cy="0" r="1" fx="0" fy="0" gradientTransform="matrix(14.302338,0,0,-14.302338,655.47461,621.47852)" gradientUnits="userSpaceOnUse" spreadMethod="pad"><stop style="stop-opacity:1;stop-color:#69cef6" id="stop6281" offset="0"/><stop style="stop-opacity:1;stop-color:#007da8" id="stop6283" offset="1"/></radialGradient><radialGradient id="radialGradient6299" cx="0" cy="0" r="1" fx="0" fy="0" gradientTransform="matrix(15.815033,0,0,-12.37677,664.40234,621.47852)" gradientUnits="userSpaceOnUse" spreadMethod="pad"><stop style="stop-opacity:1;stop-color:#69cef6" id="stop6301" offset="0"/><stop style="stop-opacity:1;stop-color:#007da8" id="stop6303" offset="1"/></radialGradient><linearGradient id="linearGradient6319" x1="0" x2="1" y1="0" y2="0" gradientTransform="matrix(0,43.899414,43.899414,0,569.99658,590.03906)" gradientUnits="userSpaceOnUse" spreadMethod="pad"><stop style="stop-opacity:1;stop-color:#4d4c4e" id="stop6321" offset="0"/><stop style="stop-opacity:1;stop-color:#373535" id="stop6323" offset="1"/></linearGradient><linearGradient id="linearGradient6339" x1="0" x2="1" y1="0" y2="0" gradientTransform="matrix(0,40.204102,40.204102,0,569.54883,591.88672)" gradientUnits="userSpaceOnUse" spreadMethod="pad"><stop style="stop-opacity:1;stop-color:#373535" id="stop6341" offset="0"/><stop style="stop-opacity:1;stop-color:#4d4c4e" id="stop6343" offset="1"/></linearGradient><linearGradient id="linearGradient6359" x1="0" x2="1" y1="0" y2="0" gradientTransform="matrix(31.214844,0,0,-31.214844,553.94141,621.90283)" gradientUnits="userSpaceOnUse" spreadMethod="pad"><stop style="stop-opacity:1;stop-color:#373535" id="stop6361" offset="0"/><stop style="stop-opacity:1;stop-color:#82d4f7" id="stop6363" offset=".492"/><stop style="stop-opacity:1;stop-color:#373535" id="stop6365" offset="1"/></linearGradient><linearGradient id="linearGradient6381" x1="0" x2="1" y1="0" y2="0" gradientTransform="matrix(31.214844,0,0,31.214844,553.94141,602.07617)" gradientUnits="userSpaceOnUse" spreadMethod="pad"><stop style="stop-opacity:1;stop-color:#373535" id="stop6383" offset="0"/><stop style="stop-opacity:1;stop-color:#82d4f7" id="stop6385" offset=".492"/><stop style="stop-opacity:1;stop-color:#373535" id="stop6387" offset="1"/></linearGradient><clipPath id="clipPath6395" clipPathUnits="userSpaceOnUse"><path id="path6397" d="m 0,1224 1224,0 L 1224,0 0,0 0,1224 z"/></clipPath><linearGradient id="linearGradient6415" x1="0" x2="1" y1="0" y2="0" gradientTransform="matrix(-7.6005859,0,0,-7.6005859,576.31641,608.83008)" gradientUnits="userSpaceOnUse" spreadMethod="pad"><stop style="stop-opacity:1;stop-color:#373535" id="stop6417" offset="0"/><stop style="stop-opacity:1;stop-color:#82d4f7" id="stop6419" offset=".492"/><stop style="stop-opacity:1;stop-color:#373535" id="stop6421" offset="1"/></linearGradient><linearGradient id="linearGradient6437" x1="0" x2="1" y1="0" y2="0" gradientTransform="matrix(-7.4970703,0,0,-7.4970703,568.71582,608.78516)" gradientUnits="userSpaceOnUse" spreadMethod="pad"><stop style="stop-opacity:1;stop-color:#373535" id="stop6439" offset="0"/><stop style="stop-opacity:1;stop-color:#82d4f7" id="stop6441" offset=".492"/><stop style="stop-opacity:1;stop-color:#373535" id="stop6443" offset="1"/></linearGradient><linearGradient id="linearGradient6459" x1="0" x2="1" y1="0" y2="0" gradientTransform="matrix(-3.4628906,0,0,-3.4628906,561.21875,607.33203)" gradientUnits="userSpaceOnUse" spreadMethod="pad"><stop style="stop-opacity:1;stop-color:#373535" id="stop6461" offset="0"/><stop style="stop-opacity:1;stop-color:#82d4f7" id="stop6463" offset=".492"/><stop style="stop-opacity:1;stop-color:#373535" id="stop6465" offset="1"/></linearGradient><radialGradient id="radialGradient6481" cx="0" cy="0" r="1" fx="0" fy="0" gradientTransform="matrix(-14.303635,0,0,-14.303635,577.24609,621.47852)" gradientUnits="userSpaceOnUse" spreadMethod="pad"><stop style="stop-opacity:1;stop-color:#69cef6" id="stop6483" offset="0"/><stop style="stop-opacity:1;stop-color:#007da8" id="stop6485" offset="1"/></radialGradient><radialGradient id="radialGradient6501" cx="0" cy="0" r="1" fx="0" fy="0" gradientTransform="matrix(-14.303635,0,0,-14.303635,569.64551,621.47852)" gradientUnits="userSpaceOnUse" spreadMethod="pad"><stop style="stop-opacity:1;stop-color:#69cef6" id="stop6503" offset="0"/><stop style="stop-opacity:1;stop-color:#007da8" id="stop6505" offset="1"/></radialGradient><radialGradient id="radialGradient6521" cx="0" cy="0" r="1" fx="0" fy="0" gradientTransform="matrix(-15.815125,0,0,-12.376846,560.72266,621.47852)" gradientUnits="userSpaceOnUse" spreadMethod="pad"><stop style="stop-opacity:1;stop-color:#69cef6" id="stop6523" offset="0"/><stop style="stop-opacity:1;stop-color:#007da8" id="stop6525" offset="1"/></radialGradient></defs><g id="g5945" transform="matrix(1.25,0,0,-1.25,-690.11625,795.31)"><g id="g5947"><g id="g5949"><g id="g5955"><g id="g5957"><path style="fill:url(#linearGradient5959);stroke:none" id="path5965" d="m 588.303,611.99 c 0,-13.4 10.861,-24.259 24.258,-24.259 l 0,0 c 13.398,0 24.257,10.859 24.257,24.259 l 0,0 c 0,13.397 -10.859,24.258 -24.257,24.258 l 0,0 c -13.397,0 -24.258,-10.861 -24.258,-24.258"/></g></g></g></g><g id="g5967"><g id="g5969"><g id="g5975"><g id="g5977"><path style="fill:url(#linearGradient5979);stroke:none" id="path5985" d="m 590.15,611.99 c 0,-12.357 10.053,-22.412 22.411,-22.412 l 0,0 c 12.358,0 22.41,10.055 22.41,22.412 l 0,0 c 0,12.357 -10.052,22.41 -22.41,22.41 l 0,0 c -12.358,0 -22.411,-10.053 -22.411,-22.41"/></g></g></g></g><g id="g5987"><g id="g5989"><g id="g5995"><g id="g5997"><path style="fill:url(#linearGradient5999);stroke:none" id="path6007" d="m 590.15,611.99 c 0,-0.094 0.012,-0.182 0.014,-0.275 l 0,0 c 0.15,12.229 10.133,22.134 22.397,22.134 l 0,0 c 12.264,0 22.246,-9.905 22.395,-22.134 l 0,0 c 0.003,0.093 0.015,0.181 0.015,0.275 l 0,0 c 0,12.357 -10.052,22.41 -22.41,22.41 l 0,0 c -12.358,0 -22.411,-10.053 -22.411,-22.41"/></g></g></g></g><g id="g6009"><g id="g6011"><g id="g6017"><g id="g6019"><path style="fill:url(#linearGradient6021);stroke:none" id="path6029" d="m 612.561,590.127 c -12.264,0 -22.247,9.904 -22.397,22.134 l 0,0 c -0.002,-0.094 -0.014,-0.182 -0.014,-0.275 l 0,0 c 0,-12.359 10.053,-22.41 22.411,-22.41 l 0,0 c 12.358,0 22.41,10.051 22.41,22.41 l 0,0 c 0,0.093 -0.012,0.181 -0.015,0.275 l 0,0 c -0.149,-12.23 -10.131,-22.134 -22.395,-22.134"/></g></g></g></g><g id="g6031"><g id="g6033" clip-path="url(#clipPath6035)"><g id="g6039" transform="translate(608.1406,600.1699)"><path style="fill:#373535;fill-opacity:1;fill-rule:nonzero;stroke:none" id="path6041" d="m 0,0 c -0.214,0 -0.419,0.031 -0.611,0.096 -0.973,0.332 -1.555,1.287 -1.555,2.56 l 0,18.877 c 0,1.271 0.582,2.229 1.555,2.562 0.193,0.065 0.397,0.096 0.608,0.096 1.026,0 2.063,-0.75 3.026,-1.561 l 10.433,-8.802 c 0.527,-0.444 0.832,-1.076 0.835,-1.732 0,-0.657 -0.305,-1.289 -0.835,-1.737 L 3.025,1.561 C 2.06,0.75 1.025,0 0,0"/></g></g></g><g id="g6043"><g id="g6045"><g id="g6051"><g id="g6053"><path style="fill:url(#linearGradient6055);stroke:none" id="path6063" d="m 621.597,611.081 -10.431,-8.797 c -0.966,-0.811 -2,-1.564 -3.025,-1.564 l 0,0 c -0.214,0 -0.42,0.034 -0.611,0.098 l 0,0 c -0.973,0.331 -1.556,1.287 -1.556,2.559 l 0,0 0,-0.92 c 0,-1.271 0.583,-2.228 1.556,-2.558 l 0,0 c 0.191,-0.065 0.397,-0.097 0.611,-0.097 l 0,0 c 1.025,0 2.059,0.751 3.025,1.561 l 0,0 10.431,8.799 c 0.53,0.446 0.835,1.078 0.835,1.735 l 0,0 c 0,0.153 -0.021,0.307 -0.055,0.457 l 0,0 c -0.106,-0.485 -0.377,-0.933 -0.78,-1.273"/></g></g></g></g><g id="g6065"><g id="g6067"><g id="g6073"><g id="g6075"><path style="fill:url(#radialGradient6077);stroke:none" id="path6083" d="m 607.828,623.39 c -0.567,-0.193 -0.932,-0.787 -0.932,-1.687 l 0,0 0,-9.44 0,-9.437 c 0,-0.901 0.365,-1.494 0.932,-1.685 l 0,0 c 0.832,-0.284 2.069,0.73 2.742,1.295 l 0,0 10.43,8.799 c 0.676,0.568 0.676,1.491 0,2.057 l 0,0 -10.43,8.801 c -0.594,0.5 -1.626,1.346 -2.432,1.346 l 0,0 c -0.108,0 -0.211,-0.015 -0.31,-0.049"/></g></g></g></g><g id="g6085"><g id="g6087"><g id="g6093"><g id="g6095"><path style="fill:url(#linearGradient6097);stroke:none" id="path6103" d="m 637.222,629.007 c 4.315,-4.377 6.983,-10.384 6.983,-17.017 l 0,0 c 0,-6.633 -2.668,-12.639 -6.983,-17.022 l 0,0 c 3.781,-3.078 8.598,-4.929 13.854,-4.929 l 0,0 c 12.122,0 21.949,9.828 21.949,21.951 l 0,0 c 0,12.12 -9.827,21.949 -21.949,21.949 l 0,0 c -5.256,0 -10.073,-1.852 -13.854,-4.932"/></g></g></g></g><g id="g6105"><g id="g6107"><g id="g6113"><g id="g6115"><path style="fill:url(#linearGradient6117);stroke:none" id="path6123" d="m 639.966,628.735 c 3.938,-4.692 6.086,-10.562 6.086,-16.745 l 0,0 c 0,-6.184 -2.148,-12.055 -6.086,-16.748 l 0,0 c 3.28,-2.175 7.157,-3.355 11.11,-3.355 l 0,0 c 11.085,0 20.103,9.017 20.103,20.103 l 0,0 c 0,11.084 -9.018,20.102 -20.103,20.102 l 0,0 c -3.953,0 -7.83,-1.181 -11.11,-3.357"/></g></g></g></g><g id="g6125"><g id="g6127"><g id="g6133"><g id="g6135"><path style="fill:url(#linearGradient6137);stroke:none" id="path6145" d="m 639.966,628.735 c 0.102,-0.121 0.189,-0.252 0.288,-0.374 l 0,0 c 3.219,2.055 6.984,3.18 10.822,3.18 l 0,0 c 10.991,0 19.939,-8.872 20.088,-19.826 l 0,0 c 0.003,0.093 0.015,0.181 0.015,0.275 l 0,0 c 0,11.084 -9.018,20.102 -20.103,20.102 l 0,0 c -3.953,0 -7.83,-1.181 -11.11,-3.357"/></g></g></g></g><g id="g6147"><g id="g6149"><g id="g6155"><g id="g6157"><path style="fill:url(#linearGradient6159);stroke:none" id="path6167" d="m 651.076,592.439 c -3.838,0 -7.603,1.124 -10.822,3.18 l 0,0 c -0.099,-0.123 -0.186,-0.254 -0.288,-0.375 l 0,0 c 3.28,-2.176 7.157,-3.357 11.11,-3.357 l 0,0 c 11.085,0 20.103,9.017 20.103,20.103 l 0,0 c 0,0.094 -0.012,0.182 -0.015,0.276 l 0,0 c -0.149,-10.957 -9.097,-19.827 -20.088,-19.827"/></g></g></g></g><g id="g6169"><g id="g6171" clip-path="url(#clipPath6173)"><g id="g6177" transform="translate(665.6328,618.2534)"><path style="fill:#373535;fill-opacity:1;fill-rule:nonzero;stroke:none" id="path6179" d="m 0,0 c -0.953,0 -1.731,-0.697 -1.731,-1.555 l 0,-2.914 -4.314,3.643 C -6.555,-0.397 -7.115,0 -7.742,0 l -0.295,-0.022 -0.147,-0.05 c -0.644,-0.223 -1.045,-0.85 -1.045,-1.638 l 0,-2.847 -4.42,3.732 C -14.16,-0.397 -14.721,0 -15.344,0 l -0.292,-0.022 -0.146,-0.05 c -0.646,-0.22 -1.046,-0.848 -1.046,-1.638 l 0,-8.555 c 0,-0.791 0.4,-1.418 1.047,-1.641 l 0.287,-0.07 0.151,0 c 0.628,0 1.187,0.398 1.698,0.828 l 4.416,3.727 0,-2.844 c 0,-0.789 0.401,-1.416 1.052,-1.641 l 0.284,-0.07 0.153,0 c 0.631,0 1.189,0.398 1.696,0.828 l 4.313,3.637 0,-2.908 c 0,-0.86 0.778,-1.557 1.731,-1.557 0.955,0 1.731,0.697 1.731,1.557 l 0,8.864 C 1.731,-0.697 0.955,0 0,0"/></g></g></g><g id="g6181"><g id="g6183"><g id="g6189"><g id="g6191"><path style="fill:url(#linearGradient6193);stroke:none" id="path6201" d="m 651.988,607.658 c -0.511,-0.432 -1.07,-0.828 -1.698,-0.828 l 0,0 -0.152,0 -0.287,0.071 c -0.646,0.22 -1.046,0.849 -1.046,1.638 l 0,0 0,-0.55 c 0,-0.791 0.4,-1.419 1.046,-1.641 l 0,0 0.287,-0.071 0.152,0 c 0.628,0 1.187,0.399 1.698,0.829 l 0,0 4.416,3.726 0,0.551 -4.416,-3.725 z"/></g></g></g></g><g id="g6203"><g id="g6205"><g id="g6211"><g id="g6213"><path style="fill:url(#linearGradient6215);stroke:none" id="path6223" d="m 659.589,607.658 c -0.507,-0.43 -1.065,-0.828 -1.696,-0.828 l 0,0 -0.153,0 -0.284,0.071 c -0.651,0.222 -1.052,0.851 -1.052,1.638 l 0,0 0,-0.55 c 0,-0.79 0.401,-1.417 1.052,-1.641 l 0,0 0.284,-0.071 0.153,0 c 0.631,0 1.189,0.399 1.696,0.829 l 0,0 4.312,3.636 0,0.551 -4.312,-3.635 z"/></g></g></g></g><g id="g6225"><g id="g6227"><g id="g6233"><g id="g6235"><path style="fill:url(#linearGradient6237);stroke:none" id="path6245" d="m 665.633,606.83 c -0.953,0 -1.732,0.697 -1.732,1.556 l 0,0 0,-0.552 c 0,-0.86 0.779,-1.557 1.732,-1.557 l 0,0 c 0.955,0 1.731,0.697 1.731,1.557 l 0,0 0,0.552 c 0,-0.859 -0.776,-1.556 -1.731,-1.556"/></g></g></g></g><g id="g6247"><g id="g6249"><g id="g6255"><g id="g6257"><path style="fill:url(#radialGradient6259);stroke:none" id="path6265" d="m 650.149,617.308 c -0.257,-0.088 -0.422,-0.357 -0.422,-0.765 l 0,0 0,-4.277 0,-4.277 c 0,-0.411 0.165,-0.679 0.422,-0.766 l 0,0 c 0.378,-0.127 0.937,0.33 1.244,0.587 l 0,0 4.727,3.988 c 0.308,0.258 0.308,0.676 0,0.932 l 0,0 -4.727,3.99 c -0.271,0.226 -0.738,0.61 -1.104,0.61 l 0,0 c -0.049,0 -0.096,-0.007 -0.14,-0.022"/></g></g></g></g><g id="g6267"><g id="g6269"><g id="g6275"><g id="g6277"><path style="fill:url(#radialGradient6279);stroke:none" id="path6285" d="m 657.75,617.308 c -0.256,-0.088 -0.422,-0.357 -0.422,-0.765 l 0,0 0,-4.277 0,-4.277 c 0,-0.411 0.166,-0.679 0.422,-0.766 l 0,0 c 0.379,-0.127 0.939,0.33 1.244,0.587 l 0,0 4.726,3.988 c 0.307,0.258 0.307,0.676 0,0.932 l 0,0 -4.726,3.99 c -0.269,0.226 -0.737,0.61 -1.104,0.61 l 0,0 c -0.049,0 -0.096,-0.007 -0.14,-0.022"/></g></g></g></g><g id="g6287"><g id="g6289"><g id="g6295"><g id="g6297"><path style="fill:url(#radialGradient6299);stroke:none" id="path6305" d="m 664.826,616.699 0,-8.865 c 0,-0.347 0.361,-0.633 0.807,-0.633 l 0,0 c 0.443,0 0.808,0.286 0.808,0.633 l 0,0 0,8.865 c 0,0.348 -0.365,0.631 -0.808,0.631 l 0,0 c -0.446,0 -0.807,-0.283 -0.807,-0.631"/></g></g></g></g><g id="g6307"><g id="g6309"><g id="g6315"><g id="g6317"><path style="fill:url(#linearGradient6319);stroke:none" id="path6325" d="m 552.093,611.99 c 0,-12.123 9.829,-21.951 21.95,-21.951 l 0,0 c 5.255,0 10.076,1.851 13.857,4.929 l 0,0 c -4.318,4.383 -6.985,10.389 -6.985,17.022 l 0,0 c 0,6.633 2.667,12.64 6.985,17.017 l 0,0 c -3.781,3.08 -8.602,4.932 -13.857,4.932 l 0,0 c -12.121,0 -21.95,-9.829 -21.95,-21.949"/></g></g></g></g><g id="g6327"><g id="g6329"><g id="g6335"><g id="g6337"><path style="fill:url(#linearGradient6339);stroke:none" id="path6345" d="m 553.941,611.99 c 0,-11.086 9.018,-20.103 20.102,-20.103 l 0,0 c 3.954,0 7.832,1.18 11.114,3.355 l 0,0 c -3.941,4.693 -6.088,10.564 -6.088,16.748 l 0,0 c 0,6.183 2.147,12.053 6.088,16.745 l 0,0 c -3.282,2.176 -7.16,3.357 -11.114,3.357 l 0,0 c -11.084,0 -20.102,-9.018 -20.102,-20.102"/></g></g></g></g><g id="g6347"><g id="g6349"><g id="g6355"><g id="g6357"><path style="fill:url(#linearGradient6359);stroke:none" id="path6367" d="m 553.941,611.99 c 0,-0.094 0.014,-0.182 0.015,-0.275 l 0,0 c 0.15,10.954 9.097,19.826 20.087,19.826 l 0,0 c 3.842,0 7.604,-1.125 10.824,-3.18 l 0,0 c 0.1,0.122 0.186,0.253 0.29,0.374 l 0,0 c -3.282,2.176 -7.16,3.357 -11.114,3.357 l 0,0 c -11.084,0 -20.102,-9.018 -20.102,-20.102"/></g></g></g></g><g id="g6369"><g id="g6371"><g id="g6377"><g id="g6379"><path style="fill:url(#linearGradient6381);stroke:none" id="path6389" d="m 553.941,611.99 c 0,-11.086 9.018,-20.103 20.102,-20.103 l 0,0 c 3.954,0 7.832,1.181 11.114,3.357 l 0,0 c -0.104,0.121 -0.19,0.252 -0.29,0.375 l 0,0 c -3.22,-2.056 -6.982,-3.18 -10.824,-3.18 l 0,0 c -10.99,0 -19.937,8.87 -20.087,19.827 l 0,0 c -10e-4,-0.094 -0.015,-0.182 -0.015,-0.276"/></g></g></g></g><g id="g6391"><g id="g6393" clip-path="url(#clipPath6395)"><g id="g6399" transform="translate(559.4873,618.2534)"><path style="fill:#373535;fill-opacity:1;fill-rule:nonzero;stroke:none" id="path6401" d="m 0,0 c 0.955,0 1.731,-0.697 1.731,-1.555 l 0,-2.914 4.315,3.643 C 6.557,-0.397 7.114,0 7.743,0 l 0.296,-0.022 0.146,-0.05 c 0.644,-0.223 1.044,-0.85 1.044,-1.638 l 0,-2.847 4.42,3.732 C 14.162,-0.397 14.72,0 15.345,0 l 0.293,-0.022 0.146,-0.05 c 0.645,-0.22 1.045,-0.848 1.045,-1.638 l 0,-8.555 c 0,-0.791 -0.4,-1.418 -1.049,-1.641 l -0.285,-0.07 -0.152,0 c -0.627,0 -1.187,0.398 -1.697,0.828 l -4.417,3.727 0,-2.844 c 0,-0.789 -0.4,-1.416 -1.05,-1.641 l -0.286,-0.07 -0.152,0 c -0.631,0 -1.19,0.398 -1.697,0.828 l -4.313,3.637 0,-2.908 c 0,-0.86 -0.776,-1.557 -1.731,-1.557 -0.954,0 -1.731,0.697 -1.731,1.557 l 0,8.864 C -1.731,-0.697 -0.954,0 0,0"/></g></g></g><g id="g6403"><g id="g6405"><g id="g6411"><g id="g6413"><path style="fill:url(#linearGradient6415);stroke:none" id="path6423" d="m 568.715,610.832 4.418,-3.726 c 0.511,-0.43 1.07,-0.829 1.697,-0.829 l 0,0 0.152,0 0.285,0.071 c 0.649,0.222 1.05,0.85 1.05,1.641 l 0,0 0,0.55 c 0,-0.789 -0.401,-1.418 -1.05,-1.638 l 0,0 -0.285,-0.071 -0.152,0 c -0.627,0 -1.186,0.396 -1.697,0.828 l 0,0 -4.418,3.725 0,-0.551 z"/></g></g></g></g><g id="g6425"><g id="g6427"><g id="g6433"><g id="g6435"><path style="fill:url(#linearGradient6437);stroke:none" id="path6445" d="m 561.218,610.742 4.313,-3.636 c 0.507,-0.43 1.067,-0.829 1.698,-0.829 l 0,0 0.151,0 0.286,0.071 c 0.651,0.224 1.049,0.851 1.049,1.641 l 0,0 0,0.55 c 0,-0.787 -0.398,-1.416 -1.049,-1.638 l 0,0 -0.286,-0.071 -0.151,0 c -0.631,0 -1.191,0.398 -1.698,0.828 l 0,0 -4.313,3.635 0,-0.551 z"/></g></g></g></g><g id="g6447"><g id="g6449"><g id="g6455"><g id="g6457"><path style="fill:url(#linearGradient6459);stroke:none" id="path6467" d="m 559.488,606.83 c -0.955,0 -1.732,0.697 -1.732,1.556 l 0,0 0,-0.552 c 0,-0.86 0.777,-1.557 1.732,-1.557 l 0,0 c 0.955,0 1.73,0.697 1.73,1.557 l 0,0 0,0.552 c 0,-0.859 -0.775,-1.556 -1.73,-1.556"/></g></g></g></g><g id="g6469"><g id="g6471"><g id="g6477"><g id="g6479"><path style="fill:url(#radialGradient6481);stroke:none" id="path6487" d="m 573.728,616.72 -4.726,-3.99 c -0.31,-0.256 -0.31,-0.674 0,-0.932 l 0,0 4.726,-3.988 c 0.307,-0.257 0.865,-0.714 1.242,-0.587 l 0,0 c 0.259,0.087 0.422,0.355 0.422,0.766 l 0,0 0,4.277 0,4.277 c 0,0.408 -0.163,0.677 -0.422,0.765 l 0,0 c -0.044,0.015 -0.09,0.022 -0.139,0.022 l 0,0 c -0.365,0 -0.832,-0.384 -1.103,-0.61"/></g></g></g></g><g id="g6489"><g id="g6491"><g id="g6497"><g id="g6499"><path style="fill:url(#radialGradient6501);stroke:none" id="path6507" d="m 566.126,616.72 -4.728,-3.99 c -0.306,-0.256 -0.306,-0.674 0,-0.932 l 0,0 4.728,-3.988 c 0.304,-0.257 0.864,-0.714 1.245,-0.587 l 0,0 c 0.256,0.087 0.422,0.355 0.422,0.766 l 0,0 0,4.277 0,4.277 c 0,0.408 -0.166,0.677 -0.422,0.765 l 0,0 c -0.045,0.015 -0.092,0.022 -0.141,0.022 l 0,0 c -0.368,0 -0.835,-0.384 -1.104,-0.61"/></g></g></g></g><g id="g6509"><g id="g6511"><g id="g6517"><g id="g6519"><path style="fill:url(#radialGradient6521);stroke:none" id="path6527" d="m 558.68,616.699 0,-8.865 c 0,-0.347 0.363,-0.633 0.808,-0.633 l 0,0 c 0.444,0 0.808,0.286 0.808,0.633 l 0,0 0,8.865 c 0,0.348 -0.364,0.631 -0.808,0.631 l 0,0 c -0.445,0 -0.808,-0.283 -0.808,-0.631"/></g></g></g></g></g></svg>