<svg xmlns="http://www.w3.org/2000/svg" xmlns:svg="http://www.w3.org/2000/svg" xmlns:xlink="http://www.w3.org/1999/xlink" id="Layer_1" width="29.333" height="29.271" x="0" y="0" enable-background="new 0 0 29.333 29.271" version="1.1" viewBox="0 0 29.333 29.271" xml:space="preserve"><path fill="#FFF" d="M10.352,12.458V4.619c0-2.382,1.935-4.313,4.317-4.313c2.385,0,4.314,1.932,4.314,4.313v7.839	c0,2.386-1.93,4.32-4.314,4.32C12.287,16.778,10.352,14.844,10.352,12.458z M22.141,8.489c-0.549,0-0.984,0.439-0.984,0.984v3.83	c0,3.576-2.916,6.485-6.487,6.485c-3.577,0-6.489-2.909-6.489-6.485v-3.83c0-0.545-0.439-0.984-0.987-0.984	c-0.544,0-0.987,0.439-0.987,0.984v3.83c0,4.23,3.133,7.715,7.194,8.332c0,0.017-0.007,0.029-0.007,0.048v4.853h-0.882	c-0.648,0-1.172,0.524-1.172,1.172c0,0.646,0.524,1.172,1.172,1.172h4.315c0.648,0,1.168-0.525,1.168-1.172	c0-0.647-0.52-1.172-1.168-1.172h-0.885v-4.853c0-0.019-0.008-0.031-0.008-0.048c4.061-0.617,7.191-4.102,7.191-8.332v-3.83	C23.125,8.928,22.685,8.489,22.141,8.489z"/></svg>