<svg xmlns="http://www.w3.org/2000/svg" xmlns:svg="http://www.w3.org/2000/svg" xmlns:xlink="http://www.w3.org/1999/xlink" id="Layer_1" width="598.572" height="408.057" x="0" y="0" enable-background="new 0 0 598.572 408.057" version="1.1" viewBox="0 0 598.572 408.057" xml:space="preserve"><rect id="rect3" width="598.572" height="394.057" fill="#717272"/><path id="path5" fill="#343434" d="M593.966,386.729c0,1.385-1.117,2.5-2.5,2.5H7.105	c-1.381,0-2.5-1.115-2.5-2.5V7.865c0-1.38,1.119-2.5,2.5-2.5h584.361c1.383,0,2.5,1.12,2.5,2.5V386.729z"/><path id="path7" fill="#1D1D1D" d="M460.003,130.208h-28.375H153.639h-14.996H14.462V336.19	c0,2.761,2.239,5,5,5h118.084h1.098h14.996h277.989h28.375h1.23h5.02h112.93c2.764,0,5-2.239,5-5V130.208H460.003z"/><polyline id="polyline9" fill="#1D1D1D" points="14.462 130.208 14.462 61.53 584.066 61.53 584.066 128.958 14.235 128.958"/><path id="path163_2_" fill="#FFF" d="M36.315,12.87"/><path id="path163_1_" fill="#FFF" d="M36.315,54.503"/><g id="g165" transform="translate(-156.545,-143.01701)"><path id="path167" fill="#010101" d="M193.005,157.558"/></g></svg>