<svg xmlns="http://www.w3.org/2000/svg" xmlns:svg="http://www.w3.org/2000/svg" id="svg2" width="90.845" height="18.929" version="1.1" xml:space="preserve"><metadata id="metadata8"/><defs id="defs6"><linearGradient id="linearGradient24" x1="0" x2="1" y1="0" y2="0" gradientTransform="matrix(0,15.142578,15.142578,0,612.41113,604.37305)" gradientUnits="userSpaceOnUse" spreadMethod="pad"><stop style="stop-opacity:1;stop-color:#737577" id="stop26" offset="0"/><stop style="stop-opacity:1;stop-color:#373535" id="stop28" offset="1"/></linearGradient><linearGradient id="linearGradient44" x1="0" x2="1" y1="0" y2="0" gradientTransform="matrix(0,13.941406,-13.941406,0,612.41016,604.97363)" gradientUnits="userSpaceOnUse" spreadMethod="pad"><stop style="stop-opacity:1;stop-color:#737577" id="stop46" offset="0"/><stop style="stop-opacity:1;stop-color:#373535" id="stop48" offset="1"/></linearGradient><linearGradient id="linearGradient64" x1="0" x2="1" y1="0" y2="0" gradientTransform="matrix(0,13.094727,-13.094727,0,612.41016,605.39746)" gradientUnits="userSpaceOnUse" spreadMethod="pad"><stop style="stop-opacity:1;stop-color:#373535" id="stop66" offset="0"/><stop style="stop-opacity:1;stop-color:#737577" id="stop68" offset=".995"/><stop style="stop-opacity:1;stop-color:#737577" id="stop70" offset="1"/></linearGradient></defs><g id="g10" transform="matrix(1.25,0,0,-1.25,-720.09125,774.395)"><g id="g12"><g id="g14"><g id="g20"><g id="g22"><path style="fill:url(#linearGradient24);stroke:none" id="path30" d="m 582.384,619.516 c -3.481,0 -6.311,-3.397 -6.311,-7.57 l 0,0 c 0,-4.174 2.83,-7.573 6.311,-7.573 l 0,0 60.056,0 c 3.479,0 6.309,3.399 6.309,7.573 l 0,0 c 0,4.173 -2.83,7.57 -6.309,7.57 l 0,0 -60.056,0 z"/></g></g></g></g><g id="g32"><g id="g34"><g id="g40"><g id="g42"><path style="fill:url(#linearGradient44);stroke:none" id="path50" d="m 582.384,618.916 c -3.149,0 -5.711,-3.129 -5.711,-6.97 l 0,0 c 0,-3.845 2.562,-6.971 5.711,-6.971 l 0,0 60.056,0 c 3.147,0 5.708,3.126 5.708,6.971 l 0,0 c 0,3.841 -2.561,6.97 -5.708,6.97 l 0,0 -60.056,0 z"/></g></g></g></g><g id="g52"><g id="g54"><g id="g60"><g id="g62"><path style="fill:url(#linearGradient64);stroke:none" id="path72" d="m 582.384,618.493 c -2.937,0 -5.327,-2.938 -5.327,-6.547 l 0,0 c 0,-3.612 2.39,-6.548 5.327,-6.548 l 0,0 60.056,0 c 2.935,0 5.322,2.936 5.322,6.548 l 0,0 c 0,3.609 -2.387,6.547 -5.322,6.547 l 0,0 -60.056,0 z"/></g></g></g></g></g></svg>