<svg xmlns="http://www.w3.org/2000/svg" xmlns:svg="http://www.w3.org/2000/svg" xmlns:xlink="http://www.w3.org/1999/xlink" id="Layer_1" width="144" height="35.66" x="0" y="0" enable-background="new 0 0 144 35.66" version="1.1" viewBox="0 0 144 35.66" xml:space="preserve"><path id="path47" fill="#1D1D1D" d="M0,0v35.66h144V0H0z"/><linearGradient id="path9_1_" x1="-983.793" x2="-983.793" y1="-3151.374" y2="-3132.481" gradientTransform="matrix(1 0 0 -1 1056.2432 -3124.4814)" gradientUnits="userSpaceOnUse"><stop offset=".005" style="stop-color:#6e6f71"/><stop offset="1" style="stop-color:#231f20"/></linearGradient><path id="path9" fill="url(#path9_1_)" d="M13.769,26.893c-4.341,0-7.872-4.24-7.872-9.449	c0-5.208,3.529-9.445,7.872-9.445h117.365c4.341,0,7.868,4.236,7.868,9.444c0,5.208-3.527,9.45-7.868,9.45H13.769L13.769,26.893z"/><linearGradient id="path16_1_" x1="-983.793" x2="-983.793" y1="-3150.622" y2="-3133.229" gradientTransform="matrix(1 0 0 -1 1056.2432 -3124.4814)" gradientUnits="userSpaceOnUse"><stop offset=".005" style="stop-color:#6e6f71"/><stop offset="1" style="stop-color:#231f20"/></linearGradient><path id="path16" fill="url(#path16_1_)" d="M131.135,8.748H13.769	c-3.927,0-7.122,3.901-7.122,8.695c0,4.793,3.195,8.698,7.122,8.698h117.365c3.927,0,7.118-3.902,7.118-8.698	C138.253,12.65,135.059,8.748,131.135,8.748L131.135,8.748L131.135,8.748z"/><path id="path43" fill="none" stroke="#919191" stroke-miterlimit="10" d="M13.769,25.614	c-3.662,0-6.643-3.664-6.643-8.17c0-4.503,2.979-8.168,6.643-8.168h117.365c3.657,0,6.646,3.666,6.646,8.168	c0,4.506-2.979,8.17-6.646,8.17H13.769z"/></svg>