<svg xmlns="http://www.w3.org/2000/svg" xmlns:svg="http://www.w3.org/2000/svg" id="Layer_1" width="370.785" height="35.66" x="0" y="0" enable-background="new 0 0 792 612" version="1.1" viewBox="0 0 370.785 35.66" xml:space="preserve"><metadata id="metadata49"/><path id="path47" d="M 0,0 V 35.66 H 370.785 V 0 H 0 z" connector-curvature="0" style="fill:#1d1d1d"/><linearGradient id="SVGID_1_" x1="605.6" x2="605.6" y1="903.354" y2="884.463" gradientTransform="translate(-419.7569,-876.462)" gradientUnits="userSpaceOnUse"><stop style="stop-color:#6e6f71" id="stop5" offset=".005"/><stop style="stop-color:#231f20" id="stop7" offset="1"/></linearGradient><path id="path9" d="m 13.769,26.892 c -4.341,0 -7.872,-4.24 -7.872,-9.448 0,-5.208 3.53,-9.445 7.872,-9.445 h 344.148 c 4.341,0 7.871,4.236 7.871,9.444 0,5.208 -3.531,9.449 -7.871,9.449 H 13.769 l 0,0 z" style="fill:url(#SVGID_1_)"/><linearGradient id="SVGID_2_" x1="605.6" x2="605.6" y1="902.602" y2="885.211" gradientTransform="translate(-419.7569,-876.462)" gradientUnits="userSpaceOnUse"><stop style="stop-color:#6e6f71" id="stop12" offset=".005"/><stop style="stop-color:#231f20" id="stop14" offset="1"/></linearGradient><path id="path16" d="M 357.918,8.748 H 13.769 c -3.926,0 -7.122,3.901 -7.122,8.695 0,4.793 3.196,8.698 7.122,8.698 h 344.148 c 3.927,0 7.121,-3.904 7.121,-8.698 10e-4,-4.793 -3.196,-8.695 -7.12,-8.695 z" style="fill:url(#SVGID_2_)"/><linearGradient id="SVGID_3_" x1="426.885" x2="784.32" y1="893.907" y2="893.907" gradientTransform="translate(-419.7569,-876.462)" gradientUnits="userSpaceOnUse"><stop style="stop-color:#4166ae" id="stop19" offset="0"/><stop style="stop-color:#446cb1" id="stop21" offset=".004"/><stop style="stop-color:#4e8dc4" id="stop23" offset=".032"/><stop style="stop-color:#56a8d2" id="stop25" offset=".06"/><stop style="stop-color:#5dbbde" id="stop27" offset=".089"/><stop style="stop-color:#60c6e3" id="stop29" offset=".119"/><stop style="stop-color:#62cbe5" id="stop31" offset=".15"/><stop style="stop-color:#2eb24b" id="stop33" offset=".3"/><stop style="stop-color:#06a14b" id="stop35" offset=".47"/><stop style="stop-color:#fedd10" id="stop37" offset=".64"/><stop style="stop-color:#f16724" id="stop39" offset=".801"/><stop style="stop-color:#eb2627" id="stop41" offset="1"/></linearGradient><path id="path43" d="m 13.769,25.614 c -3.662,0 -6.642,-3.664 -6.642,-8.17 0,-4.503 2.979,-8.168 6.642,-8.168 h 344.148 c 3.66,0 6.646,3.666 6.646,8.168 0,4.506 -2.981,8.17 -6.646,8.17 H 13.769 z" style="fill:url(#SVGID_3_)"/></svg>