<svg xmlns="http://www.w3.org/2000/svg" xmlns:svg="http://www.w3.org/2000/svg" xmlns:xlink="http://www.w3.org/1999/xlink" id="svg2" width="365.912" height="28.161" x="0" y="0" enable-background="new 0 0 365.912 28.161" version="1.1" viewBox="0 0 365.912 28.161" xml:space="preserve"><g id="g3251" transform="matrix(1.25,0,0,-1.25,-754.57375,911.995)"><g id="g3293"><g><defs><rect id="SVGID_1_" width="1530" height="1529.999" x="-26.176" y="-47.272"/></defs><clipPath id="SVGID_2_"><use overflow="visible" xlink:href="#SVGID_1_"/></clipPath></g></g><g id="g3345"><g><defs><rect id="SVGID_3_" width="1530" height="1529.999" x="-26.176" y="-47.272"/></defs><clipPath id="SVGID_4_"><use overflow="visible" xlink:href="#SVGID_3_"/></clipPath></g></g><g id="g3357"><g id="g3359"><g id="g3365"><g id="g3367"><linearGradient id="path3375_1_" x1="497.929" x2="498.929" y1="394.984" y2="394.984" gradientTransform="matrix(-1.011516e-09 -22.5299 -22.5299 1.011516e-09 9606.5059 11945.7012)" gradientUnits="userSpaceOnUse"><stop offset="0" style="stop-color:#4d4c4e"/><stop offset="1" style="stop-color:#373535"/></linearGradient><path id="path3375" fill="url(#path3375_1_)" d="M631.952,709.386h151.192 c4.969,0,9.011,4.043,9.011,9.011l0,0c0,4.97-4.042,9.012-9.011,9.012l0,0H631.952c-4.971,0-9.013-4.042-9.013-9.012l0,0 C622.939,713.429,626.981,709.386,631.952,709.386"/></g></g></g></g><g id="g3377"><g id="g3379"><g id="g3385"><g id="g3387"><linearGradient id="path3395_1_" x1="496.466" x2="497.466" y1="393.814" y2="393.814" gradientTransform="matrix(-8.498675e-10 -18.9294 -18.9294 8.498675e-10 8162.2451 10123.7832)" gradientUnits="userSpaceOnUse"><stop offset="0" style="stop-color:#373535"/><stop offset="1" style="stop-color:#4d4c4e"/></linearGradient><path id="path3395" fill="url(#path3395_1_)" d="M631.952,710.826h151.192 c4.18,0,7.57,3.391,7.57,7.571l0,0c0,4.184-3.389,7.572-7.57,7.572l0,0H631.952c-4.183,0-7.573-3.388-7.573-7.572l0,0 C624.379,714.217,627.769,710.826,631.952,710.826"/></g></g></g></g><g id="g3397"><g id="g3399"><g id="g3405"><g id="g3407"><linearGradient id="path3417_1_" x1="504.958" x2="505.958" y1="401.966" y2="401.966" gradientTransform="matrix(-207.9193 0 0 207.9193 105781.1797 -82861.6562)" gradientUnits="userSpaceOnUse"><stop offset="0" style="stop-color:#373535"/><stop offset=".508" style="stop-color:#82d4f7"/><stop offset="1" style="stop-color:#373535"/></linearGradient><path id="path3417" fill="url(#path3417_1_)" d="M631.952,710.826h151.192 c4.18,0,7.57,3.391,7.57,7.571l0,0c0,0.049-0.005,0.096-0.007,0.145l0,0c-0.076-4.116-3.43-7.428-7.562-7.428l0,0H631.952 c-4.134,0-7.489,3.312-7.566,7.428l0,0c0-0.048-0.007-0.095-0.007-0.145l0,0C624.379,714.217,627.769,710.826,631.952,710.826"/></g></g></g></g><g id="g3419"><g id="g3421"><g id="g3427"><g id="g3429"><linearGradient id="path3439_1_" x1="504.958" x2="505.958" y1="400.298" y2="400.298" gradientTransform="matrix(-207.9193 0 0 -207.9193 105781.1797 83952.0234)" gradientUnits="userSpaceOnUse"><stop offset="0" style="stop-color:#373535"/><stop offset=".508" style="stop-color:#82d4f7"/><stop offset="1" style="stop-color:#373535"/></linearGradient><path id="path3439" fill="url(#path3439_1_)" d="M624.386,718.542 c0.077,4.114,3.432,7.427,7.566,7.427l0,0h151.192c4.132,0,7.487-3.312,7.562-7.427l0,0c0.002,0.046,0.007,0.094,0.007,0.144 l0,0c0,4.181-3.389,7.571-7.57,7.571l0,0H631.952c-4.183,0-7.573-3.39-7.573-7.571l0,0 C624.379,718.636,624.386,718.587,624.386,718.542"/></g></g></g></g><g id="g3441"><g id="g3443"><g id="g3449"><g id="g3451"><linearGradient id="path3459_1_" x1="497.929" x2="498.929" y1="394.381" y2="394.381" gradientTransform="matrix(-1.011516e-09 -22.5299 -22.5299 1.011516e-09 9642.0176 11945.7012)" gradientUnits="userSpaceOnUse"><stop offset="0" style="stop-color:#4d4c4e"/><stop offset="1" style="stop-color:#373535"/></linearGradient><path id="path3459" fill="url(#path3459_1_)" d="M631.952,709.386h240.393 c4.968,0,9.01,4.043,9.01,9.011l0,0c0,4.97-4.042,9.012-9.01,9.012l0,0H631.952V709.386z"/></g></g></g></g><g id="g3461"><g id="g3463"><g id="g3469"><g id="g3471"><linearGradient id="path3479_1_" x1="496.466" x2="497.466" y1="393.096" y2="393.096" gradientTransform="matrix(-8.498675e-10 -18.9294 -18.9294 8.498675e-10 8197.0322 10123.7832)" gradientUnits="userSpaceOnUse"><stop offset="0" style="stop-color:#373535"/><stop offset="1" style="stop-color:#4d4c4e"/></linearGradient><path id="path3479" fill="url(#path3479_1_)" d="M631.952,710.826h240.393 c4.18,0,7.57,3.391,7.57,7.571l0,0c0,4.184-3.391,7.572-7.57,7.572l0,0H631.952V710.826z"/></g></g></g></g><g id="g3481"><g id="g3483"><g id="g3489"><g id="g3491"><linearGradient id="path3501_1_" x1="505.023" x2="506.147" y1="401.76" y2="401.76" gradientTransform="matrix(-275.9533 0 0 275.9533 140242.8125 -110152.4688)" gradientUnits="userSpaceOnUse"><stop offset="0" style="stop-color:#373535"/><stop offset=".508" style="stop-color:#82d4f7"/><stop offset="1" style="stop-color:#373535"/></linearGradient><path id="path3501" fill="url(#path3501_1_)" d="M631.952,710.826h240.393 c4.18,0,7.57,3.391,7.57,7.571l0,0c0,0.049-0.006,0.096-0.009,0.145l0,0c-0.075-4.116-3.429-7.428-7.561-7.428l0,0H631.952 V710.826z"/></g></g></g></g><g id="g3503"><g id="g3505"><g id="g3511"><g id="g3513"><linearGradient id="path3523_1_" x1="505.023" x2="506.147" y1="400.503" y2="400.503" gradientTransform="matrix(-275.9533 0 0 -275.9533 140242.8125 111242.5312)" gradientUnits="userSpaceOnUse"><stop offset="0" style="stop-color:#373535"/><stop offset=".508" style="stop-color:#82d4f7"/><stop offset="1" style="stop-color:#373535"/></linearGradient><path id="path3523" fill="url(#path3523_1_)" d="M631.952,725.968h240.393 c4.132,0,7.486-3.312,7.561-7.427l0,0c0.003,0.046,0.009,0.094,0.009,0.144l0,0c0,4.181-3.391,7.571-7.57,7.571l0,0H631.952 V725.968L631.952,725.968z"/></g></g></g></g></g></svg>