<svg xmlns="http://www.w3.org/2000/svg" xmlns:svg="http://www.w3.org/2000/svg" id="Layer_1" width="144" height="35.66" x="0" y="0" enable-background="new 0 0 192.729 35.66" version="1.1" viewBox="0 0 144 35.66" xml:space="preserve"><metadata id="metadata45"/><path id="path47" d="M -2.3654653e-6,0 V 35.66 H 144 V 0 H -2.3654653e-6 z" style="fill:#1d1d1d"/><linearGradient id="path9_1_" x1="-983.793" x2="-983.793" y1="3188.034" y2="3169.141" gradientTransform="translate(1056.2432,-3161.1416)" gradientUnits="userSpaceOnUse"><stop style="stop-color:#6e6f71" id="stop6" offset=".005"/><stop style="stop-color:#231f20" id="stop8" offset="1"/></linearGradient><path id="path9" d="m 13.768998,26.893 c -4.3410004,0 -7.8720004,-4.24 -7.8720004,-9.449 0,-5.208 3.529,-9.445 7.8720004,-9.445 H 131.134 c 4.341,0 7.868,4.236 7.868,9.444 0,5.208 -3.528,9.45 -7.868,9.45 H 13.768998 l 0,0 z" style="fill:url(#path9_1_)"/><linearGradient id="path16_1_" x1="-983.793" x2="-983.793" y1="3187.282" y2="3169.891" gradientTransform="translate(1056.2432,-3161.1416)" gradientUnits="userSpaceOnUse"><stop style="stop-color:#6e6f71" id="stop12" offset=".005"/><stop style="stop-color:#231f20" id="stop14" offset="1"/></linearGradient><path id="path16" d="M 131.135,8.748 H 13.768998 c -3.9270004,0 -7.1220004,3.901 -7.1220004,8.695 0,4.793 3.195,8.698 7.1220004,8.698 H 131.134 c 3.927,0 7.118,-3.903 7.118,-8.698 10e-4,-4.793 -3.193,-8.695 -7.117,-8.695 l 0,0 0,0 z" style="fill:url(#path16_1_)"/><linearGradient id="path43_1_" x1="-1049.117" x2="-918.464" y1="3178.587" y2="3178.587" gradientTransform="translate(1056.2432,-3161.1416)" gradientUnits="userSpaceOnUse"><stop style="stop-color:#4166ae" id="stop18" offset="0"/><stop style="stop-color:#446cb1" id="stop20" offset=".004"/><stop style="stop-color:#4e8dc4" id="stop22" offset=".032"/><stop style="stop-color:#56a8d2" id="stop24" offset=".06"/><stop style="stop-color:#5dbbde" id="stop26" offset=".089"/><stop style="stop-color:#60c6e3" id="stop28" offset=".119"/><stop style="stop-color:#62cbe5" id="stop30" offset=".15"/><stop style="stop-color:#2eb24b" id="stop32" offset=".3"/><stop style="stop-color:#06a14b" id="stop34" offset=".47"/><stop style="stop-color:#fedd10" id="stop36" offset=".64"/><stop style="stop-color:#f16724" id="stop38" offset=".801"/><stop style="stop-color:#eb2627" id="stop40" offset="1"/></linearGradient><path id="path43" d="m 13.768998,25.614 c -3.662,0 -6.6430004,-3.664 -6.6430004,-8.17 0,-4.503 2.9790004,-8.168 6.6430004,-8.168 H 131.134 c 3.657,0 6.646,3.666 6.646,8.168 0,4.506 -2.979,8.17 -6.646,8.17 H 13.768998 z" style="fill:url(#path43_1_)"/></svg>