<svg xmlns="http://www.w3.org/2000/svg" xmlns:svg="http://www.w3.org/2000/svg" id="svg3173" width="117.684" height="18.927" version="1.1" xml:space="preserve"><metadata id="metadata3179"/><defs id="defs3177"><linearGradient id="linearGradient3195" x1="0" x2="1" y1="0" y2="0" gradientTransform="matrix(0,15.141602,15.141602,0,612.68213,604.80273)" gradientUnits="userSpaceOnUse" spreadMethod="pad"><stop style="stop-opacity:1;stop-color:#737577" id="stop3197" offset="0"/><stop style="stop-opacity:1;stop-color:#373535" id="stop3199" offset="1"/></linearGradient><linearGradient id="linearGradient3215" x1="0" x2="1" y1="0" y2="0" gradientTransform="matrix(0,13.939453,13.939453,0,612.68311,605.4043)" gradientUnits="userSpaceOnUse" spreadMethod="pad"><stop style="stop-opacity:1;stop-color:#737577" id="stop3217" offset="0"/><stop style="stop-opacity:1;stop-color:#373535" id="stop3219" offset="1"/></linearGradient><radialGradient id="radialGradient3235" cx="0" cy="0" r="1" fx="0" fy="0" gradientTransform="matrix(48.626846,0,0,-48.626846,646.02246,621.90039)" gradientUnits="userSpaceOnUse" spreadMethod="pad"><stop style="stop-opacity:1;stop-color:#007da8" id="stop3237" offset="0"/><stop style="stop-opacity:1;stop-color:#69cef6" id="stop3239" offset="1"/></radialGradient></defs><g id="g3181" transform="matrix(1.25,0,0,-1.25,-707.01125,774.93125)"><g id="g3183"><g id="g3185"><g id="g3191"><g id="g3193"><path style="fill:url(#linearGradient3195);stroke:none" id="path3201" d="m 571.918,619.945 c -3.48,0 -6.309,-3.396 -6.309,-7.571 l 0,0 c 0,-4.175 2.829,-7.571 6.309,-7.571 l 0,0 81.527,0 c 3.479,0 6.311,3.396 6.311,7.571 l 0,0 c 0,4.175 -2.832,7.571 -6.311,7.571 l 0,0 -81.527,0 z"/></g></g></g></g><g id="g3203"><g id="g3205"><g id="g3211"><g id="g3213"><path style="fill:url(#linearGradient3215);stroke:none" id="path3221" d="m 571.918,619.344 c -3.148,0 -5.708,-3.128 -5.708,-6.97 l 0,0 c 0,-3.843 2.56,-6.97 5.708,-6.97 l 0,0 81.527,0 c 3.148,0 5.71,3.127 5.71,6.97 l 0,0 c 0,3.842 -2.562,6.97 -5.71,6.97 l 0,0 -81.527,0 z"/></g></g></g></g><g id="g3223"><g id="g3225"><g id="g3231"><g id="g3233"><path style="fill:url(#radialGradient3235);stroke:none" id="path3241" d="m 571.918,618.921 c -2.935,0 -5.323,-2.937 -5.323,-6.547 l 0,0 c 0,-3.61 2.388,-6.548 5.323,-6.548 l 0,0 81.527,0 c 2.937,0 5.326,2.938 5.326,6.548 l 0,0 c 0,3.61 -2.389,6.547 -5.326,6.547 l 0,0 -81.527,0 z"/></g></g></g></g></g></svg>