<svg xmlns="http://www.w3.org/2000/svg" xmlns:svg="http://www.w3.org/2000/svg" id="svg2" width="41.629" height="41.629" version="1.1" xml:space="preserve"><metadata id="metadata8"/><defs id="defs6"><clipPath id="clipPath16" clipPathUnits="userSpaceOnUse"><path id="path18" d="m 0,1224 1224,0 L 1224,0 0,0 0,1224 z"/></clipPath></defs><g id="g10" transform="matrix(1.25,0,0,-1.25,-743.93225,785.85725)"><g id="g12"><g id="g14" clip-path="url(#clipPath16)"><g id="g20" transform="translate(611.7998,595.3828)"><path style="fill:#fff;fill-opacity:1;fill-rule:nonzero;stroke:none" id="path22" d="m 0,0 c -9.198,0 -16.654,7.457 -16.654,16.653 0,9.191 7.452,16.65 16.65,16.65 9.197,0 16.653,-7.457 16.653,-16.65 C 16.653,7.457 9.197,0 0,0"/></g><g id="g24" transform="translate(599.5586,603.0156)"><path style="fill:#292929;fill-opacity:1;fill-rule:nonzero;stroke:none" id="path26" d="m 0,0 27.653,8.627 c 0.004,0.133 0.017,0.262 0.017,0.395 0,0.12 -0.016,0.243 -0.017,0.365 L -0.442,0.624 C -0.303,0.41 -0.15,0.207 0,0"/></g><g id="g28" transform="translate(601.8379,600.5273)"><path style="fill:#292929;fill-opacity:1;fill-rule:nonzero;stroke:none" id="path30" d="m 0,0 24.916,7.775 c 0.068,0.274 0.14,0.544 0.193,0.819 L -0.625,0.566 C -0.425,0.37 -0.213,0.184 0,0"/></g><g id="g32" transform="translate(600.6016,601.7412)"><path style="fill:#292929;fill-opacity:1;fill-rule:nonzero;stroke:none" id="path34" d="m 0,0 26.48,8.259 c 0.035,0.26 0.067,0.521 0.084,0.787 L -0.534,0.595 C -0.364,0.39 -0.18,0.196 0,0"/></g><g id="g36" transform="translate(615.9414,614.2603)"><path style="fill:#292929;fill-opacity:1;fill-rule:nonzero;stroke:none" id="path38" d="m 0,0 -0.05,0 c -0.044,-0.783 -1.1,-1.417 -2.415,-1.445 -1.384,-0.026 -2.536,0.62 -2.584,1.445 -0.045,0.829 1.035,1.522 2.418,1.55 0.66,0.013 1.27,-0.128 1.731,-0.372 l 0,5.267 -6.1,-1.748 0,-6.695 -0.05,0 c -0.044,-0.785 -1.1,-1.419 -2.415,-1.45 -1.384,-0.027 -2.536,0.623 -2.584,1.45 -0.045,0.828 1.035,1.518 2.418,1.549 0.66,0.013 1.27,-0.128 1.731,-0.369 l 0,7.099 L 0,8.534 0,0 z m -4.025,13.088 c -8.458,0 -15.317,-6.857 -15.317,-15.311 0,-2.812 0.768,-5.43 2.087,-7.694 l 28.484,8.884 C 10.621,6.863 4.033,13.088 -4.025,13.088"/></g><g id="g40" transform="translate(603.2949,599.3818)"><path style="fill:#292929;fill-opacity:1;fill-rule:nonzero;stroke:none" id="path42" d="m 0,0 22.897,7.142 c 0.111,0.285 0.222,0.568 0.318,0.861 L -0.718,0.538 C -0.481,0.354 -0.247,0.169 0,0"/></g><g id="g44" transform="translate(611.916,596.7227)"><path style="fill:#292929;fill-opacity:1;fill-rule:nonzero;stroke:none" id="path46" d="M 0,0 C 6.141,0 11.417,3.62 13.862,8.834 L -7.719,2.102 C -5.449,0.773 -2.817,0 0,0"/></g></g></g></g></svg>