<svg xmlns="http://www.w3.org/2000/svg" xmlns:svg="http://www.w3.org/2000/svg" id="svg3365" width="107.871" height="107.907" version="1.1" xml:space="preserve"><metadata id="metadata3371"/><defs id="defs3369"><clipPath id="clipPath3379" clipPathUnits="userSpaceOnUse"><path id="path3381" d="M 0,792 612,792 612,0 0,0 0,792 z"/></clipPath><clipPath id="clipPath3395" clipPathUnits="userSpaceOnUse"><path id="path3397" d="m 271.746,390.021 c 0,-10.372 4.237,-19.645 10.837,-26.654 l 0,0 c 3.428,28.317 27.325,50.339 56.531,50.339 l 0,0 c 0.784,0 1.517,-0.164 2.298,-0.191 l 0,0 c -7.152,9.3 -17.931,15.628 -30.549,15.628 l 0,0 c -21.596,-10e-4 -39.117,-17.523 -39.117,-39.122"/></clipPath><clipPath id="clipPath3403" clipPathUnits="userSpaceOnUse"><path id="path3405" d="m 239.597,459.463 133.962,0 0,-126.418 -133.962,0 0,126.418 z"/></clipPath><clipPath id="clipPath3407" clipPathUnits="userSpaceOnUse"><path id="path3409" d="m 239.597,459.463 133.962,0 0,-126.418 -133.962,0 0,126.418 z"/></clipPath><linearGradient id="linearGradient3415" x1="0" x2="1" y1="0" y2="0" gradientTransform="matrix(26.969528,-38.245056,-40.53128,-25.448151,281.48437,431.8125)" gradientUnits="userSpaceOnUse" spreadMethod="pad"><stop style="stop-opacity:1;stop-color:#fff" id="stop3417" offset="0"/><stop style="stop-opacity:1;stop-color:#292929" id="stop3419" offset="1"/></linearGradient><mask id="mask3421" width="1" height="1" x="0" y="0" maskUnits="userSpaceOnUse"><g id="g3423"><g id="g3425" clip-path="url(#clipPath3403)"><path style="fill:#000;fill-opacity:1;fill-rule:nonzero;stroke:none" id="path3427" d="m 239.597,459.463 133.962,0 0,-126.418 -133.962,0 0,126.418 z"/><g id="g3429"><g id="g3433"><g id="g3435" clip-path="url(#clipPath3407)"><g id="g3437"><g id="g3439"><g id="g3441"><g id="g3443"><path style="fill:url(#linearGradient3415);stroke:none" id="path3445" d="m 271.746,390.021 c 0,-10.372 4.237,-19.645 10.837,-26.654 l 0,0 c 3.428,28.317 27.325,50.339 56.531,50.339 l 0,0 c 0.784,0 1.517,-0.164 2.298,-0.191 l 0,0 c -7.152,9.3 -17.931,15.628 -30.549,15.628 l 0,0 c -21.596,-10e-4 -39.117,-17.523 -39.117,-39.122"/></g></g></g></g></g></g></g></g></g></mask><clipPath id="clipPath3451" clipPathUnits="userSpaceOnUse"><path id="path3453" d="m 239.597,459.463 133.962,0 0,-126.418 -133.962,0 0,126.418 z"/></clipPath><linearGradient id="linearGradient3459" x1="0" x2="1" y1="0" y2="0" gradientTransform="matrix(26.969528,-38.245056,-40.53128,-25.448151,281.48437,431.8125)" gradientUnits="userSpaceOnUse" spreadMethod="pad"><stop style="stop-opacity:1;stop-color:#fff" id="stop3461" offset="0"/><stop style="stop-opacity:1;stop-color:#fff" id="stop3463" offset="1"/></linearGradient><clipPath id="clipPath3483" clipPathUnits="userSpaceOnUse"><path id="path3485" d="m 301.295,366.107 23.369,0 0,44.207 -23.369,0 0,-44.207 z"/></clipPath><clipPath id="clipPath3495" clipPathUnits="userSpaceOnUse"><path id="path3497" d="M 0,792 612,792 612,0 0,0 0,792 z"/></clipPath></defs><g id="g3373" transform="matrix(1.25,0,0,-1.25,-333.92225,540.97663)"><g id="g3375"><g id="g3377" clip-path="url(#clipPath3379)"><g id="g3383" transform="translate(310.3018,432.7813)"><path style="fill:#292a2a;fill-opacity:1;fill-rule:nonzero;stroke:none" id="path3385" d="m 0,0 c -23.804,0 -43.164,-19.361 -43.164,-43.164 0,-23.797 19.36,-43.162 43.164,-43.162 23.779,0 43.133,19.365 43.133,43.162 C 43.137,-19.361 23.779,0 0,0"/></g><g id="g3387" transform="translate(310.5811,352.5957)"><path style="fill:#fff;fill-opacity:1;fill-rule:nonzero;stroke:none" id="path3389" d="m 0,0 c -20.45,0 -37.023,16.574 -37.023,37.021 0,20.452 16.573,37.027 37.023,37.027 20.43,0 37.005,-16.575 37.005,-37.027 C 37.005,16.574 20.43,0 0,0 m -0.279,77.289 c -22.238,0 -40.265,-18.027 -40.265,-40.268 0,-22.23 18.024,-40.257 40.265,-40.257 22.211,0 40.236,18.026 40.236,40.257 0,22.239 -18.025,40.268 -40.236,40.268"/></g></g></g><g id="g3391"><g id="g3393" clip-path="url(#clipPath3395)"><g id="g3399"><g id="g3447" mask="url(#mask3421)"><g id="g3465"><g id="g3467" clip-path="url(#clipPath3451)"><g id="g3469"><g id="g3471"><g id="g3473"><g id="g3475"><path style="fill:url(#linearGradient3459);stroke:none" id="path3477" d="m 320.036,459.463 53.523,-75.914 -80.43,-50.504 -53.532,75.91 80.439,50.508 z"/></g></g></g></g></g></g></g></g></g></g><g id="g3479"><g id="g3481" clip-path="url(#clipPath3483)"><g id="g3487" transform="translate(312.6113,394.0645)"><path style="fill:#292a2a;fill-opacity:1;fill-rule:nonzero;stroke:none" id="path3489" d="m 0,0 0,-16.574 c 0,-1.602 0.415,-2.873 1.256,-3.823 0.842,-0.946 1.955,-1.423 3.348,-1.423 1.642,0 3.155,0.738 4.547,2.216 l 2.902,-4.999 c -2.485,-2.229 -5.264,-3.352 -8.337,-3.352 -2.943,0 -5.474,1.047 -7.604,3.129 -2.132,2.093 -3.194,4.9 -3.194,8.443 l 0,16.383 -4.234,0 0,5.689 4.234,0 0,10.561 7.082,0 0,-10.561 8.834,0 L 8.834,0 0,0 z"/></g></g></g><g id="g3491"><g id="g3493" clip-path="url(#clipPath3495)"><g id="g3499" transform="translate(311.2383,395.4375)"><path style="fill:#fff;fill-opacity:1;fill-rule:nonzero;stroke:none" id="path3501" d="m 0,0 0,-16.578 c 0,-1.6 0.42,-2.873 1.26,-3.821 0.839,-0.95 1.954,-1.421 3.344,-1.421 1.646,0 3.162,0.736 4.55,2.214 l 2.903,-4.998 c -2.484,-2.237 -5.261,-3.353 -8.338,-3.353 -2.942,0 -5.479,1.043 -7.605,3.131 -2.132,2.09 -3.195,4.898 -3.195,8.441 l 0,16.385 -4.234,0 0,5.688 4.234,0 0,10.558 7.082,0 0,-10.558 8.837,0 L 8.838,0 0,0 z"/></g></g></g></g></svg>