<svg xmlns="http://www.w3.org/2000/svg" xmlns:svg="http://www.w3.org/2000/svg" id="svg2" width="17.77" height="27.246" version="1.1" xml:space="preserve"><metadata id="metadata8"/><defs id="defs6"><linearGradient id="linearGradient24" x1="0" x2="1" y1="0" y2="0" gradientTransform="matrix(0,21.795654,-21.795654,0,291.95312,385.57812)" gradientUnits="userSpaceOnUse" spreadMethod="pad"><stop style="stop-opacity:1;stop-color:#464444" id="stop26" offset="0"/><stop style="stop-opacity:1;stop-color:#575758" id="stop28" offset="1"/></linearGradient><linearGradient id="linearGradient44" x1="0" x2="1" y1="0" y2="0" gradientTransform="matrix(0,19.920654,-19.920654,0,291.96875,386.53125)" gradientUnits="userSpaceOnUse" spreadMethod="pad"><stop style="stop-opacity:1;stop-color:#575758" id="stop46" offset="0"/><stop style="stop-opacity:1;stop-color:#464444" id="stop48" offset="1"/></linearGradient><clipPath id="clipPath56" clipPathUnits="userSpaceOnUse"><path id="path58" d="M 0,0 612,0 612,792 0,792 0,0 z"/></clipPath><linearGradient id="linearGradient76" x1="0" x2="1" y1="0" y2="0" gradientTransform="matrix(8.6200562,0,0,8.6200562,287.64063,390.77344)" gradientUnits="userSpaceOnUse" spreadMethod="pad"><stop style="stop-opacity:1;stop-color:#464444" id="stop78" offset="0"/><stop style="stop-opacity:1;stop-color:#87d5f7" id="stop80" offset=".508"/><stop style="stop-opacity:1;stop-color:#464444" id="stop82" offset="1"/></linearGradient><radialGradient id="radialGradient98" cx="0" cy="0" r="1" fx="0" fy="0" gradientTransform="matrix(18.205124,0,0,18.307648,289.1875,402.85937)" gradientUnits="userSpaceOnUse" spreadMethod="pad"><stop style="stop-opacity:1;stop-color:#2783ac" id="stop100" offset="0"/><stop style="stop-opacity:1;stop-color:#72cff6" id="stop102" offset="1"/></radialGradient></defs><g id="g10" transform="matrix(1.25,0,0,-1.25,-356.0525,509.2475)"><g id="g12"><g id="g14"><g id="g20"><g id="g22"><path style="fill:url(#linearGradient24);stroke:none" id="path30" d="m 284.842,400.249 0,-7.498 c 0,-3.945 3.186,-7.15 7.107,-7.15 l 0,0 c 3.919,0 7.109,3.205 7.109,7.15 l 0,0 0,7.498 c 0,3.945 -3.19,7.149 -7.109,7.149 l 0,0 c -3.921,0 -7.107,-3.204 -7.107,-7.149"/></g></g></g></g><g id="g32"><g id="g34"><g id="g40"><g id="g42"><path style="fill:url(#linearGradient44);stroke:none" id="path50" d="m 285.772,400.249 0,-7.498 c 0,-3.423 2.772,-6.212 6.177,-6.212 l 0,0 c 3.404,0 6.175,2.789 6.175,6.212 l 0,0 0,7.498 c 0,3.427 -2.771,6.212 -6.175,6.212 l 0,0 c -3.405,0 -6.177,-2.785 -6.177,-6.212"/></g></g></g></g><g id="g52"><g id="g54" clip-path="url(#clipPath56)"><g id="g60" transform="translate(291.9497,388.415)"><path style="fill:#454444;fill-opacity:1;fill-rule:nonzero;stroke:none" id="path62" d="m 0,0 c -2.38,0 -4.313,1.946 -4.313,4.336 l 0,7.499 c 0,2.393 1.933,4.336 4.313,4.336 2.376,0 4.31,-1.943 4.31,-4.336 l 0,-7.499 C 4.31,1.946 2.376,0 0,0"/></g></g></g><g id="g64"><g id="g66"><g id="g72"><g id="g74"><path style="fill:url(#linearGradient76);stroke:none" id="path84" d="m 291.949,388.975 c -2.379,0 -4.313,1.944 -4.313,4.337 l 0,0 0,-0.747 c 0,-2.393 1.934,-4.336 4.313,-4.336 l 0,0 c 2.378,0 4.311,1.943 4.311,4.336 l 0,0 0,0.747 c 0,-2.393 -1.933,-4.337 -4.311,-4.337"/></g></g></g></g><g id="g86"><g id="g88"><g id="g94"><g id="g96"><path style="fill:url(#radialGradient98);stroke:none" id="path104" d="m 288.571,400.249 0,-7.498 c 0,-1.878 1.511,-3.399 3.378,-3.399 l 0,0 c 1.865,0 3.38,1.521 3.38,3.399 l 0,0 0,7.498 c 0,1.878 -1.515,3.399 -3.38,3.399 l 0,0 c -1.867,0 -3.378,-1.521 -3.378,-3.399"/></g></g></g></g></g></svg>