<svg xmlns="http://www.w3.org/2000/svg" xmlns:svg="http://www.w3.org/2000/svg" xmlns:xlink="http://www.w3.org/1999/xlink" id="svg2" width="73.09" height="25.308" x="0" y="0" enable-background="new 0 0 73.09 25.308" version="1.1" viewBox="0 0 73.09 25.308" xml:space="preserve"><g id="g12"><g id="g14"><g id="g20"><g id="g22"><linearGradient id="path30_1_" x1="-284.084" x2="-283.084" y1="398.525" y2="398.525" gradientTransform="matrix(0 -25.3064 -25.3064 0 10121.8008 -7163.8174)" gradientUnits="userSpaceOnUse"><stop offset="0" style="stop-color:#757577"/><stop offset="1" style="stop-color:#373536"/></linearGradient><path id="path30" fill="url(#path30_1_)" d="M10.542,0C4.73,0,0,5.675,0,12.654l0,0 c0,6.977,4.73,12.654,10.542,12.654l0,0h52.002c5.822,0,10.545-5.678,10.545-12.654l0,0C73.09,5.675,68.367,0,62.545,0l0,0 H10.542z"/></g></g></g></g><g id="g32"><g id="g34"><g id="g40"><g id="g42"><linearGradient id="path50_1_" x1="-285.387" x2="-284.387" y1="420.698" y2="420.698" gradientTransform="matrix(0 -23.2996 23.2996 0 -9765.5117 -6625.0845)" gradientUnits="userSpaceOnUse"><stop offset="0" style="stop-color:#757577"/><stop offset="1" style="stop-color:#373536"/></linearGradient><path id="path50" fill="url(#path50_1_)" d="M10.542,1.001c-5.26,0-9.542,5.23-9.54,11.65l0,0 c0,6.424,4.283,11.65,9.54,11.65l0,0h52.002c5.266,0,9.539-5.226,9.539-11.65l0,0c0-6.42-4.275-11.65-9.539-11.65l0,0H10.542z"/></g></g></g></g><g id="g52"><g id="g54"><g id="g60"><g id="g62"><linearGradient id="path72_1_" x1="-286.448" x2="-285.448" y1="421.442" y2="421.442" gradientTransform="matrix(0 -21.886 21.886 0 -9187.1426 -6245.5996)" gradientUnits="userSpaceOnUse"><stop offset="0" style="stop-color:#373536"/><stop offset=".995" style="stop-color:#757577"/><stop offset="1" style="stop-color:#757577"/></linearGradient><path id="path72" fill="url(#path72_1_)" d="M10.542,1.71c-4.906,0-8.9,4.91-8.9,10.944l0,0 c0,6.033,3.996,10.942,8.9,10.942l0,0h52.002c4.911,0,8.9-4.909,8.9-10.942l0,0c0-6.034-3.992-10.944-8.9-10.944l0,0H10.542z"/></g></g></g></g><g><g id="g76"><g id="g82" transform="translate(384.0898,302.5879)"><path id="path84" fill="#999" d="M-362.038-284.887h-1.373l-3.542-11.197h1.856l2.39,7.47 l2.356-7.47h1.889L-362.038-284.887z"/></g><g id="g86" transform="translate(388.2734,302.5879)"><path id="path88" fill="#999" d="M-360.992-284.887v-11.197h6.604v1.771h-4.832v2.74h3.259 v1.806h-3.259v3.074h5.181v1.806H-360.992L-360.992-284.887z"/></g><g id="g90" transform="translate(400.1875,302.5879)"><path id="path92" fill="#999" d="M-358.014-284.887l-4.277-7.585v7.585h-1.772v-11.197 h1.772l4.078,7.152v-7.152h1.772v11.197H-358.014z"/></g><g id="g94" transform="translate(406.2598,310.2891)"><path id="path96" fill="#999" d="M-356.495-302.214v9.626h-1.772v-9.626h-2.559v-1.57h6.922 v1.57H-356.495z"/></g></g></g></svg>