<svg xmlns="http://www.w3.org/2000/svg" xmlns:svg="http://www.w3.org/2000/svg" id="svg2" width="73.09" height="25.308" version="1.1" xml:space="preserve"><metadata id="metadata8"/><defs id="defs6"><linearGradient id="linearGradient24" x1="0" x2="1" y1="0" y2="0" gradientTransform="matrix(0,20.245117,20.245117,0,395.68262,296.50391)" gradientUnits="userSpaceOnUse" spreadMethod="pad"><stop style="stop-opacity:1;stop-color:#757577" id="stop26" offset="0"/><stop style="stop-opacity:1;stop-color:#373536" id="stop28" offset="1"/></linearGradient><linearGradient id="linearGradient44" x1="0" x2="1" y1="0" y2="0" gradientTransform="matrix(0,18.639648,-18.639648,0,395.68262,297.30664)" gradientUnits="userSpaceOnUse" spreadMethod="pad"><stop style="stop-opacity:1;stop-color:#757577" id="stop46" offset="0"/><stop style="stop-opacity:1;stop-color:#373536" id="stop48" offset="1"/></linearGradient><linearGradient id="linearGradient64" x1="0" x2="1" y1="0" y2="0" gradientTransform="matrix(0,17.508789,-17.508789,0,395.68262,297.87109)" gradientUnits="userSpaceOnUse" spreadMethod="pad"><stop style="stop-opacity:1;stop-color:#373536" id="stop66" offset="0"/><stop style="stop-opacity:1;stop-color:#757577" id="stop68" offset=".995"/><stop style="stop-opacity:1;stop-color:#757577" id="stop70" offset="1"/></linearGradient><clipPath id="clipPath78" clipPathUnits="userSpaceOnUse"><path id="path80" d="M 0,612 792,612 792,0 0,0 0,612 z"/></clipPath></defs><g id="g10" transform="matrix(1.25,0,0,-1.25,-458.06,395.93625)"><g id="g12"><g id="g14"><g id="g20"><g id="g22"><path style="fill:url(#linearGradient24);stroke:none" id="path30" d="m 374.882,316.749 c -4.65,0 -8.434,-4.54 -8.434,-10.123 l 0,0 c 0,-5.581 3.784,-10.123 8.434,-10.123 l 0,0 41.602,0 c 4.658,0 8.436,4.542 8.436,10.123 l 0,0 c 0,5.583 -3.778,10.123 -8.436,10.123 l 0,0 -41.602,0 z"/></g></g></g></g><g id="g32"><g id="g34"><g id="g40"><g id="g42"><path style="fill:url(#linearGradient44);stroke:none" id="path50" d="m 374.882,315.948 c -4.208,0 -7.634,-4.184 -7.632,-9.32 l 0,0 c 0,-5.139 3.426,-9.32 7.632,-9.32 l 0,0 41.602,0 c 4.213,0 7.631,4.181 7.631,9.32 l 0,0 c 0,5.136 -3.42,9.32 -7.631,9.32 l 0,0 -41.602,0 z"/></g></g></g></g><g id="g52"><g id="g54"><g id="g60"><g id="g62"><path style="fill:url(#linearGradient64);stroke:none" id="path72" d="m 374.882,315.381 c -3.925,0 -7.12,-3.928 -7.12,-8.755 l 0,0 c 0,-4.827 3.197,-8.754 7.12,-8.754 l 0,0 41.602,0 c 3.929,0 7.12,3.927 7.12,8.754 l 0,0 c 0,4.827 -3.194,8.755 -7.12,8.755 l 0,0 -41.602,0 z"/></g></g></g></g><g id="g74"><g id="g76" clip-path="url(#clipPath78)"><g id="g82" transform="translate(384.0898,302.5879)"><path style="fill:#fff;fill-opacity:1;fill-rule:nonzero;stroke:none" id="path84" d="m 0,0 -1.098,0 -2.834,8.958 1.485,0 1.912,-5.976 1.885,5.976 1.511,0 L 0,0 z"/></g><g id="g86" transform="translate(388.2734,302.5879)"><path style="fill:#fff;fill-opacity:1;fill-rule:nonzero;stroke:none" id="path88" d="m 0,0 0,8.958 5.283,0 0,-1.417 -3.865,0 0,-2.192 2.607,0 0,-1.445 -2.607,0 0,-2.459 4.145,0 0,-1.444 L 0,0.001 0,0 z"/></g><g id="g90" transform="translate(400.1875,302.5879)"><path style="fill:#fff;fill-opacity:1;fill-rule:nonzero;stroke:none" id="path92" d="m 0,0 -3.422,6.069 0,-6.069 -1.418,0 0,8.958 1.418,0 3.262,-5.722 0,5.722 1.418,0 L 1.258,0 0,0 z"/></g><g id="g94" transform="translate(406.2598,310.2891)"><path style="fill:#fff;fill-opacity:1;fill-rule:nonzero;stroke:none" id="path96" d="m 0,0 0,-7.701 -1.418,0 0,7.701 -2.047,0 0,1.256 5.537,0 L 2.072,0 0,0 z"/></g></g></g></g></svg>