<svg xmlns="http://www.w3.org/2000/svg" xmlns:xlink="http://www.w3.org/1999/xlink" id="Layer_1" width="14.4" height="14.4" x="0" y="0" enable-background="new 0 0 14.4 14.4" version="1.1" viewBox="0 0 14.4 14.4" xml:space="preserve"><path fill="#414142" d="M7.2,14.033c-3.768,0-6.834-3.064-6.834-6.833S3.433,0.367,7.2,0.367c3.768,0,6.834,3.065,6.834,6.834	S10.968,14.033,7.2,14.033z"/><radialGradient id="SVGID_1_" cx="11.144" cy="14.584" r="13.416" gradientTransform="matrix(1 0 0 -1 0 16)" gradientUnits="userSpaceOnUse"><stop offset="0" style="stop-color:#010101"/><stop offset=".556" style="stop-color:#2e2d2e"/><stop offset="1" style="stop-color:#4e4e50"/></radialGradient><circle cx="7.201" cy="7.2" r="6.132" fill="url(#SVGID_1_)"/><g><radialGradient id="SVGID_2_" cx="-308.94" cy="-128.738" r="9.367" gradientTransform="matrix(0.8221 -0.5694 -0.5694 -0.8221 189.9902 -271.6416)" gradientUnits="userSpaceOnUse"><stop offset="0" style="stop-color:#5ec6f1"/><stop offset=".285" style="stop-color:#407288"/><stop offset=".57" style="stop-color:#231f20"/></radialGradient><circle cx="7.201" cy="7.201" r="4.356" fill="url(#SVGID_2_)"/><radialGradient id="SVGID_3_" cx="-374.884" cy="-428.317" r="7.986" gradientTransform="matrix(0.6345 -0.4395 -0.3357 -0.4847 101.7712 -364.5332)" gradientUnits="userSpaceOnUse"><stop offset="0" style="stop-color:#92a5b1"/><stop offset=".049" style="stop-color:#8898a1"/><stop offset=".151" style="stop-color:#778188"/><stop offset=".256" style="stop-color:#6b7176"/><stop offset=".364" style="stop-color:#63676b"/><stop offset=".482" style="stop-color:#616467"/><stop offset=".602" style="stop-color:#686b6e"/><stop offset=".781" style="stop-color:#7c7e81"/><stop offset=".996" style="stop-color:#9c9ea0"/><stop offset="1" style="stop-color:#9d9fa1"/></radialGradient><path fill="url(#SVGID_3_)" d="M8.966,4.306c0.75,1.079,0.211,2.739-1.197,3.713C6.363,8.996,4.616,8.912,3.874,7.838 C3.128,6.765,3.667,5.1,5.071,4.128C6.479,3.154,8.224,3.231,8.966,4.306z"/></g></svg>