<svg xmlns="http://www.w3.org/2000/svg" xmlns:svg="http://www.w3.org/2000/svg" xmlns:xlink="http://www.w3.org/1999/xlink" id="svg2" width="419.922" height="339.871" x="0" y="0" enable-background="new 0 0 419.922 339.871" version="1.1" viewBox="0 0 419.922 339.871" xml:space="preserve"><g id="g10" transform="matrix(1.25,0,0,-1.25,-172.1825,664.97875)"><g id="g14"><g><defs><rect id="SVGID_1_" width="765" height="990" x="-76.5" y="-99"/></defs><clipPath id="SVGID_2_"><use overflow="visible" xlink:href="#SVGID_1_"/></clipPath></g></g><g id="g262"><g><defs><rect id="SVGID_3_" width="765" height="990" x="-76.5" y="-99"/></defs><clipPath id="SVGID_4_"><use overflow="visible" xlink:href="#SVGID_3_"/></clipPath></g></g><g id="g294"><g><defs><rect id="SVGID_5_" width="765" height="990" x="-76.5" y="-99"/></defs><clipPath id="SVGID_6_"><use overflow="visible" xlink:href="#SVGID_5_"/></clipPath></g></g><g id="g410"><g><defs><rect id="SVGID_7_" width="765" height="990" x="-76.5" y="-99"/></defs><clipPath id="SVGID_8_"><use overflow="visible" xlink:href="#SVGID_7_"/></clipPath></g></g><g id="g470"><g><defs><rect id="SVGID_9_" width="765" height="990" x="-76.5" y="-99"/></defs><clipPath id="SVGID_10_"><use overflow="visible" xlink:href="#SVGID_9_"/></clipPath></g></g><g id="g504"><g><defs><rect id="SVGID_11_" width="765" height="990" x="-76.5" y="-99"/></defs><clipPath id="SVGID_12_"><use overflow="visible" xlink:href="#SVGID_11_"/></clipPath></g></g><g id="g540"><g><defs><rect id="SVGID_13_" width="765" height="990" x="-76.5" y="-99"/></defs><clipPath id="SVGID_14_"><use overflow="visible" xlink:href="#SVGID_13_"/></clipPath></g></g><g id="g572"><g><defs><rect id="SVGID_15_" width="765" height="990" x="-76.5" y="-99"/></defs><clipPath id="SVGID_16_"><use overflow="visible" xlink:href="#SVGID_15_"/></clipPath></g></g><g id="g624"><g><defs><rect id="SVGID_17_" width="765" height="990" x="-76.5" y="-99"/></defs><clipPath id="SVGID_18_"><use overflow="visible" xlink:href="#SVGID_17_"/></clipPath></g></g><g id="g658"><g><defs><rect id="SVGID_19_" width="765" height="990" x="-76.5" y="-99"/></defs><clipPath id="SVGID_20_"><use overflow="visible" xlink:href="#SVGID_19_"/></clipPath></g></g></g><rect width="419.922" height="339.871" x="0" fill="#717272"/><path fill="#343434" d="M415.319,332.545c0,1.381-1.119,2.5-2.5,2.5H7.104c-1.381,0-2.5-1.119-2.5-2.5V7.865	c0-1.381,1.119-2.5,2.5-2.5h405.714c1.381,0,2.5,1.119,2.5,2.5V332.545z"/><path fill="#1D1D1D" d="M281.354,273.006h1.23h5.02h112.932c2.762,0,5-2.238,5-5V62.78H281.354H153.64h-14.996H14.463v205.226	c0,2.762,2.238,5,5,5h118.083h1.098h14.996H281.354z"/></svg>