<svg xmlns="http://www.w3.org/2000/svg" xmlns:svg="http://www.w3.org/2000/svg" id="svg2" width="601.106" height="620.872" version="1.1" xml:space="preserve"><metadata id="metadata8"/><defs id="defs6"><clipPath id="clipPath18" clipPathUnits="userSpaceOnUse"><path id="path20" d="m 0,497.348 598.57,0 L 598.57,0 0,0 0,497.348 z"/></clipPath></defs><g id="g10" transform="matrix(1.25,0,0,-1.25,-0.0225,621.685)"><path style="fill:#717272;fill-opacity:1;fill-rule:nonzero;stroke:none" id="path12" d="m 0.018,497.348 480.885,0 0,-496.698 -480.885,0 0,496.698 z"/><g id="g14"><g id="g16" clip-path="url(#clipPath18)"><g id="g22" transform="translate(476.3066,7.9668)"><path style="fill:#343434;fill-opacity:1;fill-rule:nonzero;stroke:none" id="path24" d="m 0,0 c 0,-1.379 -1.119,-2.492 -2.498,-2.492 l -466.696,0 c -1.379,0 -2.495,1.113 -2.495,2.492 l 0,481.526 c 0,1.38 1.116,2.497 2.495,2.497 l 466.696,0 c 1.379,0 2.498,-1.117 2.498,-2.497 L 0,0 z"/></g><path style="fill:#1d1d1d;fill-opacity:1;fill-rule:nonzero;stroke:none" id="path26" d="m 131.481,366.063 334.936,0 0,-348.227 -334.936,0 0,348.227 z"/><g id="g28" transform="translate(137.3828,17.8359)"><path style="fill:#1d1d1d;fill-opacity:1;fill-rule:nonzero;stroke:none" id="path30" d="m 0,0 -117.929,0 c -2.756,0 -4.993,2.233 -4.993,4.994 l 0,343.233 115.771,0 L -7.151,0 0,0 z"/></g><g id="g32" transform="translate(14.4609,366.0625)"><path style="fill:#1d1d1d;fill-opacity:1;fill-rule:nonzero;stroke:none" id="path34" d="m 0,0 0,68.588 451.956,0 0,-67.34 -452.183,0"/></g></g></g></g></svg>