<svg xmlns="http://www.w3.org/2000/svg" xmlns:svg="http://www.w3.org/2000/svg" id="svg2" width="646.8" height="282.35" x="0" y="0" enable-background="new 0 0 597.785 253.699" version="1.1" viewBox="0 0 646.8 282.35" xml:space="preserve"><metadata id="metadata9"/><rect id="rect4" width="646.8" height="282.35" x="0" y="0" style="fill:#717272"/><path id="path6" d="m 642.202,275.02999 c 0,1.379 -1.117,2.492 -2.496,2.492 H 7.095 c -1.379,0 -2.496,-1.113 -2.496,-2.492 V 7.8549917 c 0,-1.38 1.117,-2.497 2.496,-2.497 h 632.61 c 1.379,0 2.497,1.117 2.497,2.497 V 275.02999 l 0,0 z" style="fill:#343434"/><path id="path7" d="m 14.443,260.16599 c 0,2.762 2.237,4.993 4.993,4.993 l 608,0.002 h 0.002 c 2.757,0 4.954,-2.231 4.954,-4.993 V 24.181992 c 0,-2.761 -2.271,-4.993 -5.028,-4.993 l -608.001,-0.002 h -0.002 c -2.757,0 -4.99,2.232 -4.99,4.993 l 0.072,235.985998 0,0 z" style="fill:#1d1d1d"/></svg>