<svg xmlns="http://www.w3.org/2000/svg" xmlns:svg="http://www.w3.org/2000/svg" id="svg2" width="646.8" height="221.675" x="0" y="0" enable-background="new 0 0 646.8 282.35" version="1.1" viewBox="0 0 646.8 221.675" xml:space="preserve"><metadata id="metadata9"/><rect id="rect4" width="646.8" height="221.675" x="0" y="0" style="fill:#717272"/><path id="path6" d="m 642.203,214.35599 c 0,1.379 -1.117,2.491 -2.496,2.491 H 7.095 c -1.379,0 -2.496,-1.112 -2.496,-2.491 V 7.8549943 c 0,-1.38 1.117,-2.497 2.496,-2.497 h 632.609 c 1.379,0 2.498,1.117 2.498,2.497 V 214.35599 l 10e-4,0 0,0 z" style="fill:#343434"/><path id="path7" d="m 14.443,199.49099 c 0,2.762 2.237,4.993 4.993,4.993 l 607.999,0.002 h 0.002 c 2.758,0 4.955,-2.231 4.955,-4.993 V 24.181994 c 0,-2.761 -2.271,-4.993 -5.027,-4.993 l -608.002,-0.002 h -0.002 c -2.757,0 -4.99,2.232 -4.99,4.993 l 0.072,175.310996 0,0 0,0 z" style="fill:#1d1d1d"/></svg>