<svg xmlns="http://www.w3.org/2000/svg" xmlns:svg="http://www.w3.org/2000/svg" xmlns:xlink="http://www.w3.org/1999/xlink" id="svg2" width="598.57" height="497.348" x="0" y="0" enable-background="new 0 0 598.57 497.348" version="1.1" viewBox="0 0 598.57 497.348" xml:space="preserve"><rect width="597.785" height="496.698" x=".018" fill="#717272"/><path fill="#343434" d="M593.206,489.381c0,1.379-1.119,2.492-2.498,2.492H7.113c-1.379,0-2.496-1.113-2.496-2.492V7.855	c0-1.38,1.117-2.497,2.496-2.497h583.595c1.379,0,2.498,1.117,2.498,2.497V489.381L593.206,489.381z"/><path fill="#1D1D1D" d="M578.44,479.512h0.002c2.757,0,4.991-2.234,4.991-4.994V131.285H14.461v343.232	c0,2.76,2.237,4.994,4.993,4.994H578.44z"/><polyline fill="#1D1D1D" points="14.461 131.285 14.461 62.697 583.316 62.697 583.316 130.037 14.234 130.037"/></svg>