<svg xmlns="http://www.w3.org/2000/svg" xmlns:svg="http://www.w3.org/2000/svg" xmlns:xlink="http://www.w3.org/1999/xlink" id="svg2" width="598.57" height="497.348" x="0" y="0" enable-background="new 0 0 598.57 497.348" version="1.1" viewBox="0 0 598.57 497.348" xml:space="preserve"><rect width="597.447" height="496.421" x=".602" y="-.562" fill="#717272"/><path fill="#1D1D1D" d="M459.737,130.651h-0.627H139.739h-0.751H15.038v343.044c0,2.756,2.234,4.99,4.99,4.99h117.864h1.096h0.751	H459.11h0.627h1.229h5.009h112.724c2.754,0,4.991-2.234,4.991-4.99V130.651H459.737z"/><path fill="#343434" d="M593.451,488.549c0,1.379-1.117,2.494-2.494,2.494H7.692c-1.377,0-2.494-1.115-2.494-2.494V7.286	c0-1.377,1.117-2.495,2.494-2.495h583.265c1.377,0,2.494,1.118,2.494,2.495V488.549z"/><polyline fill="#1D1D1D" points="15.038 130.651 15.038 62.1 583.568 62.1 583.568 129.403 14.81 129.403"/><text fill="#231F20" stroke="#231F20" stroke-width="1.242" display="none" font-family="'Roadgeek2005SeriesD'" font-size="12.477" transform="matrix(1 0 0 1 372.0703 38.5811)">OFF</text><text fill="#FFF" display="none" font-family="'Roadgeek2005SeriesD'" font-size="12.477" transform="matrix(1 0 0 1 371.5723 38.2065)">OFF</text><path fill="#1D1D1D" d="M137.587,479.691H19.724c-2.757,0-4.992-2.236-4.992-4.992V131.654h122.703v348.038H137.587z"/></svg>