<svg xmlns="http://www.w3.org/2000/svg" xmlns:svg="http://www.w3.org/2000/svg" xmlns:xlink="http://www.w3.org/1999/xlink" id="Layer_1" width="44.637" height="44.637" x="0" y="0" enable-background="new 0 0 44.637 44.637" version="1.1" viewBox="0 0 44.637 44.637" xml:space="preserve"><g><path d="M0,0v44.637h44.637V0H0z M22.32,43.061c-11.498,0-20.812-9.312-20.812-20.812S10.82,1.428,22.32,1.428 c11.496,0,20.816,9.321,20.816,20.821C43.136,33.743,33.816,43.064,22.32,43.061z"/><path d="M22.465,3.102c-10.573,0-19.146,8.572-19.146,19.146c0,10.565,8.573,19.143,19.146,19.143 c10.577,0,19.144-8.574,19.145-19.143C41.61,11.673,33.039,3.102,22.465,3.102z M28.176,33.929H16.757 c-4.147-2.094-7.003-6.4-7.003-11.364c0-4.223,2.062-7.926,5.231-10.238h14.962c3.17,2.312,5.231,6.015,5.231,10.238 C35.179,27.529,32.323,31.835,28.176,33.929z"/><rect width="2.644" height="7.877" x="16.448" y="16.836"/><rect width="2.699" height="6.301" x="26.405" y="17.624"/><path d="M22.86,27.123c-1.488,0-2.7,0.895-2.7,1.996v3.375h5.401v-3.375C25.561,28.018,24.349,27.123,22.86,27.123z"/></g></svg>