<svg xmlns="http://www.w3.org/2000/svg" xmlns:svg="http://www.w3.org/2000/svg" xmlns:xlink="http://www.w3.org/1999/xlink" id="Layer_1" width="44.637" height="44.637" x="0" y="0" enable-background="new 0 0 44.637 44.637" version="1.1" viewBox="0 0 44.637 44.637" xml:space="preserve"><g><path d="M22.465,3.173c-10.575,0-19.146,8.572-19.146,19.145c0,10.575,8.574,19.146,19.146,19.146 c10.574,0,19.145-8.57,19.145-19.146C41.61,11.744,33.04,3.173,22.465,3.173z M24.746,34.717c-1.659,0-3.087-0.587-4.283-1.76 c-1.197-1.173-1.795-2.755-1.795-4.745v-9.207h-2.381v-3.199h2.381V9.869h3.979v5.937h4.979v3.199h-4.979v9.312 c0,0.901,0.237,1.617,0.71,2.15c0.476,0.533,1.104,0.8,1.887,0.8c0.925,0,1.774-0.414,2.56-1.244l1.636,2.812 C28.039,34.089,26.474,34.717,24.746,34.717z"/><path d="M-0.099-0.099v44.736h44.638V-0.099H-0.099z M22.32,43.135c-11.499,0-20.817-9.321-20.817-20.817 C1.501,10.821,10.821,1.5,22.32,1.5c11.496,0,20.816,9.32,20.816,20.816S33.816,43.135,22.32,43.135z"/></g></svg>