<svg xmlns="http://www.w3.org/2000/svg" xmlns:svg="http://www.w3.org/2000/svg" id="svg3075" width="174.978" height="28.162" x="0" y="0" enable-background="new 0 0 218.723 35.203" version="1.1" viewBox="0 0 174.978 28.162" xml:space="preserve"><metadata id="metadata3199"/><g id="g3103" transform="translate(-22.189006,-3.041)"><linearGradient id="SVGID_1_" x1="109.678" x2="109.678" y1="31.203" y2="3.042" gradientUnits="userSpaceOnUse"><stop style="stop-color:#404041" id="stop3106" offset="0"/><stop style="stop-color:#3d3c3d" id="stop3108" offset=".35"/><stop style="stop-color:#323031" id="stop3110" offset=".694"/><stop style="stop-color:#231f20" id="stop3112" offset="1"/></linearGradient><path id="path3114" d="m 36.269,31.203 c -7.764,0 -14.08,-6.316 -14.08,-14.082 0,-7.764 6.316,-14.08 14.08,-14.08 h 146.816 c 7.766,0 14.082,6.316 14.082,14.08 0,7.766 -6.316,14.082 -14.082,14.082 H 36.269 z" style="fill:url(#SVGID_1_)"/><linearGradient id="SVGID_2_" x1="109.678" x2="109.678" y1="28.953" y2="5.292" gradientUnits="userSpaceOnUse"><stop style="stop-color:#231f20" id="stop3117" offset="0"/><stop style="stop-color:#323031" id="stop3119" offset=".306"/><stop style="stop-color:#3d3c3d" id="stop3121" offset=".65"/><stop style="stop-color:#404041" id="stop3123" offset="1"/></linearGradient><path id="path3125" d="m 194.917,17.121 c 0,6.535 -5.297,11.832 -11.832,11.832 H 36.269 c -6.533,0 -11.83,-5.297 -11.83,-11.832 l 0,0 c 0,-6.533 5.297,-11.83 11.83,-11.83 h 146.816 c 6.535,0 11.832,5.297 11.832,11.83 l 0,0 z" style="fill:url(#SVGID_2_)"/><linearGradient id="SVGID_3_" x1="24.438" x2="194.917" y1="11.319" y2="11.319" gradientUnits="userSpaceOnUse"><stop style="stop-color:#231f20" id="stop3128" offset="0"/><stop style="stop-color:#333e46" id="stop3130" offset=".073"/><stop style="stop-color:#537d90" id="stop3132" offset=".23"/><stop style="stop-color:#6aabc7" id="stop3134" offset=".359"/><stop style="stop-color:#79c7e9" id="stop3136" offset=".456"/><stop style="stop-color:#7ed2f6" id="stop3138" offset=".508"/><stop style="stop-color:#231f20" id="stop3140" offset="1"/></linearGradient><path id="path3142" d="m 36.269,5.74 h 146.816 c 6.459,0 11.701,5.176 11.82,11.605 0,-0.074 0.012,-0.148 0.012,-0.225 0,-6.533 -5.297,-11.83 -11.832,-11.83 H 36.269 c -6.533,0 -11.83,5.297 -11.83,11.83 0,0.076 0.009,0.15 0.012,0.225 C 24.57,10.916 29.812,5.74 36.269,5.74 z" style="fill:url(#SVGID_3_)"/><linearGradient id="SVGID_4_" x1="24.438" x2="194.917" y1="262.77" y2="262.77" gradientTransform="matrix(1,0,0,-1,0,286.1431)" gradientUnits="userSpaceOnUse"><stop style="stop-color:#231f20" id="stop3145" offset="0"/><stop style="stop-color:#333e46" id="stop3147" offset=".073"/><stop style="stop-color:#537d90" id="stop3149" offset=".23"/><stop style="stop-color:#6aabc7" id="stop3151" offset=".359"/><stop style="stop-color:#79c7e9" id="stop3153" offset=".456"/><stop style="stop-color:#7ed2f6" id="stop3155" offset=".508"/><stop style="stop-color:#231f20" id="stop3157" offset="1"/></linearGradient><path id="path3159" d="m 36.269,28.951 h 146.816 c 6.459,0 11.701,-5.176 11.82,-11.605 0,0.074 0.012,0.148 0.012,0.225 0,6.533 -5.297,11.83 -11.832,11.83 H 36.269 c -6.533,0 -11.83,-5.297 -11.83,-11.83 0,-0.076 0.009,-0.15 0.012,-0.225 0.119,6.43 5.361,11.605 11.818,11.605 z" style="fill:url(#SVGID_4_)"/></g><g id="g3161" transform="translate(-22.189006,-3.041)"><path id="path3163" d="m 49.192,20.657 c -0.519,0.463 -1.247,0.729 -2.045,0.729 -1.611,0 -2.787,-0.952 -3.417,-2.381 l 1.415,-0.519 c 0.392,0.883 1.121,1.387 2.003,1.387 0.869,0 1.457,-0.603 1.457,-1.387 0,-1.247 -1.457,-1.457 -2.675,-1.947 -0.561,-0.224 -1.807,-0.784 -1.807,-2.339 0,-1.835 1.247,-2.535 2.928,-2.535 1.316,0 2.213,0.756 2.675,1.919 l -1.317,0.392 c 0,0 -0.336,-0.798 -1.387,-0.826 -0.042,0 -0.07,0 -0.098,0 -0.644,0 -1.345,0.252 -1.345,0.994 0,0.028 0,0.07 0,0.099 0.126,1.736 4.539,0.588 4.539,4.272 -0.002,0.854 -0.338,1.61 -0.926,2.142 z" style="fill:#6fccf4"/><path id="path3165" d="m 57.228,21.218 -0.925,-2.634 h -2.927 l -0.925,2.634 h -1.583 l 3.236,-9.385 h 1.471 l 3.236,9.385 h -1.583 z m -2.368,-6.779 -0.966,2.633 h 1.877 L 54.86,14.439 z" style="fill:#6fccf4"/><path id="path3167" d="m 63.513,21.218 h -1.149 l -2.97,-9.385 h 1.555 l 2.003,6.261 1.975,-6.261 h 1.583 l -2.997,9.385 z" style="fill:#6fccf4"/><path id="path3169" d="m 67.893,21.218 v -9.385 h 5.533 v 1.484 h -4.048 v 2.297 h 2.731 v 1.514 h -2.731 v 2.577 h 4.342 v 1.513 h -5.827 z" style="fill:#6fccf4"/><path id="path3171" d="m 83.337,16.806 c -0.435,0.196 -0.995,0.322 -1.723,0.322 h -1.737 v 4.09 h -1.485 v -9.385 h 3.222 c 0.756,0 1.261,0.069 1.723,0.294 0.812,0.393 1.443,1.387 1.443,2.339 0,0.995 -0.63,1.976 -1.443,2.34 z m -0.63,-3.32 c -0.266,-0.14 -0.435,-0.168 -0.896,-0.168 h -1.933 v 2.297 h 1.933 c 0.462,0 0.63,-0.027 0.896,-0.153 0.322,-0.168 0.56,-0.603 0.56,-0.995 0,-0.393 -0.238,-0.785 -0.56,-0.981 z" style="fill:#6fccf4"/><path id="path3173" d="m 86.163,21.218 v -9.385 h 1.485 v 7.998 h 4.342 v 1.387 h -5.827 z" style="fill:#6fccf4"/><path id="path3175" d="m 98.906,21.218 -0.925,-2.634 h -2.927 l -0.925,2.634 h -1.583 l 3.236,-9.385 h 1.471 l 3.236,9.385 h -1.583 z m -2.368,-6.779 -0.966,2.633 h 1.877 l -0.911,-2.633 z" style="fill:#6fccf4"/><path id="path3177" d="m 105.26,21.386 c -1.387,0 -2.269,-0.532 -2.872,-1.681 -0.42,-0.826 -0.687,-2.018 -0.687,-3.194 0,-1.484 0.393,-2.969 1.051,-3.796 0.56,-0.687 1.345,-1.05 2.409,-1.05 1.415,0 2.297,0.602 2.928,1.919 l -1.387,0.588 c -0.519,-0.798 -0.827,-0.994 -1.541,-0.994 -0.756,0 -1.261,0.336 -1.583,1.162 -0.238,0.561 -0.364,1.373 -0.364,2.171 0,1.023 0.224,2.046 0.588,2.634 0.336,0.49 0.756,0.729 1.415,0.729 0.63,0 1.093,-0.336 1.457,-1.093 l 1.415,0.532 c -0.56,1.373 -1.484,2.073 -2.829,2.073 z" style="fill:#6fccf4"/><path id="path3179" d="m 110.131,21.218 v -9.385 h 5.533 v 1.484 h -4.049 v 2.297 h 2.731 v 1.514 h -2.731 v 2.577 h 4.342 v 1.513 h -5.826 z" style="fill:#6fccf4"/><path id="path3181" d="m 125.435,20.657 c -0.518,0.463 -1.246,0.729 -2.045,0.729 -1.61,0 -2.787,-0.952 -3.417,-2.381 l 1.414,-0.519 c 0.393,0.883 1.121,1.387 2.003,1.387 0.869,0 1.457,-0.603 1.457,-1.387 0,-1.247 -1.457,-1.457 -2.676,-1.947 -0.56,-0.224 -1.807,-0.784 -1.807,-2.339 0,-1.835 1.247,-2.535 2.928,-2.535 1.316,0 2.213,0.756 2.675,1.919 l -1.316,0.392 c 0,0 -0.336,-0.798 -1.387,-0.826 -0.042,0 -0.07,0 -0.098,0 -0.645,0 -1.345,0.252 -1.345,0.994 0,0.028 0,0.07 0,0.099 0.126,1.736 4.538,0.588 4.538,4.272 0,0.854 -0.336,1.61 -0.924,2.142 z" style="fill:#6fccf4"/><path id="path3183" d="m 127.938,21.218 v -9.385 h 5.532 v 1.484 h -4.048 v 2.297 h 2.731 v 1.514 h -2.731 v 2.577 h 4.342 v 1.513 h -5.826 z" style="fill:#6fccf4"/><path id="path3185" d="m 138.146,13.15 v 8.068 h -1.484 V 13.15 h -2.144 v -1.316 h 5.8 v 1.316 h -2.172 z" style="fill:#6fccf4"/><path id="path3187" d="m 144.501,13.15 v 8.068 h -1.484 V 13.15 h -2.144 v -1.316 h 5.8 v 1.316 h -2.172 z" style="fill:#6fccf4"/><path id="path3189" d="m 148.056,21.218 v -9.385 h 1.514 v 9.385 h -1.514 z" style="fill:#6fccf4"/><path id="path3191" d="m 156.878,21.218 -3.586,-6.359 v 6.359 h -1.484 v -9.385 h 1.484 l 3.418,5.995 v -5.995 h 1.484 v 9.385 h -1.316 z" style="fill:#6fccf4"/><path id="path3193" d="m 163.653,21.386 c -1.415,0 -2.241,-0.532 -2.802,-1.709 -0.393,-0.826 -0.616,-1.989 -0.616,-3.138 0,-1.513 0.42,-2.997 1.05,-3.824 0.561,-0.687 1.345,-1.05 2.41,-1.05 1.442,0 2.297,0.602 2.927,2.072 l -1.414,0.561 c -0.393,-0.812 -0.799,-1.12 -1.513,-1.12 -0.757,0 -1.261,0.336 -1.583,1.162 -0.238,0.561 -0.364,1.415 -0.364,2.199 0,0.995 0.168,1.976 0.462,2.577 0.294,0.519 0.729,0.757 1.289,0.757 0.952,0 1.639,-0.603 1.639,-1.457 v -0.392 h -1.709 v -1.485 h 3.193 v 1.877 c 0,1.709 -1.246,2.97 -2.969,2.97 z" style="fill:#6fccf4"/><path id="path3195" d="m 173.468,20.657 c -0.518,0.463 -1.246,0.729 -2.045,0.729 -1.61,0 -2.787,-0.952 -3.418,-2.381 l 1.415,-0.519 c 0.393,0.883 1.121,1.387 2.003,1.387 0.869,0 1.457,-0.603 1.457,-1.387 0,-1.247 -1.457,-1.457 -2.676,-1.947 -0.56,-0.224 -1.807,-0.784 -1.807,-2.339 0,-1.835 1.247,-2.535 2.928,-2.535 1.316,0 2.213,0.756 2.675,1.919 l -1.316,0.392 c 0,0 -0.336,-0.798 -1.387,-0.826 -0.042,0 -0.07,0 -0.098,0 -0.645,0 -1.345,0.252 -1.345,0.994 0,0.028 0,0.07 0,0.099 0.126,1.736 4.538,0.588 4.538,4.272 0.001,0.854 -0.335,1.61 -0.924,2.142 z" style="fill:#6fccf4"/></g></svg>