<svg xmlns="http://www.w3.org/2000/svg" xmlns:svg="http://www.w3.org/2000/svg" xmlns:xlink="http://www.w3.org/1999/xlink" id="Layer_1" width="164.533" height="164.543" x="0" y="0" enable-background="new 0 0 164.533 164.543" version="1.1" viewBox="0 0 164.533 164.543" xml:space="preserve"><g id="g3" transform="translate(-404.015,-566.16)"><path id="path5" d="M486.291,566.16c-45.366,0-82.276,36.909-82.276,82.279 c0,45.363,36.91,82.264,82.276,82.264c45.354,0,82.257-36.9,82.257-82.264C568.548,603.069,531.646,566.16,486.291,566.16 L486.291,566.16z"/><g id="g7"><path id="path9" fill="#FFF" d="M486.291,571.688c-42.393,0-76.744,34.361-76.744,76.751 c0,42.375,34.352,76.736,76.744,76.736c42.37,0,76.729-34.36,76.729-76.736C563.02,606.049,528.661,571.688,486.291,571.688 L486.291,571.688z M486.821,718.999c-38.975,0-70.567-31.591-70.567-70.56c0-38.976,31.593-70.575,70.567-70.575 c38.971,0,70.567,31.599,70.567,70.575C557.389,687.408,525.791,718.999,486.821,718.999z"/></g><g id="g11"><g id="g13"><g id="g15"><path id="path17" fill="#FFF" d="M469.352,636.697c0.354,0,0.641-0.318,0.641-0.707v-0.671 c0-0.388-0.287-0.707-0.641-0.707h-9.988c-0.355,0-0.645,0.318-0.645,0.707v0.671c0,0.388,0.289,0.707,0.645,0.707H469.352z"/></g><g id="g19"><path id="path21" fill="#FFF" d="M469.352,639.743c0.354,0,0.641-0.318,0.641-0.71v-0.667 c0-0.392-0.287-0.71-0.641-0.71h-9.988c-0.355,0-0.645,0.318-0.645,0.71v0.667c0,0.392,0.289,0.71,0.645,0.71H469.352z"/></g><g id="g23"><path id="path25" fill="#FFF" d="M469.352,642.785c0.354,0,0.641-0.318,0.641-0.707v-0.67 c0-0.388-0.287-0.707-0.641-0.707h-9.988c-0.355,0-0.645,0.318-0.645,0.707v0.67c0,0.389,0.289,0.707,0.645,0.707H469.352z"/></g><g id="g27"><path id="path29" fill="#FFF" d="M467.646,643.85c-0.602,1.203-1.846,2.044-3.28,2.044 c-1.429,0-2.692-0.855-3.304-2.044H467.646L467.646,643.85L467.646,643.85z"/></g><path id="path31" fill="#FFF" d="M452.451,611.227c2.373,6.929,3.168,15.408,3.724,18.758 c0.468,2.805,1.116,3.457,3.237,3.457c0.901,0,3.372,0,4.944,0c1.57,0,4.042,0,4.942,0c2.123,0,2.771-0.652,3.24-3.457 c0.557-3.35,1.012-9.904,3.723-18.758H452.451L452.451,611.227z"/></g><path id="path33" fill="#FFF" d="M452.285,610.316h24.141l2.98-7.694 c0,0,1.857-6.492-15.05-6.492c-17.288,0-15.12,6.029-15.12,6.029L452.285,610.316L452.285,610.316z"/></g><g id="g35"><g id="g37"><g id="g39"><path id="path41" fill="#FFF" d="M515.162,636.697c0.352,0,0.641-0.318,0.641-0.707v-0.671 c0-0.388-0.289-0.707-0.641-0.707h-9.989c-0.356,0-0.644,0.318-0.644,0.707v0.671c0,0.388,0.286,0.707,0.644,0.707H515.162z"/></g><g id="g43"><path id="path45" fill="#FFF" d="M515.162,639.743c0.352,0,0.641-0.318,0.641-0.71v-0.667 c0-0.392-0.289-0.71-0.641-0.71h-9.989c-0.356,0-0.644,0.318-0.644,0.71v0.667c0,0.392,0.286,0.71,0.644,0.71H515.162z"/></g><g id="g47"><path id="path49" fill="#FFF" d="M515.162,642.785c0.352,0,0.641-0.318,0.641-0.707v-0.67 c0-0.388-0.289-0.707-0.641-0.707h-9.989c-0.356,0-0.644,0.318-0.644,0.707v0.67c0,0.389,0.286,0.707,0.644,0.707H515.162z"/></g><g id="g51"><path id="path53" fill="#FFF" d="M513.457,643.85c-0.604,1.203-1.849,2.044-3.281,2.044 c-1.43,0-2.692-0.855-3.303-2.044H513.457L513.457,643.85z"/></g><path id="path55" fill="#FFF" d="M498.262,611.227c2.373,6.929,3.167,15.408,3.723,18.758 c0.467,2.805,1.116,3.457,3.236,3.457c0.902,0,3.373,0,4.945,0c1.57,0,4.041,0,4.942,0c2.122,0,2.771-0.652,3.239-3.457 c0.559-3.35,1.012-9.904,3.723-18.758H498.262z"/></g><path id="path57" fill="#FFF" d="M498.094,610.316h24.143l2.98-7.694 c0,0,1.855-6.492-15.051-6.492c-17.289,0-15.121,6.029-15.121,6.029L498.094,610.316z"/></g><g id="g59"><g id="g61"><g id="g63"><path id="path65" fill="#FFF" d="M469.352,693.855c0.354,0,0.641-0.317,0.641-0.706v-0.671 c0-0.389-0.287-0.707-0.641-0.707h-9.988c-0.355,0-0.645,0.318-0.645,0.707v0.671c0,0.389,0.289,0.706,0.645,0.706H469.352z"/></g><g id="g67"><path id="path69" fill="#FFF" d="M469.352,696.901c0.354,0,0.641-0.317,0.641-0.71v-0.667 c0-0.392-0.287-0.71-0.641-0.71h-9.988c-0.355,0-0.645,0.318-0.645,0.71v0.667c0,0.393,0.289,0.71,0.645,0.71H469.352z"/></g><g id="g71"><path id="path73" fill="#FFF" d="M469.352,699.943c0.354,0,0.641-0.318,0.641-0.707v-0.67 c0-0.389-0.287-0.707-0.641-0.707h-9.988c-0.355,0-0.645,0.318-0.645,0.707v0.67c0,0.389,0.289,0.707,0.645,0.707H469.352z"/></g><g id="g75"><path id="path77" fill="#FFF" d="M467.646,701.01c-0.602,1.201-1.846,2.043-3.28,2.043 c-1.429,0-2.692-0.854-3.304-2.043H467.646L467.646,701.01L467.646,701.01z"/></g><path id="path79" fill="#FFF" d="M452.451,668.385c2.373,6.931,3.168,15.408,3.724,18.758 c0.468,2.807,1.116,3.457,3.237,3.457c0.901,0,3.372,0,4.944,0c1.57,0,4.042,0,4.942,0c2.123,0,2.771-0.65,3.24-3.457 c0.557-3.35,1.012-9.902,3.723-18.758H452.451L452.451,668.385z"/></g><path id="path81" fill="#FFF" d="M452.285,667.474h24.141l2.98-7.692 c0,0,1.857-6.492-15.05-6.492c-17.288,0-15.12,6.029-15.12,6.029L452.285,667.474L452.285,667.474z"/></g><g id="g83"><g id="g85"><g id="g87"><path id="path89" fill="#FFF" d="M515.162,693.855c0.352,0,0.641-0.317,0.641-0.706v-0.671 c0-0.389-0.289-0.707-0.641-0.707h-9.989c-0.356,0-0.644,0.318-0.644,0.707v0.671c0,0.389,0.286,0.706,0.644,0.706H515.162z"/></g><g id="g91"><path id="path93" fill="#FFF" d="M515.162,696.901c0.352,0,0.641-0.317,0.641-0.71v-0.667 c0-0.392-0.289-0.71-0.641-0.71h-9.989c-0.356,0-0.644,0.318-0.644,0.71v0.667c0,0.393,0.286,0.71,0.644,0.71H515.162z"/></g><g id="g95"><path id="path97" fill="#FFF" d="M515.162,699.943c0.352,0,0.641-0.318,0.641-0.707v-0.67 c0-0.389-0.289-0.707-0.641-0.707h-9.989c-0.356,0-0.644,0.318-0.644,0.707v0.67c0,0.389,0.286,0.707,0.644,0.707H515.162z"/></g><g id="g99"><path id="path101" fill="#FFF" d="M513.457,701.01c-0.604,1.201-1.849,2.043-3.281,2.043 c-1.43,0-2.692-0.854-3.303-2.043H513.457L513.457,701.01z"/></g><path id="path103" fill="#FFF" d="M498.262,668.385c2.373,6.931,3.167,15.408,3.723,18.758 c0.467,2.807,1.116,3.457,3.236,3.457c0.902,0,3.373,0,4.945,0c1.57,0,4.041,0,4.942,0c2.122,0,2.771-0.65,3.239-3.457 c0.559-3.35,1.012-9.902,3.723-18.758H498.262z"/></g><path id="path105" fill="#FFF" d="M498.094,667.474h24.143l2.98-7.692 c0,0,1.855-6.492-15.051-6.492c-17.289,0-15.121,6.029-15.121,6.029L498.094,667.474z"/></g></g></svg>