<svg xmlns="http://www.w3.org/2000/svg" xmlns:svg="http://www.w3.org/2000/svg" xmlns:xlink="http://www.w3.org/1999/xlink" id="Layer_1" width="164.533" height="164.543" x="0" y="0" enable-background="new 0 0 164.533 164.543" version="1.1" viewBox="0 0 164.533 164.543" xml:space="preserve"><g><path fill="#111" d="M82.077,0C36.85,0,0.05,36.795,0.05,82.025c0,45.217,36.8,82.01,82.027,82.01 c45.22,0,82.013-36.793,82.013-82.01C164.09,36.795,127.297,0,82.077,0z"/><g><path fill="#FFF" d="M82.077,5.512c-42.258,0-76.515,34.255-76.515,76.514c0,42.24,34.257,76.498,76.515,76.498 c42.248,0,76.5-34.258,76.5-76.498C158.577,39.767,124.325,5.512,82.077,5.512z M82.608,152.373 c-38.856,0-70.356-31.504-70.356-70.348c0-38.856,31.5-70.357,70.356-70.357c38.858,0,70.356,31.501,70.356,70.357 C152.965,120.869,121.467,152.373,82.608,152.373z"/></g><path fill="#FFF" d="M93.317,114.688c0,4.459-3.617,8.068-8.072,8.068l0,0c-4.46,0-8.068-3.609-8.068-8.068V46.7 c0-4.452,3.608-8.067,8.068-8.067l0,0c4.455,0,8.072,3.615,8.072,8.067V114.688z"/></g></svg>