<svg xmlns="http://www.w3.org/2000/svg" xmlns:svg="http://www.w3.org/2000/svg" id="Layer_1" width="761.905" height="804.154" x="0" y="0" enable-background="new 0 0 802 802" version="1.1" viewBox="0 0 761.905 804.154" xml:space="preserve"><metadata id="metadata10"/><rect id="rect3" width="761.905" height="804.154" x="0" y="0"/><g id="g5" transform="translate(-231.47301,-188.74999)"><path id="path7" d="m 609.536,901.992 c -88.931,0 -172.539,-34.631 -235.424,-97.516 -62.885,-62.885 -97.516,-146.494 -97.516,-235.424 0,-88.931 34.632,-172.54 97.516,-235.423 62.885,-62.885 146.493,-97.516 235.424,-97.516 88.933,0 172.54,34.631 235.427,97.516 62.883,62.884 97.514,146.492 97.514,235.423 0,88.932 -34.632,172.54 -97.514,235.424 -62.887,62.885 -146.495,97.516 -235.427,97.516 l 0,0 z m 0,-627.786 c -162.578,0 -294.845,132.267 -294.845,294.845 0,162.58 132.267,294.845 294.845,294.845 162.579,0 294.846,-132.264 294.846,-294.845 C 904.381,406.472 772.115,274.206 609.536,274.206 z" style="fill:#282828;stroke:#282828"/></g><path id="path9" d="m 378.2,256.624 c 68.196,0 123.677,55.481 123.677,123.678 0,68.196 -55.481,123.678 -123.677,123.678 V 256.624 z" style="fill:#282828;stroke:#282828"/></svg>